CooperHewittInterpol2-Book.ufo
<glyph name="dollar" format="1">
  <advance width="600"/>
  <unicode hex="0024"/>
  <outline>
    <contour>
      <point x="143" y="547" type="line" smooth="yes"/>
      <point x="143" y="552" type="line" smooth="yes"/>
      <point x="164" y="613" type="line" smooth="yes"/>
      <point x="220" y="651" type="line" smooth="yes"/>
      <point x="298" y="665" type="line" smooth="yes"/>
      <point x="302" y="665" type="line" smooth="yes"/>
      <point x="312" y="665" type="line" smooth="yes"/>
      <point x="322" y="664" type="line" smooth="yes"/>
      <point x="332" y="663" type="line" smooth="yes"/>
      <point x="276" y="431" type="line" smooth="yes"/>
      <point x="198" y="456" type="line" smooth="yes"/>
      <point x="156" y="494" type="line" smooth="yes"/>
    </contour>
    <contour>
      <point x="310" y="115" type="line" smooth="yes"/>
      <point x="307" y="115" type="line" smooth="yes"/>
      <point x="291" y="115" type="line" smooth="yes"/>
      <point x="276" y="117" type="line" smooth="yes"/>
      <point x="262" y="119" type="line" smooth="yes"/>
      <point x="321" y="364" type="line" smooth="yes"/>
      <point x="401" y="342" type="line" smooth="yes"/>
      <point x="448" y="303" type="line" smooth="yes"/>
      <point x="464" y="242" type="line" smooth="yes"/>
      <point x="464" y="237" type="line" smooth="yes"/>
      <point x="445" y="171" type="line" smooth="yes"/>
      <point x="391" y="130" type="line" smooth="yes"/>
    </contour>
    <contour>
      <point x="435" y="840" type="line" smooth="yes"/>
      <point x="374" y="840" type="line" smooth="yes"/>
      <point x="346" y="724" type="line" smooth="yes"/>
      <point x="331" y="726" type="line" smooth="yes"/>
      <point x="316" y="727" type="line" smooth="yes"/>
      <point x="300" y="727" type="line" smooth="yes"/>
      <point x="180" y="705" type="line" smooth="yes"/>
      <point x="100" y="643" type="line" smooth="yes"/>
      <point x="71" y="547" type="line" smooth="yes"/>
      <point x="71" y="540" type="line" smooth="yes"/>
      <point x="90" y="463" type="line" smooth="yes"/>
      <point x="151" y="406" type="line" smooth="yes"/>
      <point x="262" y="372" type="line" smooth="yes"/>
      <point x="206" y="138" type="line" smooth="yes"/>
      <point x="167" y="171" type="line" smooth="yes"/>
      <point x="142" y="217" type="line" smooth="yes"/>
      <point x="134" y="274" type="line" smooth="yes"/>
      <point x="63" y="274" type="line" smooth="yes"/>
      <point x="63" y="267" type="line" smooth="yes"/>
      <point x="78" y="185" type="line" smooth="yes"/>
      <point x="120" y="119" type="line" smooth="yes"/>
      <point x="191" y="73" type="line" smooth="yes"/>
      <point x="159" y="-60" type="line" smooth="yes"/>
      <point x="220" y="-60" type="line" smooth="yes"/>
      <point x="248" y="57" type="line" smooth="yes"/>
      <point x="267" y="55" type="line" smooth="yes"/>
      <point x="287" y="53" type="line" smooth="yes"/>
      <point x="308" y="53" type="line" smooth="yes"/>
      <point x="431" y="76" type="line" smooth="yes"/>
      <point x="509" y="141" type="line" smooth="yes"/>
      <point x="537" y="241" type="line" smooth="yes"/>
      <point x="537" y="249" type="line" smooth="yes"/>
      <point x="515" y="335" type="line" smooth="yes"/>
      <point x="448" y="392" type="line" smooth="yes"/>
      <point x="335" y="423" type="line" smooth="yes"/>
      <point x="389" y="647" type="line" smooth="yes"/>
      <point x="429" y="613" type="line" smooth="yes"/>
      <point x="452" y="563" type="line" smooth="yes"/>
      <point x="460" y="496" type="line" smooth="yes"/>
      <point x="530" y="496" type="line" smooth="yes"/>
      <point x="530" y="512" type="line" smooth="yes"/>
      <point x="516" y="601" type="line" smooth="yes"/>
      <point x="475" y="669" type="line" smooth="yes"/>
      <point x="404" y="711" type="line" smooth="yes"/>
    </contour>
  </outline>
</glyph>
<glyph name="percent" format="1">
  <advance width="921"/>
  <unicode hex="0025"/>
  <outline>
    <contour>
      <point x="607" y="157" type="line" smooth="yes"/>
      <point x="607" y="174" type="line" smooth="yes"/>
      <point x="621" y="234" type="line" smooth="yes"/>
      <point x="659" y="271" type="line" smooth="yes"/>
      <point x="712" y="283" type="line" smooth="yes"/>
      <point x="718" y="283" type="line" smooth="yes"/>
      <point x="772" y="271" type="line" smooth="yes"/>
      <point x="810" y="234" type="line" smooth="yes"/>
      <point x="824" y="174" type="line" smooth="yes"/>
      <point x="824" y="157" type="line" smooth="yes"/>
      <point x="810" y="97" type="line" smooth="yes"/>
      <point x="772" y="60" type="line" smooth="yes"/>
      <point x="718" y="48" type="line" smooth="yes"/>
      <point x="712" y="48" type="line" smooth="yes"/>
      <point x="659" y="60" type="line" smooth="yes"/>
      <point x="621" y="97" type="line" smooth="yes"/>
    </contour>
    <contour>
      <point x="315" y="623" type="line" smooth="yes"/>
      <point x="315" y="606" type="line" smooth="yes"/>
      <point x="300" y="546" type="line" smooth="yes"/>
      <point x="262" y="509" type="line" smooth="yes"/>
      <point x="209" y="497" type="line" smooth="yes"/>
      <point x="203" y="497" type="line" smooth="yes"/>
      <point x="150" y="509" type="line" smooth="yes"/>
      <point x="112" y="546" type="line" smooth="yes"/>
      <point x="97" y="606" type="line" smooth="yes"/>
      <point x="97" y="623" type="line" smooth="yes"/>
      <point x="112" y="683" type="line" smooth="yes"/>
      <point x="150" y="720" type="line" smooth="yes"/>
      <point x="203" y="732" type="line" smooth="yes"/>
      <point x="209" y="732" type="line" smooth="yes"/>
      <point x="262" y="720" type="line" smooth="yes"/>
      <point x="300" y="683" type="line" smooth="yes"/>
    </contour>
    <contour>
      <point x="548" y="171" type="line" smooth="yes"/>
      <point x="548" y="160" type="line" smooth="yes"/>
      <point x="571" y="65" type="line" smooth="yes"/>
      <point x="631" y="8" type="line" smooth="yes"/>
      <point x="715" y="-11" type="line" smooth="yes"/>
      <point x="800" y="8" type="line" smooth="yes"/>
      <point x="860" y="65" type="line" smooth="yes"/>
      <point x="883" y="160" type="line" smooth="yes"/>
      <point x="883" y="171" type="line" smooth="yes"/>
      <point x="860" y="266" type="line" smooth="yes"/>
      <point x="800" y="323" type="line" smooth="yes"/>
      <point x="715" y="342" type="line" smooth="yes"/>
      <point x="631" y="323" type="line" smooth="yes"/>
      <point x="571" y="266" type="line" smooth="yes"/>
    </contour>
    <contour>
      <point x="332" y="0" type="line" smooth="yes"/>
      <point x="637" y="734" type="line" smooth="yes"/>
      <point x="637" y="781" type="line" smooth="yes"/>
      <point x="592" y="767" type="line" smooth="yes"/>
      <point x="524" y="755" type="line" smooth="yes"/>
      <point x="451" y="749" type="line" smooth="yes"/>
      <point x="390" y="752" type="line" smooth="yes"/>
      <point x="330" y="762" type="line" smooth="yes"/>
      <point x="272" y="780" type="line" smooth="yes"/>
      <point x="251" y="786" type="line" smooth="yes"/>
      <point x="229" y="790" type="line" smooth="yes"/>
      <point x="206" y="791" type="line" smooth="yes"/>
      <point x="121" y="772" type="line" smooth="yes"/>
      <point x="61" y="715" type="line" smooth="yes"/>
      <point x="38" y="620" type="line" smooth="yes"/>
      <point x="38" y="609" type="line" smooth="yes"/>
      <point x="61" y="514" type="line" smooth="yes"/>
      <point x="121" y="457" type="line" smooth="yes"/>
      <point x="206" y="438" type="line" smooth="yes"/>
      <point x="291" y="457" type="line" smooth="yes"/>
      <point x="351" y="514" type="line" smooth="yes"/>
      <point x="374" y="609" type="line" smooth="yes"/>
      <point x="374" y="620" type="line" smooth="yes"/>
      <point x="372" y="647" type="line" smooth="yes"/>
      <point x="368" y="672" type="line" smooth="yes"/>
      <point x="360" y="695" type="line" smooth="yes"/>
      <point x="386" y="691" type="line" smooth="yes"/>
      <point x="414" y="689" type="line" smooth="yes"/>
      <point x="443" y="688" type="line" smooth="yes"/>
      <point x="499" y="692" type="line" smooth="yes"/>
      <point x="539" y="699" type="line" smooth="yes"/>
      <point x="557" y="703" type="line" smooth="yes"/>
      <point x="265" y="0" type="line" smooth="yes"/>
    </contour>
  </outline>
</glyph>
<glyph name="ampersand" format="1">
  <advance width="661"/>
  <unicode hex="0026"/>
  <outline>
    <contour>
      <point x="141" y="628" type="line" smooth="yes"/>
      <point x="153" y="677" type="line" smooth="yes"/>
      <point x="190" y="713" type="line" smooth="yes"/>
      <point x="251" y="727" type="line" smooth="yes"/>
      <point x="258" y="727" type="line" smooth="yes"/>
      <point x="319" y="713" type="line" smooth="yes"/>
      <point x="355" y="677" type="line" smooth="yes"/>
      <point x="367" y="628" type="line" smooth="yes"/>
      <point x="367" y="619" type="line" smooth="yes"/>
      <point x="347" y="557" type="line" smooth="yes"/>
      <point x="295" y="507" type="line" smooth="yes"/>
      <point x="225" y="460" type="line" smooth="yes"/>
      <point x="182" y="509" type="line" smooth="yes"/>
      <point x="152" y="561" type="line" smooth="yes"/>
      <point x="141" y="619" type="line" smooth="yes"/>
    </contour>
    <contour>
      <point x="269" y="54" type="line" smooth="yes"/>
      <point x="182" y="73" type="line" smooth="yes"/>
      <point x="131" y="127" type="line" smooth="yes"/>
      <point x="114" y="207" type="line" smooth="yes"/>
      <point x="114" y="216" type="line" smooth="yes"/>
      <point x="127" y="279" type="line" smooth="yes"/>
      <point x="163" y="330" type="line" smooth="yes"/>
      <point x="214" y="374" type="line" smooth="yes"/>
      <point x="443" y="125" type="line" smooth="yes"/>
      <point x="393" y="84" type="line" smooth="yes"/>
      <point x="335" y="61" type="line" smooth="yes"/>
      <point x="275" y="54" type="line" smooth="yes"/>
    </contour>
    <contour>
      <point x="265" y="-11" type="line" smooth="yes"/>
      <point x="349" y="-2" type="line" smooth="yes"/>
      <point x="424" y="27" type="line" smooth="yes"/>
      <point x="489" y="75" type="line" smooth="yes"/>
      <point x="559" y="0" type="line" smooth="yes"/>
      <point x="650" y="0" type="line" smooth="yes"/>
      <point x="532" y="128" type="line" smooth="yes"/>
      <point x="567" y="201" type="line" smooth="yes"/>
      <point x="590" y="289" type="line" smooth="yes"/>
      <point x="598" y="394" type="line" smooth="yes"/>
      <point x="525" y="394" type="line" smooth="yes"/>
      <point x="525" y="391" type="line" smooth="yes"/>
      <point x="520" y="309" type="line" smooth="yes"/>
      <point x="505" y="239" type="line" smooth="yes"/>
      <point x="483" y="182" type="line" smooth="yes"/>
      <point x="270" y="413" type="line" smooth="yes"/>
      <point x="351" y="469" type="line" smooth="yes"/>
      <point x="414" y="534" type="line" smooth="yes"/>
      <point x="440" y="619" type="line" smooth="yes"/>
      <point x="440" y="629" type="line" smooth="yes"/>
      <point x="419" y="712" type="line" smooth="yes"/>
      <point x="356" y="769" type="line" smooth="yes"/>
      <point x="254" y="791" type="line" smooth="yes"/>
      <point x="152" y="769" type="line" smooth="yes"/>
      <point x="90" y="712" type="line" smooth="yes"/>
      <point x="69" y="629" type="line" smooth="yes"/>
      <point x="69" y="619" type="line" smooth="yes"/>
      <point x="81" y="548" type="line" smooth="yes"/>
      <point x="115" y="486" type="line" smooth="yes"/>
      <point x="169" y="422" type="line" smooth="yes"/>
      <point x="106" y="369" type="line" smooth="yes"/>
      <point x="60" y="301" type="line" smooth="yes"/>
      <point x="42" y="213" type="line" smooth="yes"/>
      <point x="42" y="203" type="line" smooth="yes"/>
      <point x="69" y="88" type="line" smooth="yes"/>
      <point x="146" y="14" type="line" smooth="yes"/>
    </contour>
  </outline>
</glyph>
<glyph name="parenleft" format="1">
  <advance width="317"/>
  <unicode hex="0028"/>
  <outline>
    <contour>
      <point x="51" y="350" type="line" smooth="yes"/>
      <point x="73" y="151" type="line" smooth="yes"/>
      <point x="129" y="3" type="line" smooth="yes"/>
      <point x="206" y="-120" type="line" smooth="yes"/>
      <point x="283" y="-120" type="line" smooth="yes"/>
      <point x="200" y="11" type="line" smooth="yes"/>
      <point x="143" y="161" type="line" smooth="yes"/>
      <point x="122" y="350" type="line" smooth="yes"/>
      <point x="122" y="370" type="line" smooth="yes"/>
      <point x="143" y="559" type="line" smooth="yes"/>
      <point x="200" y="709" type="line" smooth="yes"/>
      <point x="283" y="840" type="line" smooth="yes"/>
      <point x="206" y="840" type="line" smooth="yes"/>
      <point x="129" y="717" type="line" smooth="yes"/>
      <point x="73" y="569" type="line" smooth="yes"/>
      <point x="51" y="370" type="line" smooth="yes"/>
    </contour>
  </outline>
</glyph>
<glyph name="parenright" format="1">
  <advance width="317"/>
  <unicode hex="0029"/>
  <outline>
    <contour>
      <point x="266" y="370" type="line" smooth="yes"/>
      <point x="244" y="569" type="line" smooth="yes"/>
      <point x="189" y="717" type="line" smooth="yes"/>
      <point x="111" y="840" type="line" smooth="yes"/>
      <point x="34" y="840" type="line" smooth="yes"/>
      <point x="117" y="709" type="line" smooth="yes"/>
      <point x="174" y="559" type="line" smooth="yes"/>
      <point x="195" y="370" type="line" smooth="yes"/>
      <point x="195" y="350" type="line" smooth="yes"/>
      <point x="174" y="161" type="line" smooth="yes"/>
      <point x="117" y="11" type="line" smooth="yes"/>
      <point x="34" y="-120" type="line" smooth="yes"/>
      <point x="111" y="-120" type="line" smooth="yes"/>
      <point x="189" y="3" type="line" smooth="yes"/>
      <point x="244" y="151" type="line" smooth="yes"/>
      <point x="266" y="350" type="line" smooth="yes"/>
    </contour>
  </outline>
</glyph>
<glyph name="slash" format="1">
  <advance width="330"/>
  <unicode hex="002F"/>
  <outline>
    <contour>
      <point x="315" y="840" type="line" smooth="yes"/>
      <point x="245" y="840" type="line" smooth="yes"/>
      <point x="15" y="-120" type="line" smooth="yes"/>
      <point x="85" y="-120" type="line" smooth="yes"/>
    </contour>
  </outline>
</glyph>
<glyph name="zero" format="1">
  <advance width="600"/>
  <unicode hex="0030"/>
  <outline>
    <contour>
      <point x="467" y="548" type="line" smooth="yes"/>
      <point x="467" y="232" type="line" smooth="yes"/>
      <point x="452" y="138" type="line" smooth="yes"/>
      <point x="400" y="75" type="line" smooth="yes"/>
      <point x="303" y="53" type="line" smooth="yes"/>
      <point x="297" y="53" type="line" smooth="yes"/>
      <point x="200" y="75" type="line" smooth="yes"/>
      <point x="148" y="138" type="line" smooth="yes"/>
      <point x="133" y="232" type="line" smooth="yes"/>
      <point x="133" y="548" type="line" smooth="yes"/>
      <point x="148" y="642" type="line" smooth="yes"/>
      <point x="200" y="705" type="line" smooth="yes"/>
      <point x="297" y="727" type="line" smooth="yes"/>
      <point x="303" y="727" type="line" smooth="yes"/>
      <point x="400" y="705" type="line" smooth="yes"/>
      <point x="452" y="642" type="line" smooth="yes"/>
    </contour>
    <contour>
      <point x="62" y="556" type="line" smooth="yes"/>
      <point x="62" y="224" type="line" smooth="yes"/>
      <point x="86" y="103" type="line" smooth="yes"/>
      <point x="163" y="20" type="line" smooth="yes"/>
      <point x="300" y="-11" type="line" smooth="yes"/>
      <point x="437" y="20" type="line" smooth="yes"/>
      <point x="514" y="103" type="line" smooth="yes"/>
      <point x="538" y="224" type="line" smooth="yes"/>
      <point x="538" y="556" type="line" smooth="yes"/>
      <point x="514" y="677" type="line" smooth="yes"/>
      <point x="437" y="760" type="line" smooth="yes"/>
      <point x="300" y="791" type="line" smooth="yes"/>
      <point x="163" y="760" type="line" smooth="yes"/>
      <point x="86" y="677" type="line" smooth="yes"/>
    </contour>
  </outline>
</glyph>
<glyph name="two" format="1">
  <advance width="600"/>
  <unicode hex="0032"/>
  <outline>
    <contour>
      <point x="240" y="65" type="line" smooth="yes"/>
      <point x="165" y="64" type="line" smooth="yes"/>
      <point x="453" y="370" type="line" smooth="yes"/>
      <point x="508" y="437" type="line" smooth="yes"/>
      <point x="536" y="500" type="line" smooth="yes"/>
      <point x="544" y="571" type="line" smooth="yes"/>
      <point x="544" y="583" type="line" smooth="yes"/>
      <point x="516" y="692" type="line" smooth="yes"/>
      <point x="433" y="764" type="line" smooth="yes"/>
      <point x="300" y="791" type="line" smooth="yes"/>
      <point x="162" y="762" type="line" smooth="yes"/>
      <point x="82" y="678" type="line" smooth="yes"/>
      <point x="56" y="544" type="line" smooth="yes"/>
      <point x="56" y="520" type="line" smooth="yes"/>
      <point x="127" y="520" type="line" smooth="yes"/>
      <point x="146" y="639" type="line" smooth="yes"/>
      <point x="203" y="706" type="line" smooth="yes"/>
      <point x="297" y="727" type="line" smooth="yes"/>
      <point x="303" y="727" type="line" smooth="yes"/>
      <point x="392" y="708" type="line" smooth="yes"/>
      <point x="451" y="655" type="line" smooth="yes"/>
      <point x="473" y="572" type="line" smooth="yes"/>
      <point x="473" y="562" type="line" smooth="yes"/>
      <point x="466" y="509" type="line" smooth="yes"/>
      <point x="440" y="459" type="line" smooth="yes"/>
      <point x="393" y="403" type="line" smooth="yes"/>
      <point x="56" y="45" type="line" smooth="yes"/>
      <point x="56" y="0" type="line" smooth="yes"/>
      <point x="544" y="0" type="line" smooth="yes"/>
      <point x="544" y="65" type="line" smooth="yes"/>
    </contour>
  </outline>
</glyph>
<glyph name="three" format="1">
  <advance width="600"/>
  <unicode hex="0033"/>
  <outline>
    <contour>
      <point x="122" y="250" type="line" smooth="yes"/>
      <point x="51" y="250" type="line" smooth="yes"/>
      <point x="51" y="239" type="line" smooth="yes"/>
      <point x="78" y="106" type="line" smooth="yes"/>
      <point x="160" y="20" type="line" smooth="yes"/>
      <point x="300" y="-11" type="line" smooth="yes"/>
      <point x="430" y="16" type="line" smooth="yes"/>
      <point x="517" y="90" type="line" smooth="yes"/>
      <point x="549" y="200" type="line" smooth="yes"/>
      <point x="549" y="216" type="line" smooth="yes"/>
      <point x="533" y="299" type="line" smooth="yes"/>
      <point x="489" y="360" type="line" smooth="yes"/>
      <point x="423" y="398" type="line" smooth="yes"/>
      <point x="486" y="433" type="line" smooth="yes"/>
      <point x="528" y="490" type="line" smooth="yes"/>
      <point x="544" y="570" type="line" smooth="yes"/>
      <point x="544" y="585" type="line" smooth="yes"/>
      <point x="516" y="692" type="line" smooth="yes"/>
      <point x="433" y="764" type="line" smooth="yes"/>
      <point x="300" y="791" type="line" smooth="yes"/>
      <point x="162" y="762" type="line" smooth="yes"/>
      <point x="82" y="678" type="line" smooth="yes"/>
      <point x="56" y="544" type="line" smooth="yes"/>
      <point x="56" y="520" type="line" smooth="yes"/>
      <point x="127" y="520" type="line" smooth="yes"/>
      <point x="145" y="639" type="line" smooth="yes"/>
      <point x="201" y="706" type="line" smooth="yes"/>
      <point x="295" y="727" type="line" smooth="yes"/>
      <point x="305" y="727" type="line" smooth="yes"/>
      <point x="393" y="708" type="line" smooth="yes"/>
      <point x="452" y="656" type="line" smooth="yes"/>
      <point x="473" y="576" type="line" smooth="yes"/>
      <point x="473" y="569" type="line" smooth="yes"/>
      <point x="451" y="490" type="line" smooth="yes"/>
      <point x="393" y="444" type="line" smooth="yes"/>
      <point x="310" y="430" type="line" smooth="yes"/>
      <point x="200" y="430" type="line" smooth="yes"/>
      <point x="200" y="366" type="line" smooth="yes"/>
      <point x="314" y="366" type="line" smooth="yes"/>
      <point x="397" y="350" type="line" smooth="yes"/>
      <point x="456" y="300" type="line" smooth="yes"/>
      <point x="478" y="217" type="line" smooth="yes"/>
      <point x="478" y="203" type="line" smooth="yes"/>
      <point x="453" y="119" type="line" smooth="yes"/>
      <point x="389" y="69" type="line" smooth="yes"/>
      <point x="305" y="53" type="line" smooth="yes"/>
      <point x="295" y="53" type="line" smooth="yes"/>
      <point x="202" y="74" type="line" smooth="yes"/>
      <point x="143" y="138" type="line" smooth="yes"/>
    </contour>
  </outline>
</glyph>
<glyph name="four" format="1">
  <advance width="600"/>
  <unicode hex="0034"/>
  <outline>
    <contour>
      <point x="368" y="658" type="line" smooth="yes"/>
      <point x="367" y="556" type="line" smooth="yes"/>
      <point x="367" y="272" type="line" smooth="yes"/>
      <point x="207" y="272" type="line" smooth="yes"/>
      <point x="121" y="271" type="line" smooth="yes"/>
    </contour>
    <contour>
      <point x="438" y="0" type="line" smooth="yes"/>
      <point x="438" y="207" type="line" smooth="yes"/>
      <point x="567" y="207" type="line" smooth="yes"/>
      <point x="567" y="272" type="line" smooth="yes"/>
      <point x="438" y="272" type="line" smooth="yes"/>
      <point x="438" y="780" type="line" smooth="yes"/>
      <point x="369" y="780" type="line" smooth="yes"/>
      <point x="33" y="255" type="line" smooth="yes"/>
      <point x="33" y="207" type="line" smooth="yes"/>
      <point x="367" y="207" type="line" smooth="yes"/>
      <point x="367" y="0" type="line" smooth="yes"/>
    </contour>
  </outline>
</glyph>
<glyph name="five" format="1">
  <advance width="600"/>
  <unicode hex="0035"/>
  <outline>
    <contour>
      <point x="51" y="250" type="line" smooth="yes"/>
      <point x="51" y="239" type="line" smooth="yes"/>
      <point x="78" y="106" type="line" smooth="yes"/>
      <point x="160" y="20" type="line" smooth="yes"/>
      <point x="300" y="-11" type="line" smooth="yes"/>
      <point x="428" y="17" type="line" smooth="yes"/>
      <point x="516" y="100" type="line" smooth="yes"/>
      <point x="549" y="236" type="line" smooth="yes"/>
      <point x="549" y="248" type="line" smooth="yes"/>
      <point x="516" y="383" type="line" smooth="yes"/>
      <point x="429" y="466" type="line" smooth="yes"/>
      <point x="302" y="494" type="line" smooth="yes"/>
      <point x="237" y="487" type="line" smooth="yes"/>
      <point x="179" y="468" type="line" smooth="yes"/>
      <point x="132" y="438" type="line" smooth="yes"/>
      <point x="145" y="715" type="line" smooth="yes"/>
      <point x="539" y="715" type="line" smooth="yes"/>
      <point x="539" y="780" type="line" smooth="yes"/>
      <point x="76" y="780" type="line" smooth="yes"/>
      <point x="57" y="342" type="line" smooth="yes"/>
      <point x="117" y="324" type="line" smooth="yes"/>
      <point x="160" y="383" type="line" smooth="yes"/>
      <point x="223" y="418" type="line" smooth="yes"/>
      <point x="294" y="430" type="line" smooth="yes"/>
      <point x="303" y="430" type="line" smooth="yes"/>
      <point x="389" y="412" type="line" smooth="yes"/>
      <point x="453" y="353" type="line" smooth="yes"/>
      <point x="478" y="251" type="line" smooth="yes"/>
      <point x="478" y="233" type="line" smooth="yes"/>
      <point x="453" y="130" type="line" smooth="yes"/>
      <point x="389" y="72" type="line" smooth="yes"/>
      <point x="305" y="53" type="line" smooth="yes"/>
      <point x="295" y="53" type="line" smooth="yes"/>
      <point x="202" y="74" type="line" smooth="yes"/>
      <point x="143" y="138" type="line" smooth="yes"/>
      <point x="122" y="250" type="line" smooth="yes"/>
    </contour>
  </outline>
</glyph>
<glyph name="six" format="1">
  <advance width="600"/>
  <unicode hex="0036"/>
  <outline>
    <contour>
      <point x="306" y="426" type="line" smooth="yes"/>
      <point x="312" y="426" type="line" smooth="yes"/>
      <point x="401" y="405" type="line" smooth="yes"/>
      <point x="461" y="346" type="line" smooth="yes"/>
      <point x="482" y="249" type="line" smooth="yes"/>
      <point x="482" y="232" type="line" smooth="yes"/>
      <point x="460" y="135" type="line" smooth="yes"/>
      <point x="399" y="74" type="line" smooth="yes"/>
      <point x="307" y="53" type="line" smooth="yes"/>
      <point x="301" y="53" type="line" smooth="yes"/>
      <point x="213" y="78" type="line" smooth="yes"/>
      <point x="150" y="149" type="line" smooth="yes"/>
      <point x="126" y="260" type="line" smooth="yes"/>
      <point x="126" y="270" type="line" smooth="yes"/>
      <point x="126" y="285" type="line" smooth="yes"/>
      <point x="126" y="301" type="line" smooth="yes"/>
      <point x="127" y="316" type="line" smooth="yes"/>
      <point x="171" y="374" type="line" smooth="yes"/>
      <point x="232" y="412" type="line" smooth="yes"/>
    </contour>
    <contour>
      <point x="517" y="791" type="line" smooth="yes"/>
      <point x="389" y="775" type="line" smooth="yes"/>
      <point x="266" y="724" type="line" smooth="yes"/>
      <point x="165" y="631" type="line" smooth="yes"/>
      <point x="100" y="517" type="line" smooth="yes"/>
      <point x="65" y="397" type="line" smooth="yes"/>
      <point x="55" y="274" type="line" smooth="yes"/>
      <point x="55" y="263" type="line" smooth="yes"/>
      <point x="88" y="114" type="line" smooth="yes"/>
      <point x="175" y="21" type="line" smooth="yes"/>
      <point x="304" y="-11" type="line" smooth="yes"/>
      <point x="435" y="16" type="line" smooth="yes"/>
      <point x="522" y="98" type="line" smooth="yes"/>
      <point x="553" y="235" type="line" smooth="yes"/>
      <point x="553" y="245" type="line" smooth="yes"/>
      <point x="522" y="382" type="line" smooth="yes"/>
      <point x="439" y="463" type="line" smooth="yes"/>
      <point x="319" y="490" type="line" smooth="yes"/>
      <point x="250" y="481" type="line" smooth="yes"/>
      <point x="191" y="456" type="line" smooth="yes"/>
      <point x="143" y="418" type="line" smooth="yes"/>
      <point x="161" y="477" type="line" smooth="yes"/>
      <point x="187" y="535" type="line" smooth="yes"/>
      <point x="222" y="589" type="line" smooth="yes"/>
      <point x="309" y="668" type="line" smooth="yes"/>
      <point x="411" y="713" type="line" smooth="yes"/>
      <point x="517" y="727" type="line" smooth="yes"/>
    </contour>
  </outline>
</glyph>
<glyph name="eight" format="1">
  <advance width="600"/>
  <unicode hex="0038"/>
  <outline>
    <contour>
      <point x="305" y="727" type="line" smooth="yes"/>
      <point x="393" y="709" type="line" smooth="yes"/>
      <point x="452" y="658" type="line" smooth="yes"/>
      <point x="473" y="579" type="line" smooth="yes"/>
      <point x="473" y="571" type="line" smooth="yes"/>
      <point x="451" y="492" type="line" smooth="yes"/>
      <point x="393" y="445" type="line" smooth="yes"/>
      <point x="310" y="430" type="line" smooth="yes"/>
      <point x="290" y="430" type="line" smooth="yes"/>
      <point x="207" y="445" type="line" smooth="yes"/>
      <point x="149" y="492" type="line" smooth="yes"/>
      <point x="127" y="571" type="line" smooth="yes"/>
      <point x="127" y="579" type="line" smooth="yes"/>
      <point x="148" y="658" type="line" smooth="yes"/>
      <point x="207" y="709" type="line" smooth="yes"/>
      <point x="295" y="727" type="line" smooth="yes"/>
    </contour>
    <contour>
      <point x="286" y="366" type="line" smooth="yes"/>
      <point x="314" y="366" type="line" smooth="yes"/>
      <point x="397" y="349" type="line" smooth="yes"/>
      <point x="456" y="299" type="line" smooth="yes"/>
      <point x="478" y="215" type="line" smooth="yes"/>
      <point x="478" y="201" type="line" smooth="yes"/>
      <point x="453" y="117" type="line" smooth="yes"/>
      <point x="389" y="68" type="line" smooth="yes"/>
      <point x="305" y="53" type="line" smooth="yes"/>
      <point x="295" y="53" type="line" smooth="yes"/>
      <point x="211" y="68" type="line" smooth="yes"/>
      <point x="147" y="117" type="line" smooth="yes"/>
      <point x="122" y="201" type="line" smooth="yes"/>
      <point x="122" y="215" type="line" smooth="yes"/>
      <point x="144" y="299" type="line" smooth="yes"/>
      <point x="203" y="349" type="line" smooth="yes"/>
    </contour>
    <contour>
      <point x="300" y="-11" type="line" smooth="yes"/>
      <point x="430" y="16" type="line" smooth="yes"/>
      <point x="517" y="89" type="line" smooth="yes"/>
      <point x="549" y="198" type="line" smooth="yes"/>
      <point x="549" y="214" type="line" smooth="yes"/>
      <point x="533" y="298" type="line" smooth="yes"/>
      <point x="488" y="359" type="line" smooth="yes"/>
      <point x="422" y="398" type="line" smooth="yes"/>
      <point x="486" y="434" type="line" smooth="yes"/>
      <point x="528" y="492" type="line" smooth="yes"/>
      <point x="544" y="572" type="line" smooth="yes"/>
      <point x="544" y="587" type="line" smooth="yes"/>
      <point x="516" y="694" type="line" smooth="yes"/>
      <point x="433" y="765" type="line" smooth="yes"/>
      <point x="300" y="791" type="line" smooth="yes"/>
      <point x="167" y="765" type="line" smooth="yes"/>
      <point x="84" y="694" type="line" smooth="yes"/>
      <point x="56" y="587" type="line" smooth="yes"/>
      <point x="56" y="572" type="line" smooth="yes"/>
      <point x="72" y="492" type="line" smooth="yes"/>
      <point x="114" y="434" type="line" smooth="yes"/>
      <point x="177" y="398" type="line" smooth="yes"/>
      <point x="111" y="359" type="line" smooth="yes"/>
      <point x="67" y="298" type="line" smooth="yes"/>
      <point x="51" y="214" type="line" smooth="yes"/>
      <point x="51" y="198" type="line" smooth="yes"/>
      <point x="83" y="89" type="line" smooth="yes"/>
      <point x="170" y="16" type="line" smooth="yes"/>
    </contour>
  </outline>
</glyph>
<glyph name="nine" format="1">
  <advance width="600"/>
  <unicode hex="0039"/>
  <outline>
    <contour>
      <point x="294" y="354" type="line" smooth="yes"/>
      <point x="288" y="354" type="line" smooth="yes"/>
      <point x="199" y="375" type="line" smooth="yes"/>
      <point x="139" y="434" type="line" smooth="yes"/>
      <point x="118" y="531" type="line" smooth="yes"/>
      <point x="118" y="548" type="line" smooth="yes"/>
      <point x="140" y="645" type="line" smooth="yes"/>
      <point x="201" y="706" type="line" smooth="yes"/>
      <point x="293" y="727" type="line" smooth="yes"/>
      <point x="299" y="727" type="line" smooth="yes"/>
      <point x="387" y="702" type="line" smooth="yes"/>
      <point x="450" y="631" type="line" smooth="yes"/>
      <point x="474" y="520" type="line" smooth="yes"/>
      <point x="474" y="510" type="line" smooth="yes"/>
      <point x="474" y="494" type="line" smooth="yes"/>
      <point x="473" y="479" type="line" smooth="yes"/>
      <point x="472" y="463" type="line" smooth="yes"/>
      <point x="429" y="406" type="line" smooth="yes"/>
      <point x="367" y="368" type="line" smooth="yes"/>
    </contour>
    <contour>
      <point x="83" y="-11" type="line" smooth="yes"/>
      <point x="211" y="5" type="line" smooth="yes"/>
      <point x="334" y="56" type="line" smooth="yes"/>
      <point x="435" y="149" type="line" smooth="yes"/>
      <point x="500" y="263" type="line" smooth="yes"/>
      <point x="535" y="383" type="line" smooth="yes"/>
      <point x="545" y="506" type="line" smooth="yes"/>
      <point x="545" y="517" type="line" smooth="yes"/>
      <point x="512" y="666" type="line" smooth="yes"/>
      <point x="425" y="759" type="line" smooth="yes"/>
      <point x="296" y="791" type="line" smooth="yes"/>
      <point x="165" y="764" type="line" smooth="yes"/>
      <point x="78" y="682" type="line" smooth="yes"/>
      <point x="47" y="545" type="line" smooth="yes"/>
      <point x="47" y="535" type="line" smooth="yes"/>
      <point x="78" y="398" type="line" smooth="yes"/>
      <point x="161" y="317" type="line" smooth="yes"/>
      <point x="281" y="290" type="line" smooth="yes"/>
      <point x="350" y="299" type="line" smooth="yes"/>
      <point x="409" y="323" type="line" smooth="yes"/>
      <point x="457" y="361" type="line" smooth="yes"/>
      <point x="439" y="302" type="line" smooth="yes"/>
      <point x="413" y="245" type="line" smooth="yes"/>
      <point x="378" y="191" type="line" smooth="yes"/>
      <point x="291" y="112" type="line" smooth="yes"/>
      <point x="189" y="67" type="line" smooth="yes"/>
      <point x="83" y="53" type="line" smooth="yes"/>
    </contour>
  </outline>
</glyph>
<glyph name="less" format="1">
  <advance width="600"/>
  <unicode hex="003C"/>
  <outline>
    <contour>
      <point x="48" y="425" type="line" smooth="yes"/>
      <point x="48" y="355" type="line" smooth="yes"/>
      <point x="552" y="120" type="line" smooth="yes"/>
      <point x="552" y="192" type="line" smooth="yes"/>
      <point x="118" y="390" type="line" smooth="yes"/>
      <point x="552" y="588" type="line" smooth="yes"/>
      <point x="552" y="660" type="line" smooth="yes"/>
    </contour>
  </outline>
</glyph>
<glyph name="question" format="1">
  <advance width="455"/>
  <unicode hex="003F"/>
  <outline>
    <contour>
      <point x="271" y="90" type="line" smooth="yes"/>
      <point x="181" y="90" type="line" smooth="yes"/>
      <point x="181" y="0" type="line" smooth="yes"/>
      <point x="271" y="0" type="line" smooth="yes"/>
    </contour>
    <contour>
      <point x="231" y="726" type="line" smooth="yes"/>
      <point x="306" y="708" type="line" smooth="yes"/>
      <point x="343" y="656" type="line" smooth="yes"/>
      <point x="354" y="576" type="line" smooth="yes"/>
      <point x="313" y="458" type="line" smooth="yes"/>
      <point x="239" y="348" type="line" smooth="yes"/>
      <point x="203" y="189" type="line" smooth="yes"/>
      <point x="250" y="189" type="line" smooth="yes"/>
      <point x="299" y="336" type="line" smooth="yes"/>
      <point x="383" y="437" type="line" smooth="yes"/>
      <point x="427" y="583" type="line" smooth="yes"/>
      <point x="407" y="692" type="line" smooth="yes"/>
      <point x="344" y="765" type="line" smooth="yes"/>
      <point x="231" y="791" type="line" smooth="yes"/>
      <point x="105" y="754" type="line" smooth="yes"/>
      <point x="43" y="657" type="line" smooth="yes"/>
      <point x="26" y="516" type="line" smooth="yes"/>
      <point x="26" y="504" type="line" smooth="yes"/>
      <point x="97" y="504" type="line" smooth="yes"/>
      <point x="108" y="622" type="line" smooth="yes"/>
      <point x="150" y="699" type="line" smooth="yes"/>
    </contour>
  </outline>
</glyph>
<glyph name="at" format="1">
  <advance width="961"/>
  <unicode hex="0040"/>
  <outline>
    <contour>
      <point x="465" y="109" type="line" smooth="yes"/>
      <point x="384" y="132" type="line" smooth="yes"/>
      <point x="338" y="194" type="line" smooth="yes"/>
      <point x="323" y="283" type="line" smooth="yes"/>
      <point x="323" y="307" type="line" smooth="yes"/>
      <point x="338" y="396" type="line" smooth="yes"/>
      <point x="384" y="458" type="line" smooth="yes"/>
      <point x="465" y="481" type="line" smooth="yes"/>
      <point x="524" y="468" type="line" smooth="yes"/>
      <point x="569" y="437" type="line" smooth="yes"/>
      <point x="598" y="401" type="line" smooth="yes"/>
      <point x="598" y="189" type="line" smooth="yes"/>
      <point x="569" y="153" type="line" smooth="yes"/>
      <point x="524" y="122" type="line" smooth="yes"/>
    </contour>
    <contour>
      <point x="501" y="-156" type="line" smooth="yes"/>
      <point x="287" y="-107" type="line" smooth="yes"/>
      <point x="143" y="36" type="line" smooth="yes"/>
      <point x="90" y="270" type="line" smooth="yes"/>
      <point x="90" y="310" type="line" smooth="yes"/>
      <point x="142" y="540" type="line" smooth="yes"/>
      <point x="285" y="685" type="line" smooth="yes"/>
      <point x="496" y="736" type="line" smooth="yes"/>
      <point x="502" y="736" type="line" smooth="yes"/>
      <point x="682" y="701" type="line" smooth="yes"/>
      <point x="816" y="589" type="line" smooth="yes"/>
      <point x="869" y="388" type="line" smooth="yes"/>
      <point x="869" y="358" type="line" smooth="yes"/>
      <point x="843" y="204" type="line" smooth="yes"/>
      <point x="772" y="133" type="line" smooth="yes"/>
      <point x="663" y="114" type="line" smooth="yes"/>
      <point x="663" y="383" type="line" smooth="yes"/>
      <point x="669" y="530" type="line" smooth="yes"/>
      <point x="615" y="530" type="line" smooth="yes"/>
      <point x="605" y="457" type="line" smooth="yes"/>
      <point x="570" y="499" type="line" smooth="yes"/>
      <point x="519" y="529" type="line" smooth="yes"/>
      <point x="450" y="541" type="line" smooth="yes"/>
      <point x="337" y="507" type="line" smooth="yes"/>
      <point x="274" y="422" type="line" smooth="yes"/>
      <point x="254" y="307" type="line" smooth="yes"/>
      <point x="254" y="283" type="line" smooth="yes"/>
      <point x="274" y="168" type="line" smooth="yes"/>
      <point x="337" y="83" type="line" smooth="yes"/>
      <point x="450" y="49" type="line" smooth="yes"/>
      <point x="519" y="61" type="line" smooth="yes"/>
      <point x="570" y="91" type="line" smooth="yes"/>
      <point x="605" y="133" type="line" smooth="yes"/>
      <point x="615" y="60" type="line" smooth="yes"/>
      <point x="661" y="60" type="line" smooth="yes"/>
      <point x="799" y="84" type="line" smooth="yes"/>
      <point x="893" y="174" type="line" smooth="yes"/>
      <point x="928" y="358" type="line" smooth="yes"/>
      <point x="928" y="388" type="line" smooth="yes"/>
      <point x="869" y="614" type="line" smooth="yes"/>
      <point x="714" y="747" type="line" smooth="yes"/>
      <point x="499" y="791" type="line" smooth="yes"/>
      <point x="256" y="734" type="line" smooth="yes"/>
      <point x="92" y="569" type="line" smooth="yes"/>
      <point x="33" y="310" type="line" smooth="yes"/>
      <point x="33" y="270" type="line" smooth="yes"/>
      <point x="94" y="11" type="line" smooth="yes"/>
      <point x="259" y="-154" type="line" smooth="yes"/>
      <point x="504" y="-211" type="line" smooth="yes"/>
      <point x="624" y="-201" type="line" smooth="yes"/>
      <point x="748" y="-166" type="line" smooth="yes"/>
      <point x="868" y="-95" type="line" smooth="yes"/>
      <point x="836" y="-52" type="line" smooth="yes"/>
      <point x="733" y="-112" type="line" smooth="yes"/>
      <point x="624" y="-145" type="line" smooth="yes"/>
      <point x="507" y="-156" type="line" smooth="yes"/>
    </contour>
  </outline>
</glyph>
<glyph name="B" format="1">
  <advance width="586"/>
  <unicode hex="0042"/>
  <outline>
    <contour>
      <point x="275" y="715" type="line" smooth="yes"/>
      <point x="355" y="702" type="line" smooth="yes"/>
      <point x="413" y="660" type="line" smooth="yes"/>
      <point x="435" y="582" type="line" smooth="yes"/>
      <point x="435" y="566" type="line" smooth="yes"/>
      <point x="413" y="488" type="line" smooth="yes"/>
      <point x="355" y="446" type="line" smooth="yes"/>
      <point x="275" y="433" type="line" smooth="yes"/>
      <point x="146" y="433" type="line" smooth="yes"/>
      <point x="146" y="715" type="line" smooth="yes"/>
    </contour>
    <contour>
      <point x="293" y="368" type="line" smooth="yes"/>
      <point x="374" y="353" type="line" smooth="yes"/>
      <point x="433" y="307" type="line" smooth="yes"/>
      <point x="455" y="224" type="line" smooth="yes"/>
      <point x="455" y="209" type="line" smooth="yes"/>
      <point x="433" y="126" type="line" smooth="yes"/>
      <point x="374" y="80" type="line" smooth="yes"/>
      <point x="293" y="65" type="line" smooth="yes"/>
      <point x="146" y="65" type="line" smooth="yes"/>
      <point x="146" y="368" type="line" smooth="yes"/>
    </contour>
    <contour>
      <point x="74" y="780" type="line" smooth="yes"/>
      <point x="74" y="0" type="line" smooth="yes"/>
      <point x="288" y="0" type="line" smooth="yes"/>
      <point x="409" y="21" type="line" smooth="yes"/>
      <point x="496" y="87" type="line" smooth="yes"/>
      <point x="529" y="206" type="line" smooth="yes"/>
      <point x="529" y="226" type="line" smooth="yes"/>
      <point x="511" y="311" type="line" smooth="yes"/>
      <point x="463" y="369" type="line" smooth="yes"/>
      <point x="393" y="403" type="line" smooth="yes"/>
      <point x="453" y="436" type="line" smooth="yes"/>
      <point x="494" y="488" type="line" smooth="yes"/>
      <point x="509" y="564" type="line" smooth="yes"/>
      <point x="509" y="584" type="line" smooth="yes"/>
      <point x="476" y="698" type="line" smooth="yes"/>
      <point x="391" y="761" type="line" smooth="yes"/>
      <point x="272" y="780" type="line" smooth="yes"/>
    </contour>
  </outline>
</glyph>
<glyph name="I" format="1">
  <advance width="230"/>
  <unicode hex="0049"/>
  <outline>
    <contour>
      <point x="151" y="780" type="line" smooth="yes"/>
      <point x="79" y="780" type="line" smooth="yes"/>
      <point x="79" y="0" type="line" smooth="yes"/>
      <point x="151" y="0" type="line" smooth="yes"/>
    </contour>
  </outline>
</glyph>
<glyph name="Q" format="1">
  <advance width="649"/>
  <unicode hex="0051"/>
  <outline>
    <contour>
      <point x="353" y="226" type="line" smooth="yes"/>
      <point x="291" y="226" type="line" smooth="yes"/>
      <point x="355" y="55" type="line" smooth="yes"/>
      <point x="346" y="54" type="line" smooth="yes"/>
      <point x="337" y="54" type="line" smooth="yes"/>
      <point x="328" y="54" type="line" smooth="yes"/>
      <point x="321" y="54" type="line" smooth="yes"/>
      <point x="214" y="87" type="line" smooth="yes"/>
      <point x="151" y="189" type="line" smooth="yes"/>
      <point x="131" y="370" type="line" smooth="yes"/>
      <point x="131" y="410" type="line" smooth="yes"/>
      <point x="151" y="591" type="line" smooth="yes"/>
      <point x="214" y="693" type="line" smooth="yes"/>
      <point x="321" y="726" type="line" smooth="yes"/>
      <point x="328" y="726" type="line" smooth="yes"/>
      <point x="435" y="693" type="line" smooth="yes"/>
      <point x="498" y="591" type="line" smooth="yes"/>
      <point x="518" y="410" type="line" smooth="yes"/>
      <point x="518" y="370" type="line" smooth="yes"/>
      <point x="507" y="227" type="line" smooth="yes"/>
      <point x="471" y="128" type="line" smooth="yes"/>
      <point x="412" y="72" type="line" smooth="yes"/>
    </contour>
    <contour>
      <point x="324" y="-11" type="line" smooth="yes"/>
      <point x="343" y="-10" type="line" smooth="yes"/>
      <point x="361" y="-9" type="line" smooth="yes"/>
      <point x="378" y="-7" type="line" smooth="yes"/>
      <point x="413" y="-100" type="line" smooth="yes"/>
      <point x="479" y="-100" type="line" smooth="yes"/>
      <point x="437" y="9" type="line" smooth="yes"/>
      <point x="523" y="75" type="line" smooth="yes"/>
      <point x="575" y="194" type="line" smooth="yes"/>
      <point x="592" y="370" type="line" smooth="yes"/>
      <point x="592" y="410" type="line" smooth="yes"/>
      <point x="562" y="629" type="line" smooth="yes"/>
      <point x="473" y="752" type="line" smooth="yes"/>
      <point x="324" y="791" type="line" smooth="yes"/>
      <point x="176" y="752" type="line" smooth="yes"/>
      <point x="87" y="629" type="line" smooth="yes"/>
      <point x="57" y="410" type="line" smooth="yes"/>
      <point x="57" y="370" type="line" smooth="yes"/>
      <point x="87" y="151" type="line" smooth="yes"/>
      <point x="176" y="28" type="line" smooth="yes"/>
    </contour>
  </outline>
</glyph>
<glyph name="W" format="1">
  <advance width="895"/>
  <unicode hex="0057"/>
  <outline>
    <contour>
      <point x="610" y="-8" type="line" smooth="yes"/>
      <point x="709" y="-8" type="line" smooth="yes"/>
      <point x="854" y="780" type="line" smooth="yes"/>
      <point x="778" y="780" type="line" smooth="yes"/>
      <point x="656" y="81" type="line" smooth="yes"/>
      <point x="496" y="780" type="line" smooth="yes"/>
      <point x="399" y="780" type="line" smooth="yes"/>
      <point x="239" y="81" type="line" smooth="yes"/>
      <point x="117" y="780" type="line" smooth="yes"/>
      <point x="41" y="780" type="line" smooth="yes"/>
      <point x="186" y="-8" type="line" smooth="yes"/>
      <point x="285" y="-8" type="line" smooth="yes"/>
      <point x="447" y="702" type="line" smooth="yes"/>
    </contour>
  </outline>
</glyph>
<glyph name="X" format="1">
  <advance width="613"/>
  <unicode hex="0058"/>
  <outline>
    <contour>
      <point x="31" y="0" type="line" smooth="yes"/>
      <point x="113" y="0" type="line" smooth="yes"/>
      <point x="306" y="343" type="line" smooth="yes"/>
      <point x="500" y="0" type="line" smooth="yes"/>
      <point x="582" y="0" type="line" smooth="yes"/>
      <point x="355" y="397" type="line" smooth="yes"/>
      <point x="582" y="780" type="line" smooth="yes"/>
      <point x="497" y="780" type="line" smooth="yes"/>
      <point x="306" y="452" type="line" smooth="yes"/>
      <point x="115" y="780" type="line" smooth="yes"/>
      <point x="31" y="780" type="line" smooth="yes"/>
      <point x="257" y="397" type="line" smooth="yes"/>
    </contour>
  </outline>
</glyph>
<glyph name="c" format="1">
  <advance width="522"/>
  <unicode hex="0063"/>
  <outline>
    <contour>
      <point x="120" y="253" type="line" smooth="yes"/>
      <point x="120" y="277" type="line" smooth="yes"/>
      <point x="136" y="383" type="line" smooth="yes"/>
      <point x="185" y="453" type="line" smooth="yes"/>
      <point x="271" y="478" type="line" smooth="yes"/>
      <point x="349" y="459" type="line" smooth="yes"/>
      <point x="392" y="409" type="line" smooth="yes"/>
      <point x="406" y="336" type="line" smooth="yes"/>
      <point x="473" y="336" type="line" smooth="yes"/>
      <point x="473" y="356" type="line" smooth="yes"/>
      <point x="453" y="442" type="line" smooth="yes"/>
      <point x="388" y="512" type="line" smooth="yes"/>
      <point x="270" y="541" type="line" smooth="yes"/>
      <point x="144" y="505" type="line" smooth="yes"/>
      <point x="72" y="411" type="line" smooth="yes"/>
      <point x="49" y="277" type="line" smooth="yes"/>
      <point x="49" y="253" type="line" smooth="yes"/>
      <point x="72" y="119" type="line" smooth="yes"/>
      <point x="144" y="25" type="line" smooth="yes"/>
      <point x="270" y="-11" type="line" smooth="yes"/>
      <point x="388" y="17" type="line" smooth="yes"/>
      <point x="453" y="84" type="line" smooth="yes"/>
      <point x="473" y="168" type="line" smooth="yes"/>
      <point x="473" y="184" type="line" smooth="yes"/>
      <point x="406" y="184" type="line" smooth="yes"/>
      <point x="393" y="119" type="line" smooth="yes"/>
      <point x="350" y="71" type="line" smooth="yes"/>
      <point x="271" y="52" type="line" smooth="yes"/>
      <point x="185" y="77" type="line" smooth="yes"/>
      <point x="136" y="147" type="line" smooth="yes"/>
    </contour>
  </outline>
</glyph>
<glyph name="e" format="1">
  <advance width="544"/>
  <unicode hex="0065"/>
  <outline>
    <contour>
      <point x="272" y="482" type="line" smooth="yes"/>
      <point x="355" y="459" type="line" smooth="yes"/>
      <point x="405" y="394" type="line" smooth="yes"/>
      <point x="424" y="294" type="line" smooth="yes"/>
      <point x="120" y="294" type="line" smooth="yes"/>
      <point x="139" y="394" type="line" smooth="yes"/>
      <point x="189" y="459" type="line" smooth="yes"/>
    </contour>
    <contour>
      <point x="495" y="236" type="line" smooth="yes"/>
      <point x="495" y="276" type="line" smooth="yes"/>
      <point x="472" y="410" type="line" smooth="yes"/>
      <point x="399" y="505" type="line" smooth="yes"/>
      <point x="273" y="541" type="line" smooth="yes"/>
      <point x="146" y="505" type="line" smooth="yes"/>
      <point x="73" y="410" type="line" smooth="yes"/>
      <point x="49" y="276" type="line" smooth="yes"/>
      <point x="49" y="254" type="line" smooth="yes"/>
      <point x="73" y="120" type="line" smooth="yes"/>
      <point x="148" y="25" type="line" smooth="yes"/>
      <point x="278" y="-11" type="line" smooth="yes"/>
      <point x="400" y="17" type="line" smooth="yes"/>
      <point x="472" y="84" type="line" smooth="yes"/>
      <point x="495" y="166" type="line" smooth="yes"/>
      <point x="495" y="170" type="line" smooth="yes"/>
      <point x="428" y="170" type="line" smooth="yes"/>
      <point x="413" y="113" type="line" smooth="yes"/>
      <point x="364" y="67" type="line" smooth="yes"/>
      <point x="278" y="48" type="line" smooth="yes"/>
      <point x="191" y="71" type="line" smooth="yes"/>
      <point x="139" y="136" type="line" smooth="yes"/>
      <point x="120" y="236" type="line" smooth="yes"/>
    </contour>
  </outline>
</glyph>
<glyph name="h" format="1">
  <advance width="528"/>
  <unicode hex="0068"/>
  <outline>
    <contour>
      <point x="136" y="800" type="line" smooth="yes"/>
      <point x="66" y="800" type="line" smooth="yes"/>
      <point x="66" y="0" type="line" smooth="yes"/>
      <point x="136" y="0" type="line" smooth="yes"/>
      <point x="136" y="396" type="line" smooth="yes"/>
      <point x="165" y="433" type="line" smooth="yes"/>
      <point x="212" y="465" type="line" smooth="yes"/>
      <point x="282" y="478" type="line" smooth="yes"/>
      <point x="343" y="465" type="line" smooth="yes"/>
      <point x="383" y="427" type="line" smooth="yes"/>
      <point x="397" y="361" type="line" smooth="yes"/>
      <point x="397" y="0" type="line" smooth="yes"/>
      <point x="467" y="0" type="line" smooth="yes"/>
      <point x="467" y="371" type="line" smooth="yes"/>
      <point x="449" y="459" type="line" smooth="yes"/>
      <point x="394" y="519" type="line" smooth="yes"/>
      <point x="306" y="541" type="line" smooth="yes"/>
      <point x="232" y="531" type="line" smooth="yes"/>
      <point x="176" y="504" type="line" smooth="yes"/>
      <point x="136" y="466" type="line" smooth="yes"/>
    </contour>
  </outline>
</glyph>
<glyph name="l" format="1">
  <advance width="216"/>
  <unicode hex="006C"/>
  <outline>
    <contour>
      <point x="73" y="0" type="line" smooth="yes"/>
      <point x="143" y="0" type="line" smooth="yes"/>
      <point x="143" y="800" type="line" smooth="yes"/>
      <point x="73" y="800" type="line" smooth="yes"/>
    </contour>
  </outline>
</glyph>
<glyph name="m" format="1">
  <advance width="805"/>
  <unicode hex="006D"/>
  <outline>
    <contour>
      <point x="744" y="0" type="line" smooth="yes"/>
      <point x="744" y="384" type="line" smooth="yes"/>
      <point x="727" y="469" type="line" smooth="yes"/>
      <point x="677" y="523" type="line" smooth="yes"/>
      <point x="596" y="541" type="line" smooth="yes"/>
      <point x="521" y="529" type="line" smooth="yes"/>
      <point x="466" y="497" type="line" smooth="yes"/>
      <point x="429" y="453" type="line" smooth="yes"/>
      <point x="400" y="501" type="line" smooth="yes"/>
      <point x="354" y="531" type="line" smooth="yes"/>
      <point x="292" y="541" type="line" smooth="yes"/>
      <point x="219" y="529" type="line" smooth="yes"/>
      <point x="165" y="500" type="line" smooth="yes"/>
      <point x="128" y="458" type="line" smooth="yes"/>
      <point x="118" y="530" type="line" smooth="yes"/>
      <point x="60" y="530" type="line" smooth="yes"/>
      <point x="66" y="380" type="line" smooth="yes"/>
      <point x="66" y="0" type="line" smooth="yes"/>
      <point x="136" y="0" type="line" smooth="yes"/>
      <point x="136" y="398" type="line" smooth="yes"/>
      <point x="164" y="434" type="line" smooth="yes"/>
      <point x="206" y="465" type="line" smooth="yes"/>
      <point x="268" y="478" type="line" smooth="yes"/>
      <point x="321" y="469" type="line" smooth="yes"/>
      <point x="357" y="437" type="line" smooth="yes"/>
      <point x="370" y="374" type="line" smooth="yes"/>
      <point x="370" y="0" type="line" smooth="yes"/>
      <point x="440" y="0" type="line" smooth="yes"/>
      <point x="440" y="398" type="line" smooth="yes"/>
      <point x="468" y="434" type="line" smooth="yes"/>
      <point x="510" y="465" type="line" smooth="yes"/>
      <point x="572" y="478" type="line" smooth="yes"/>
      <point x="625" y="469" type="line" smooth="yes"/>
      <point x="661" y="437" type="line" smooth="yes"/>
      <point x="674" y="374" type="line" smooth="yes"/>
      <point x="674" y="0" type="line" smooth="yes"/>
    </contour>
  </outline>
</glyph>
<glyph name="q" format="1">
  <advance width="539"/>
  <unicode hex="0071"/>
  <outline>
    <contour>
      <point x="403" y="396" type="line" smooth="yes"/>
      <point x="403" y="134" type="line" smooth="yes"/>
      <point x="374" y="97" type="line" smooth="yes"/>
      <point x="330" y="65" type="line" smooth="yes"/>
      <point x="268" y="52" type="line" smooth="yes"/>
      <point x="185" y="77" type="line" smooth="yes"/>
      <point x="137" y="146" type="line" smooth="yes"/>
      <point x="121" y="253" type="line" smooth="yes"/>
      <point x="121" y="277" type="line" smooth="yes"/>
      <point x="137" y="384" type="line" smooth="yes"/>
      <point x="185" y="453" type="line" smooth="yes"/>
      <point x="268" y="478" type="line" smooth="yes"/>
      <point x="330" y="465" type="line" smooth="yes"/>
      <point x="374" y="433" type="line" smooth="yes"/>
    </contour>
    <contour>
      <point x="403" y="-200" type="line" smooth="yes"/>
      <point x="472" y="-200" type="line" smooth="yes"/>
      <point x="472" y="380" type="line" smooth="yes"/>
      <point x="479" y="530" type="line" smooth="yes"/>
      <point x="420" y="530" type="line" smooth="yes"/>
      <point x="410" y="457" type="line" smooth="yes"/>
      <point x="375" y="499" type="line" smooth="yes"/>
      <point x="323" y="529" type="line" smooth="yes"/>
      <point x="252" y="541" type="line" smooth="yes"/>
      <point x="135" y="505" type="line" smooth="yes"/>
      <point x="69" y="411" type="line" smooth="yes"/>
      <point x="49" y="277" type="line" smooth="yes"/>
      <point x="49" y="253" type="line" smooth="yes"/>
      <point x="69" y="119" type="line" smooth="yes"/>
      <point x="135" y="25" type="line" smooth="yes"/>
      <point x="252" y="-11" type="line" smooth="yes"/>
      <point x="318" y="-1" type="line" smooth="yes"/>
      <point x="367" y="25" type="line" smooth="yes"/>
      <point x="403" y="62" type="line" smooth="yes"/>
    </contour>
  </outline>
</glyph>
<glyph name="v" format="1">
  <advance width="512"/>
  <unicode hex="0076"/>
  <outline>
    <contour>
      <point x="210" y="0" type="line" smooth="yes"/>
      <point x="302" y="0" type="line" smooth="yes"/>
      <point x="488" y="530" type="line" smooth="yes"/>
      <point x="413" y="530" type="line" smooth="yes"/>
      <point x="256" y="66" type="line" smooth="yes"/>
      <point x="100" y="530" type="line" smooth="yes"/>
      <point x="25" y="530" type="line" smooth="yes"/>
    </contour>
  </outline>
</glyph>
<glyph name="w" format="1">
  <advance width="717"/>
  <unicode hex="0077"/>
  <outline>
    <contour>
      <point x="358" y="452" type="line" smooth="yes"/>
      <point x="479" y="0" type="line" smooth="yes"/>
      <point x="572" y="0" type="line" smooth="yes"/>
      <point x="686" y="530" type="line" smooth="yes"/>
      <point x="616" y="530" type="line" smooth="yes"/>
      <point x="524" y="73" type="line" smooth="yes"/>
      <point x="401" y="530" type="line" smooth="yes"/>
      <point x="316" y="530" type="line" smooth="yes"/>
      <point x="193" y="73" type="line" smooth="yes"/>
      <point x="101" y="530" type="line" smooth="yes"/>
      <point x="31" y="530" type="line" smooth="yes"/>
      <point x="145" y="0" type="line" smooth="yes"/>
      <point x="237" y="0" type="line" smooth="yes"/>
    </contour>
  </outline>
</glyph>
<glyph name="z" format="1">
  <advance width="463"/>
  <unicode hex="007A"/>
  <outline>
    <contour>
      <point x="36" y="48" type="line" smooth="yes"/>
      <point x="36" y="0" type="line" smooth="yes"/>
      <point x="427" y="0" type="line" smooth="yes"/>
      <point x="427" y="63" type="line" smooth="yes"/>
      <point x="243" y="63" type="line" smooth="yes"/>
      <point x="125" y="62" type="line" smooth="yes"/>
      <point x="417" y="482" type="line" smooth="yes"/>
      <point x="417" y="530" type="line" smooth="yes"/>
      <point x="46" y="530" type="line" smooth="yes"/>
      <point x="46" y="467" type="line" smooth="yes"/>
      <point x="209" y="467" type="line" smooth="yes"/>
      <point x="327" y="468" type="line" smooth="yes"/>
    </contour>
  </outline>
</glyph>
<glyph name="braceleft" format="1">
  <advance width="317"/>
  <unicode hex="007B"/>
  <outline>
    <contour>
      <point x="275" y="840" type="line" smooth="yes"/>
      <point x="257" y="840" type="line" smooth="yes"/>
      <point x="187" y="828" type="line" smooth="yes"/>
      <point x="133" y="785" type="line" smooth="yes"/>
      <point x="111" y="701" type="line" smooth="yes"/>
      <point x="111" y="481" type="line" smooth="yes"/>
      <point x="101" y="426" type="line" smooth="yes"/>
      <point x="73" y="400" type="line" smooth="yes"/>
      <point x="25" y="393" type="line" smooth="yes"/>
      <point x="25" y="327" type="line" smooth="yes"/>
      <point x="73" y="320" type="line" smooth="yes"/>
      <point x="101" y="294" type="line" smooth="yes"/>
      <point x="111" y="239" type="line" smooth="yes"/>
      <point x="111" y="19" type="line" smooth="yes"/>
      <point x="133" y="-65" type="line" smooth="yes"/>
      <point x="187" y="-108" type="line" smooth="yes"/>
      <point x="257" y="-120" type="line" smooth="yes"/>
      <point x="275" y="-120" type="line" smooth="yes"/>
      <point x="275" y="-54" type="line" smooth="yes"/>
      <point x="224" y="-46" type="line" smooth="yes"/>
      <point x="192" y="-14" type="line" smooth="yes"/>
      <point x="181" y="49" type="line" smooth="yes"/>
      <point x="181" y="257" type="line" smooth="yes"/>
      <point x="174" y="304" type="line" smooth="yes"/>
      <point x="156" y="338" type="line" smooth="yes"/>
      <point x="127" y="360" type="line" smooth="yes"/>
      <point x="156" y="382" type="line" smooth="yes"/>
      <point x="174" y="415" type="line" smooth="yes"/>
      <point x="181" y="463" type="line" smooth="yes"/>
      <point x="181" y="671" type="line" smooth="yes"/>
      <point x="192" y="734" type="line" smooth="yes"/>
      <point x="224" y="766" type="line" smooth="yes"/>
      <point x="275" y="774" type="line" smooth="yes"/>
    </contour>
  </outline>
</glyph>
<glyph name="bar" format="1">
  <advance width="201"/>
  <unicode hex="007C"/>
  <outline>
    <contour>
      <point x="66" y="-120" type="line" smooth="yes"/>
      <point x="136" y="-120" type="line" smooth="yes"/>
      <point x="136" y="840" type="line" smooth="yes"/>
      <point x="66" y="840" type="line" smooth="yes"/>
    </contour>
  </outline>
</glyph>
<glyph name="braceright" format="1">
  <advance width="317"/>
  <unicode hex="007D"/>
  <outline>
    <contour>
      <point x="42" y="-120" type="line" smooth="yes"/>
      <point x="60" y="-120" type="line" smooth="yes"/>
      <point x="130" y="-108" type="line" smooth="yes"/>
      <point x="184" y="-65" type="line" smooth="yes"/>
      <point x="206" y="19" type="line" smooth="yes"/>
      <point x="206" y="239" type="line" smooth="yes"/>
      <point x="216" y="294" type="line" smooth="yes"/>
      <point x="244" y="320" type="line" smooth="yes"/>
      <point x="292" y="327" type="line" smooth="yes"/>
      <point x="292" y="393" type="line" smooth="yes"/>
      <point x="244" y="400" type="line" smooth="yes"/>
      <point x="216" y="426" type="line" smooth="yes"/>
      <point x="206" y="481" type="line" smooth="yes"/>
      <point x="206" y="701" type="line" smooth="yes"/>
      <point x="184" y="785" type="line" smooth="yes"/>
      <point x="130" y="828" type="line" smooth="yes"/>
      <point x="60" y="840" type="line" smooth="yes"/>
      <point x="42" y="840" type="line" smooth="yes"/>
      <point x="42" y="774" type="line" smooth="yes"/>
      <point x="93" y="766" type="line" smooth="yes"/>
      <point x="125" y="734" type="line" smooth="yes"/>
      <point x="136" y="671" type="line" smooth="yes"/>
      <point x="136" y="463" type="line" smooth="yes"/>
      <point x="143" y="415" type="line" smooth="yes"/>
      <point x="161" y="382" type="line" smooth="yes"/>
      <point x="190" y="360" type="line" smooth="yes"/>
      <point x="161" y="338" type="line" smooth="yes"/>
      <point x="143" y="304" type="line" smooth="yes"/>
      <point x="136" y="257" type="line" smooth="yes"/>
      <point x="136" y="49" type="line" smooth="yes"/>
      <point x="125" y="-14" type="line" smooth="yes"/>
      <point x="93" y="-46" type="line" smooth="yes"/>
      <point x="42" y="-54" type="line" smooth="yes"/>
    </contour>
  </outline>
</glyph>
<glyph name="asciitilde" format="1">
  <advance width="600"/>
  <unicode hex="007E"/>
  <outline>
    <contour>
      <point x="177" y="451" type="line" smooth="yes"/>
      <point x="114" y="439" type="line" smooth="yes"/>
      <point x="68" y="409" type="line" smooth="yes"/>
      <point x="37" y="375" type="line" smooth="yes"/>
      <point x="77" y="335" type="line" smooth="yes"/>
      <point x="101" y="360" type="line" smooth="yes"/>
      <point x="134" y="382" type="line" smooth="yes"/>
      <point x="175" y="391" type="line" smooth="yes"/>
      <point x="255" y="373" type="line" smooth="yes"/>
      <point x="331" y="338" type="line" smooth="yes"/>
      <point x="423" y="320" type="line" smooth="yes"/>
      <point x="486" y="333" type="line" smooth="yes"/>
      <point x="532" y="362" type="line" smooth="yes"/>
      <point x="563" y="396" type="line" smooth="yes"/>
      <point x="523" y="436" type="line" smooth="yes"/>
      <point x="499" y="412" type="line" smooth="yes"/>
      <point x="466" y="390" type="line" smooth="yes"/>
      <point x="425" y="380" type="line" smooth="yes"/>
      <point x="345" y="398" type="line" smooth="yes"/>
      <point x="269" y="433" type="line" smooth="yes"/>
    </contour>
  </outline>
</glyph>
<glyph name="cent" format="1">
  <advance width="600"/>
  <unicode hex="00A2"/>
  <outline>
    <contour>
      <point x="135" y="376" type="line" smooth="yes"/>
      <point x="135" y="404" type="line" smooth="yes"/>
      <point x="155" y="547" type="line" smooth="yes"/>
      <point x="215" y="632" type="line" smooth="yes"/>
      <point x="313" y="661" type="line" smooth="yes"/>
      <point x="316" y="661" type="line" smooth="yes"/>
      <point x="320" y="661" type="line" smooth="yes"/>
      <point x="325" y="660" type="line" smooth="yes"/>
      <point x="329" y="660" type="line" smooth="yes"/>
      <point x="208" y="153" type="line" smooth="yes"/>
      <point x="167" y="204" type="line" smooth="yes"/>
      <point x="143" y="279" type="line" smooth="yes"/>
    </contour>
    <contour>
      <point x="434" y="840" type="line" smooth="yes"/>
      <point x="372" y="840" type="line" smooth="yes"/>
      <point x="344" y="725" type="line" smooth="yes"/>
      <point x="334" y="726" type="line" smooth="yes"/>
      <point x="324" y="727" type="line" smooth="yes"/>
      <point x="313" y="727" type="line" smooth="yes"/>
      <point x="174" y="690" type="line" smooth="yes"/>
      <point x="90" y="581" type="line" smooth="yes"/>
      <point x="62" y="404" type="line" smooth="yes"/>
      <point x="62" y="376" type="line" smooth="yes"/>
      <point x="76" y="244" type="line" smooth="yes"/>
      <point x="119" y="145" type="line" smooth="yes"/>
      <point x="191" y="82" type="line" smooth="yes"/>
      <point x="157" y="-60" type="line" smooth="yes"/>
      <point x="219" y="-60" type="line" smooth="yes"/>
      <point x="248" y="61" type="line" smooth="yes"/>
      <point x="268" y="58" type="line" smooth="yes"/>
      <point x="290" y="56" type="line" smooth="yes"/>
      <point x="313" y="55" type="line" smooth="yes"/>
      <point x="441" y="83" type="line" smooth="yes"/>
      <point x="514" y="158" type="line" smooth="yes"/>
      <point x="538" y="269" type="line" smooth="yes"/>
      <point x="538" y="282" type="line" smooth="yes"/>
      <point x="467" y="282" type="line" smooth="yes"/>
      <point x="452" y="197" type="line" smooth="yes"/>
      <point x="404" y="141" type="line" smooth="yes"/>
      <point x="316" y="120" type="line" smooth="yes"/>
      <point x="313" y="120" type="line" smooth="yes"/>
      <point x="295" y="120" type="line" smooth="yes"/>
      <point x="279" y="122" type="line" smooth="yes"/>
      <point x="263" y="125" type="line" smooth="yes"/>
      <point x="388" y="648" type="line" smooth="yes"/>
      <point x="433" y="612" type="line" smooth="yes"/>
      <point x="459" y="555" type="line" smooth="yes"/>
      <point x="467" y="477" type="line" smooth="yes"/>
      <point x="538" y="477" type="line" smooth="yes"/>
      <point x="538" y="501" type="line" smooth="yes"/>
      <point x="524" y="595" type="line" smooth="yes"/>
      <point x="480" y="668" type="line" smooth="yes"/>
      <point x="404" y="714" type="line" smooth="yes"/>
    </contour>
  </outline>
</glyph>
<glyph name="sterling" format="1">
  <advance width="600"/>
  <unicode hex="00A3"/>
  <outline>
    <contour>
      <point x="328" y="726" type="line" smooth="yes"/>
      <point x="413" y="698" type="line" smooth="yes"/>
      <point x="462" y="619" type="line" smooth="yes"/>
      <point x="477" y="500" type="line" smooth="yes"/>
      <point x="548" y="500" type="line" smooth="yes"/>
      <point x="548" y="512" type="line" smooth="yes"/>
      <point x="527" y="655" type="line" smooth="yes"/>
      <point x="457" y="754" type="line" smooth="yes"/>
      <point x="328" y="791" type="line" smooth="yes"/>
      <point x="211" y="764" type="line" smooth="yes"/>
      <point x="140" y="688" type="line" smooth="yes"/>
      <point x="116" y="577" type="line" smooth="yes"/>
      <point x="119" y="521" type="line" smooth="yes"/>
      <point x="125" y="468" type="line" smooth="yes"/>
      <point x="136" y="416" type="line" smooth="yes"/>
      <point x="56" y="416" type="line" smooth="yes"/>
      <point x="56" y="351" type="line" smooth="yes"/>
      <point x="154" y="351" type="line" smooth="yes"/>
      <point x="181" y="259" type="line" smooth="yes"/>
      <point x="206" y="166" type="line" smooth="yes"/>
      <point x="221" y="66" type="line" smooth="yes"/>
      <point x="56" y="66" type="line" smooth="yes"/>
      <point x="56" y="0" type="line" smooth="yes"/>
      <point x="544" y="0" type="line" smooth="yes"/>
      <point x="544" y="66" type="line" smooth="yes"/>
      <point x="283" y="66" type="line" smooth="yes"/>
      <point x="273" y="166" type="line" smooth="yes"/>
      <point x="253" y="261" type="line" smooth="yes"/>
      <point x="230" y="351" type="line" smooth="yes"/>
      <point x="413" y="351" type="line" smooth="yes"/>
      <point x="413" y="416" type="line" smooth="yes"/>
      <point x="212" y="416" type="line" smooth="yes"/>
      <point x="200" y="469" type="line" smooth="yes"/>
      <point x="192" y="521" type="line" smooth="yes"/>
      <point x="189" y="570" type="line" smooth="yes"/>
      <point x="204" y="653" type="line" smooth="yes"/>
      <point x="249" y="707" type="line" smooth="yes"/>
    </contour>
  </outline>
</glyph>
<glyph name="yen" format="1">
  <advance width="600"/>
  <unicode hex="00A5"/>
  <outline>
    <contour>
      <point x="44" y="414" type="line" smooth="yes"/>
      <point x="189" y="414" type="line" smooth="yes"/>
      <point x="252" y="280" type="line" smooth="yes"/>
      <point x="44" y="280" type="line" smooth="yes"/>
      <point x="44" y="214" type="line" smooth="yes"/>
      <point x="264" y="214" type="line" smooth="yes"/>
      <point x="264" y="0" type="line" smooth="yes"/>
      <point x="336" y="0" type="line" smooth="yes"/>
      <point x="336" y="214" type="line" smooth="yes"/>
      <point x="556" y="214" type="line" smooth="yes"/>
      <point x="556" y="280" type="line" smooth="yes"/>
      <point x="347" y="280" type="line" smooth="yes"/>
      <point x="410" y="414" type="line" smooth="yes"/>
      <point x="556" y="414" type="line" smooth="yes"/>
      <point x="556" y="480" type="line" smooth="yes"/>
      <point x="441" y="480" type="line" smooth="yes"/>
      <point x="583" y="780" type="line" smooth="yes"/>
      <point x="504" y="780" type="line" smooth="yes"/>
      <point x="300" y="338" type="line" smooth="yes"/>
      <point x="96" y="780" type="line" smooth="yes"/>
      <point x="17" y="780" type="line" smooth="yes"/>
      <point x="158" y="480" type="line" smooth="yes"/>
      <point x="44" y="480" type="line" smooth="yes"/>
    </contour>
  </outline>
</glyph>
<glyph name="section" format="1">
  <advance width="513"/>
  <unicode hex="00A7"/>
  <outline>
    <contour>
      <point x="399" y="390" type="line" smooth="yes"/>
      <point x="384" y="337" type="line" smooth="yes"/>
      <point x="338" y="302" type="line" smooth="yes"/>
      <point x="264" y="290" type="line" smooth="yes"/>
      <point x="260" y="290" type="line" smooth="yes"/>
      <point x="177" y="303" type="line" smooth="yes"/>
      <point x="129" y="333" type="line" smooth="yes"/>
      <point x="114" y="390" type="line" smooth="yes"/>
      <point x="129" y="443" type="line" smooth="yes"/>
      <point x="175" y="478" type="line" smooth="yes"/>
      <point x="249" y="490" type="line" smooth="yes"/>
      <point x="252" y="490" type="line" smooth="yes"/>
      <point x="336" y="477" type="line" smooth="yes"/>
      <point x="384" y="447" type="line" smooth="yes"/>
    </contour>
    <contour>
      <point x="471" y="389" type="line" smooth="yes"/>
      <point x="471" y="395" type="line" smooth="yes"/>
      <point x="451" y="475" type="line" smooth="yes"/>
      <point x="389" y="522" type="line" smooth="yes"/>
      <point x="281" y="544" type="line" smooth="yes"/>
      <point x="194" y="561" type="line" smooth="yes"/>
      <point x="152" y="593" type="line" smooth="yes"/>
      <point x="141" y="640" type="line" smooth="yes"/>
      <point x="156" y="690" type="line" smooth="yes"/>
      <point x="199" y="721" type="line" smooth="yes"/>
      <point x="267" y="732" type="line" smooth="yes"/>
      <point x="344" y="717" type="line" smooth="yes"/>
      <point x="385" y="674" type="line" smooth="yes"/>
      <point x="396" y="609" type="line" smooth="yes"/>
      <point x="466" y="609" type="line" smooth="yes"/>
      <point x="466" y="613" type="line" smooth="yes"/>
      <point x="447" y="705" type="line" smooth="yes"/>
      <point x="383" y="768" type="line" smooth="yes"/>
      <point x="267" y="791" type="line" smooth="yes"/>
      <point x="161" y="772" type="line" smooth="yes"/>
      <point x="94" y="720" type="line" smooth="yes"/>
      <point x="70" y="640" type="line" smooth="yes"/>
      <point x="70" y="634" type="line" smooth="yes"/>
      <point x="76" y="588" type="line" smooth="yes"/>
      <point x="95" y="550" type="line" smooth="yes"/>
      <point x="132" y="520" type="line" smooth="yes"/>
      <point x="82" y="489" type="line" smooth="yes"/>
      <point x="51" y="446" type="line" smooth="yes"/>
      <point x="41" y="391" type="line" smooth="yes"/>
      <point x="41" y="385" type="line" smooth="yes"/>
      <point x="61" y="305" type="line" smooth="yes"/>
      <point x="123" y="258" type="line" smooth="yes"/>
      <point x="232" y="236" type="line" smooth="yes"/>
      <point x="319" y="219" type="line" smooth="yes"/>
      <point x="361" y="187" type="line" smooth="yes"/>
      <point x="372" y="140" type="line" smooth="yes"/>
      <point x="357" y="90" type="line" smooth="yes"/>
      <point x="313" y="59" type="line" smooth="yes"/>
      <point x="245" y="48" type="line" smooth="yes"/>
      <point x="168" y="63" type="line" smooth="yes"/>
      <point x="128" y="106" type="line" smooth="yes"/>
      <point x="117" y="171" type="line" smooth="yes"/>
      <point x="47" y="171" type="line" smooth="yes"/>
      <point x="47" y="167" type="line" smooth="yes"/>
      <point x="66" y="75" type="line" smooth="yes"/>
      <point x="129" y="12" type="line" smooth="yes"/>
      <point x="245" y="-11" type="line" smooth="yes"/>
      <point x="352" y="8" type="line" smooth="yes"/>
      <point x="419" y="60" type="line" smooth="yes"/>
      <point x="443" y="140" type="line" smooth="yes"/>
      <point x="443" y="146" type="line" smooth="yes"/>
      <point x="437" y="192" type="line" smooth="yes"/>
      <point x="417" y="230" type="line" smooth="yes"/>
      <point x="380" y="260" type="line" smooth="yes"/>
      <point x="430" y="290" type="line" smooth="yes"/>
      <point x="461" y="334" type="line" smooth="yes"/>
    </contour>
  </outline>
</glyph>
<glyph name="copyright" format="1">
  <advance width="920"/>
  <unicode hex="00A9"/>
  <outline>
    <contour>
      <point x="461" y="206" type="line" smooth="yes"/>
      <point x="379" y="232" type="line" smooth="yes"/>
      <point x="334" y="296" type="line" smooth="yes"/>
      <point x="320" y="378" type="line" smooth="yes"/>
      <point x="320" y="402" type="line" smooth="yes"/>
      <point x="334" y="484" type="line" smooth="yes"/>
      <point x="379" y="548" type="line" smooth="yes"/>
      <point x="461" y="574" type="line" smooth="yes"/>
      <point x="536" y="557" type="line" smooth="yes"/>
      <point x="575" y="514" type="line" smooth="yes"/>
      <point x="586" y="459" type="line" smooth="yes"/>
      <point x="651" y="459" type="line" smooth="yes"/>
      <point x="651" y="476" type="line" smooth="yes"/>
      <point x="633" y="545" type="line" smooth="yes"/>
      <point x="573" y="609" type="line" smooth="yes"/>
      <point x="460" y="636" type="line" smooth="yes"/>
      <point x="339" y="600" type="line" smooth="yes"/>
      <point x="272" y="512" type="line" smooth="yes"/>
      <point x="252" y="402" type="line" smooth="yes"/>
      <point x="252" y="378" type="line" smooth="yes"/>
      <point x="272" y="268" type="line" smooth="yes"/>
      <point x="339" y="180" type="line" smooth="yes"/>
      <point x="460" y="144" type="line" smooth="yes"/>
      <point x="573" y="170" type="line" smooth="yes"/>
      <point x="633" y="231" type="line" smooth="yes"/>
      <point x="651" y="298" type="line" smooth="yes"/>
      <point x="651" y="311" type="line" smooth="yes"/>
      <point x="586" y="311" type="line" smooth="yes"/>
      <point x="575" y="264" type="line" smooth="yes"/>
      <point x="537" y="223" type="line" smooth="yes"/>
    </contour>
    <contour>
      <point x="102" y="390" type="line" smooth="yes"/>
      <point x="151" y="571" type="line" smooth="yes"/>
      <point x="279" y="699" type="line" smooth="yes"/>
      <point x="460" y="748" type="line" smooth="yes"/>
      <point x="641" y="699" type="line" smooth="yes"/>
      <point x="769" y="571" type="line" smooth="yes"/>
      <point x="818" y="390" type="line" smooth="yes"/>
      <point x="769" y="209" type="line" smooth="yes"/>
      <point x="641" y="81" type="line" smooth="yes"/>
      <point x="460" y="32" type="line" smooth="yes"/>
      <point x="279" y="81" type="line" smooth="yes"/>
      <point x="151" y="209" type="line" smooth="yes"/>
    </contour>
    <contour>
      <point x="59" y="390" type="line" smooth="yes"/>
      <point x="114" y="188" type="line" smooth="yes"/>
      <point x="258" y="44" type="line" smooth="yes"/>
      <point x="460" y="-11" type="line" smooth="yes"/>
      <point x="662" y="44" type="line" smooth="yes"/>
      <point x="806" y="188" type="line" smooth="yes"/>
      <point x="861" y="390" type="line" smooth="yes"/>
      <point x="806" y="592" type="line" smooth="yes"/>
      <point x="662" y="736" type="line" smooth="yes"/>
      <point x="460" y="791" type="line" smooth="yes"/>
      <point x="258" y="736" type="line" smooth="yes"/>
      <point x="114" y="592" type="line" smooth="yes"/>
    </contour>
  </outline>
</glyph>
<glyph name="ordfeminine" format="1">
  <advance width="390"/>
  <unicode hex="00AA"/>
  <outline>
    <contour>
      <point x="352" y="212" type="line" smooth="yes"/>
      <point x="352" y="269" type="line" smooth="yes"/>
      <point x="47" y="269" type="line" smooth="yes"/>
      <point x="47" y="212" type="line" smooth="yes"/>
    </contour>
    <contour>
      <point x="172" y="433" type="line" smooth="yes"/>
      <point x="132" y="442" type="line" smooth="yes"/>
      <point x="109" y="465" type="line" smooth="yes"/>
      <point x="102" y="495" type="line" smooth="yes"/>
      <point x="102" y="501" type="line" smooth="yes"/>
      <point x="111" y="537" type="line" smooth="yes"/>
      <point x="137" y="562" type="line" smooth="yes"/>
      <point x="178" y="575" type="line" smooth="yes"/>
      <point x="284" y="592" type="line" smooth="yes"/>
      <point x="284" y="488" type="line" smooth="yes"/>
      <point x="263" y="464" type="line" smooth="yes"/>
      <point x="226" y="443" type="line" smooth="yes"/>
    </contour>
    <contour>
      <point x="299" y="388" type="line" smooth="yes"/>
      <point x="352" y="388" type="line" smooth="yes"/>
      <point x="347" y="499" type="line" smooth="yes"/>
      <point x="347" y="644" type="line" smooth="yes"/>
      <point x="334" y="721" type="line" smooth="yes"/>
      <point x="288" y="772" type="line" smooth="yes"/>
      <point x="200" y="791" type="line" smooth="yes"/>
      <point x="109" y="770" type="line" smooth="yes"/>
      <point x="65" y="720" type="line" smooth="yes"/>
      <point x="53" y="659" type="line" smooth="yes"/>
      <point x="53" y="652" type="line" smooth="yes"/>
      <point x="114" y="652" type="line" smooth="yes"/>
      <point x="121" y="695" type="line" smooth="yes"/>
      <point x="146" y="727" type="line" smooth="yes"/>
      <point x="199" y="739" type="line" smooth="yes"/>
      <point x="250" y="728" type="line" smooth="yes"/>
      <point x="276" y="696" type="line" smooth="yes"/>
      <point x="284" y="644" type="line" smooth="yes"/>
      <point x="284" y="635" type="line" smooth="yes"/>
      <point x="170" y="618" type="line" smooth="yes"/>
      <point x="106" y="601" type="line" smooth="yes"/>
      <point x="57" y="563" type="line" smooth="yes"/>
      <point x="38" y="496" type="line" smooth="yes"/>
      <point x="38" y="489" type="line" smooth="yes"/>
      <point x="51" y="432" type="line" smooth="yes"/>
      <point x="91" y="393" type="line" smooth="yes"/>
      <point x="154" y="379" type="line" smooth="yes"/>
      <point x="213" y="388" type="line" smooth="yes"/>
      <point x="258" y="410" type="line" smooth="yes"/>
      <point x="290" y="441" type="line" smooth="yes"/>
    </contour>
  </outline>
</glyph>
<glyph name="macron" format="1">
  <advance width="500"/>
  <unicode hex="00AF"/>
  <outline>
    <contour>
      <point x="133" y="664" type="line" smooth="yes"/>
      <point x="367" y="664" type="line" smooth="yes"/>
      <point x="367" y="730" type="line" smooth="yes"/>
      <point x="133" y="730" type="line" smooth="yes"/>
    </contour>
  </outline>
</glyph>
<glyph name="degree" format="1">
  <advance width="400"/>
  <unicode hex="00B0"/>
  <outline>
    <contour>
      <point x="353" y="639" type="line" smooth="yes"/>
      <point x="333" y="720" type="line" smooth="yes"/>
      <point x="278" y="772" type="line" smooth="yes"/>
      <point x="200" y="791" type="line" smooth="yes"/>
      <point x="122" y="772" type="line" smooth="yes"/>
      <point x="67" y="720" type="line" smooth="yes"/>
      <point x="47" y="639" type="line" smooth="yes"/>
      <point x="47" y="635" type="line" smooth="yes"/>
      <point x="67" y="554" type="line" smooth="yes"/>
      <point x="122" y="502" type="line" smooth="yes"/>
      <point x="200" y="484" type="line" smooth="yes"/>
      <point x="278" y="502" type="line" smooth="yes"/>
      <point x="333" y="554" type="line" smooth="yes"/>
      <point x="353" y="635" type="line" smooth="yes"/>
    </contour>
    <contour>
      <point x="300" y="634" type="line" smooth="yes"/>
      <point x="287" y="582" type="line" smooth="yes"/>
      <point x="252" y="549" type="line" smooth="yes"/>
      <point x="203" y="537" type="line" smooth="yes"/>
      <point x="197" y="537" type="line" smooth="yes"/>
      <point x="148" y="549" type="line" smooth="yes"/>
      <point x="113" y="582" type="line" smooth="yes"/>
      <point x="100" y="634" type="line" smooth="yes"/>
      <point x="100" y="641" type="line" smooth="yes"/>
      <point x="113" y="693" type="line" smooth="yes"/>
      <point x="148" y="725" type="line" smooth="yes"/>
      <point x="197" y="737" type="line" smooth="yes"/>
      <point x="203" y="737" type="line" smooth="yes"/>
      <point x="252" y="725" type="line" smooth="yes"/>
      <point x="287" y="693" type="line" smooth="yes"/>
      <point x="300" y="641" type="line" smooth="yes"/>
    </contour>
  </outline>
</glyph>
<glyph name="twosuperior" format="1">
  <advance width="300"/>
  <unicode hex="00B2"/>
  <outline>
    <contour>
      <point x="275" y="442" type="line" smooth="yes"/>
      <point x="111" y="442" type="line" smooth="yes"/>
      <point x="230" y="571" type="line" smooth="yes"/>
      <point x="256" y="603" type="line" smooth="yes"/>
      <point x="270" y="634" type="line" smooth="yes"/>
      <point x="275" y="672" type="line" smooth="yes"/>
      <point x="275" y="679" type="line" smooth="yes"/>
      <point x="262" y="732" type="line" smooth="yes"/>
      <point x="222" y="771" type="line" smooth="yes"/>
      <point x="150" y="786" type="line" smooth="yes"/>
      <point x="79" y="772" type="line" smooth="yes"/>
      <point x="38" y="729" type="line" smooth="yes"/>
      <point x="25" y="661" type="line" smooth="yes"/>
      <point x="25" y="650" type="line" smooth="yes"/>
      <point x="84" y="650" type="line" smooth="yes"/>
      <point x="91" y="698" type="line" smooth="yes"/>
      <point x="113" y="725" type="line" smooth="yes"/>
      <point x="148" y="733" type="line" smooth="yes"/>
      <point x="151" y="733" type="line" smooth="yes"/>
      <point x="184" y="726" type="line" smooth="yes"/>
      <point x="207" y="704" type="line" smooth="yes"/>
      <point x="215" y="669" type="line" smooth="yes"/>
      <point x="215" y="664" type="line" smooth="yes"/>
      <point x="212" y="641" type="line" smooth="yes"/>
      <point x="202" y="621" type="line" smooth="yes"/>
      <point x="183" y="599" type="line" smooth="yes"/>
      <point x="25" y="427" type="line" smooth="yes"/>
      <point x="25" y="390" type="line" smooth="yes"/>
      <point x="275" y="390" type="line" smooth="yes"/>
    </contour>
  </outline>
</glyph>
<glyph name="paragraph" format="1">
  <advance width="513"/>
  <unicode hex="00B6"/>
  <outline>
    <contour>
      <point x="110" y="541" type="line" smooth="yes"/>
      <point x="110" y="556" type="line" smooth="yes"/>
      <point x="135" y="654" type="line" smooth="yes"/>
      <point x="195" y="702" type="line" smooth="yes"/>
      <point x="265" y="715" type="line" smooth="yes"/>
      <point x="265" y="382" type="line" smooth="yes"/>
      <point x="195" y="395" type="line" smooth="yes"/>
      <point x="135" y="443" type="line" smooth="yes"/>
    </contour>
    <contour>
      <point x="375" y="0" type="line" smooth="yes"/>
      <point x="447" y="0" type="line" smooth="yes"/>
      <point x="447" y="780" type="line" smooth="yes"/>
      <point x="275" y="780" type="line" smooth="yes"/>
      <point x="163" y="762" type="line" smooth="yes"/>
      <point x="73" y="696" type="line" smooth="yes"/>
      <point x="36" y="558" type="line" smooth="yes"/>
      <point x="36" y="538" type="line" smooth="yes"/>
      <point x="71" y="404" type="line" smooth="yes"/>
      <point x="157" y="337" type="line" smooth="yes"/>
      <point x="265" y="317" type="line" smooth="yes"/>
      <point x="265" y="0" type="line" smooth="yes"/>
      <point x="335" y="0" type="line" smooth="yes"/>
      <point x="335" y="715" type="line" smooth="yes"/>
      <point x="375" y="715" type="line" smooth="yes"/>
    </contour>
  </outline>
</glyph>
<glyph name="cedilla" format="1">
  <advance width="602"/>
  <unicode hex="00B8"/>
  <outline>
    <contour>
      <point x="162" y="-191" type="line" smooth="yes"/>
      <point x="187" y="-202" type="line" smooth="yes"/>
      <point x="218" y="-209" type="line" smooth="yes"/>
      <point x="254" y="-211" type="line" smooth="yes"/>
      <point x="308" y="-203" type="line" smooth="yes"/>
      <point x="344" y="-178" type="line" smooth="yes"/>
      <point x="357" y="-133" type="line" smooth="yes"/>
      <point x="342" y="-88" type="line" smooth="yes"/>
      <point x="305" y="-64" type="line" smooth="yes"/>
      <point x="257" y="-56" type="line" smooth="yes"/>
      <point x="253" y="-56" type="line" smooth="yes"/>
      <point x="274" y="0" type="line" smooth="yes"/>
      <point x="226" y="0" type="line" smooth="yes"/>
      <point x="195" y="-80" type="line" smooth="yes"/>
      <point x="214" y="-103" type="line" smooth="yes"/>
      <point x="218" y="-102" type="line" smooth="yes"/>
      <point x="229" y="-101" type="line" smooth="yes"/>
      <point x="243" y="-100" type="line" smooth="yes"/>
      <point x="276" y="-103" type="line" smooth="yes"/>
      <point x="297" y="-113" type="line" smooth="yes"/>
      <point x="305" y="-131" type="line" smooth="yes"/>
      <point x="299" y="-150" type="line" smooth="yes"/>
      <point x="279" y="-159" type="line" smooth="yes"/>
      <point x="247" y="-162" type="line" smooth="yes"/>
      <point x="221" y="-160" type="line" smooth="yes"/>
      <point x="197" y="-155" type="line" smooth="yes"/>
      <point x="177" y="-147" type="line" smooth="yes"/>
    </contour>
  </outline>
</glyph>
<glyph name="ordmasculine" format="1">
  <advance width="418"/>
  <unicode hex="00BA"/>
  <outline>
    <contour>
      <point x="48" y="212" type="line" smooth="yes"/>
      <point x="371" y="212" type="line" smooth="yes"/>
      <point x="371" y="269" type="line" smooth="yes"/>
      <point x="48" y="269" type="line" smooth="yes"/>
    </contour>
    <contour>
      <point x="104" y="575" type="line" smooth="yes"/>
      <point x="104" y="595" type="line" smooth="yes"/>
      <point x="115" y="669" type="line" smooth="yes"/>
      <point x="149" y="718" type="line" smooth="yes"/>
      <point x="209" y="735" type="line" smooth="yes"/>
      <point x="269" y="718" type="line" smooth="yes"/>
      <point x="303" y="669" type="line" smooth="yes"/>
      <point x="314" y="595" type="line" smooth="yes"/>
      <point x="314" y="575" type="line" smooth="yes"/>
      <point x="303" y="501" type="line" smooth="yes"/>
      <point x="269" y="453" type="line" smooth="yes"/>
      <point x="209" y="435" type="line" smooth="yes"/>
      <point x="149" y="453" type="line" smooth="yes"/>
      <point x="115" y="501" type="line" smooth="yes"/>
    </contour>
    <contour>
      <point x="378" y="575" type="line" smooth="yes"/>
      <point x="378" y="595" type="line" smooth="yes"/>
      <point x="360" y="695" type="line" smooth="yes"/>
      <point x="305" y="765" type="line" smooth="yes"/>
      <point x="209" y="791" type="line" smooth="yes"/>
      <point x="113" y="765" type="line" smooth="yes"/>
      <point x="58" y="695" type="line" smooth="yes"/>
      <point x="40" y="595" type="line" smooth="yes"/>
      <point x="40" y="575" type="line" smooth="yes"/>
      <point x="58" y="475" type="line" smooth="yes"/>
      <point x="113" y="405" type="line" smooth="yes"/>
      <point x="209" y="379" type="line" smooth="yes"/>
      <point x="305" y="405" type="line" smooth="yes"/>
      <point x="360" y="475" type="line" smooth="yes"/>
    </contour>
  </outline>
</glyph>
<glyph name="onehalf" format="1">
  <advance width="800"/>
  <unicode hex="00BD"/>
  <outline>
    <contour>
      <point x="277" y="390" type="line" smooth="yes"/>
      <point x="277" y="442" type="line" smooth="yes"/>
      <point x="185" y="442" type="line" smooth="yes"/>
      <point x="185" y="781" type="line" smooth="yes"/>
      <point x="142" y="781" type="line" smooth="yes"/>
      <point x="20" y="698" type="line" smooth="yes"/>
      <point x="49" y="654" type="line" smooth="yes"/>
      <point x="125" y="705" type="line" smooth="yes"/>
      <point x="125" y="442" type="line" smooth="yes"/>
      <point x="32" y="442" type="line" smooth="yes"/>
      <point x="32" y="390" type="line" smooth="yes"/>
    </contour>
    <contour>
      <point x="775" y="52" type="line" smooth="yes"/>
      <point x="611" y="52" type="line" smooth="yes"/>
      <point x="730" y="181" type="line" smooth="yes"/>
      <point x="756" y="213" type="line" smooth="yes"/>
      <point x="770" y="244" type="line" smooth="yes"/>
      <point x="775" y="282" type="line" smooth="yes"/>
      <point x="775" y="289" type="line" smooth="yes"/>
      <point x="762" y="342" type="line" smooth="yes"/>
      <point x="722" y="381" type="line" smooth="yes"/>
      <point x="650" y="396" type="line" smooth="yes"/>
      <point x="579" y="382" type="line" smooth="yes"/>
      <point x="538" y="339" type="line" smooth="yes"/>
      <point x="525" y="271" type="line" smooth="yes"/>
      <point x="525" y="260" type="line" smooth="yes"/>
      <point x="584" y="260" type="line" smooth="yes"/>
      <point x="591" y="308" type="line" smooth="yes"/>
      <point x="613" y="335" type="line" smooth="yes"/>
      <point x="648" y="343" type="line" smooth="yes"/>
      <point x="651" y="343" type="line" smooth="yes"/>
      <point x="684" y="336" type="line" smooth="yes"/>
      <point x="707" y="314" type="line" smooth="yes"/>
      <point x="715" y="279" type="line" smooth="yes"/>
      <point x="715" y="274" type="line" smooth="yes"/>
      <point x="712" y="251" type="line" smooth="yes"/>
      <point x="702" y="231" type="line" smooth="yes"/>
      <point x="683" y="209" type="line" smooth="yes"/>
      <point x="525" y="37" type="line" smooth="yes"/>
      <point x="525" y="0" type="line" smooth="yes"/>
      <point x="775" y="0" type="line" smooth="yes"/>
    </contour>
    <contour>
      <point x="144" y="0" type="line" smooth="yes"/>
      <point x="720" y="780" type="line" smooth="yes"/>
      <point x="656" y="780" type="line" smooth="yes"/>
      <point x="80" y="0" type="line" smooth="yes"/>
    </contour>
  </outline>
</glyph>
<glyph name="threequarters" format="1">
  <advance width="800"/>
  <unicode hex="00BE"/>
  <outline>
    <contour>
      <point x="674" y="293" type="line" smooth="yes"/>
      <point x="673" y="254" type="line" smooth="yes"/>
      <point x="673" y="146" type="line" smooth="yes"/>
      <point x="614" y="146" type="line" smooth="yes"/>
      <point x="580" y="145" type="line" smooth="yes"/>
    </contour>
    <contour>
      <point x="144" y="0" type="line" smooth="yes"/>
      <point x="720" y="780" type="line" smooth="yes"/>
      <point x="656" y="780" type="line" smooth="yes"/>
      <point x="80" y="0" type="line" smooth="yes"/>
    </contour>
    <contour>
      <point x="82" y="515" type="line" smooth="yes"/>
      <point x="22" y="515" type="line" smooth="yes"/>
      <point x="22" y="508" type="line" smooth="yes"/>
      <point x="36" y="441" type="line" smooth="yes"/>
      <point x="79" y="398" type="line" smooth="yes"/>
      <point x="150" y="383" type="line" smooth="yes"/>
      <point x="220" y="399" type="line" smooth="yes"/>
      <point x="263" y="439" type="line" smooth="yes"/>
      <point x="277" y="492" type="line" smooth="yes"/>
      <point x="277" y="501" type="line" smooth="yes"/>
      <point x="270" y="540" type="line" smooth="yes"/>
      <point x="251" y="570" type="line" smooth="yes"/>
      <point x="224" y="589" type="line" smooth="yes"/>
      <point x="250" y="607" type="line" smooth="yes"/>
      <point x="268" y="636" type="line" smooth="yes"/>
      <point x="275" y="674" type="line" smooth="yes"/>
      <point x="275" y="682" type="line" smooth="yes"/>
      <point x="262" y="733" type="line" smooth="yes"/>
      <point x="222" y="771" type="line" smooth="yes"/>
      <point x="150" y="786" type="line" smooth="yes"/>
      <point x="79" y="772" type="line" smooth="yes"/>
      <point x="38" y="729" type="line" smooth="yes"/>
      <point x="25" y="661" type="line" smooth="yes"/>
      <point x="25" y="650" type="line" smooth="yes"/>
      <point x="84" y="650" type="line" smooth="yes"/>
      <point x="91" y="698" type="line" smooth="yes"/>
      <point x="112" y="725" type="line" smooth="yes"/>
      <point x="147" y="733" type="line" smooth="yes"/>
      <point x="152" y="733" type="line" smooth="yes"/>
      <point x="185" y="726" type="line" smooth="yes"/>
      <point x="207" y="706" type="line" smooth="yes"/>
      <point x="215" y="675" type="line" smooth="yes"/>
      <point x="215" y="671" type="line" smooth="yes"/>
      <point x="207" y="640" type="line" smooth="yes"/>
      <point x="185" y="621" type="line" smooth="yes"/>
      <point x="153" y="615" type="line" smooth="yes"/>
      <point x="100" y="615" type="line" smooth="yes"/>
      <point x="100" y="563" type="line" smooth="yes"/>
      <point x="155" y="563" type="line" smooth="yes"/>
      <point x="188" y="556" type="line" smooth="yes"/>
      <point x="210" y="537" type="line" smooth="yes"/>
      <point x="218" y="504" type="line" smooth="yes"/>
      <point x="218" y="497" type="line" smooth="yes"/>
      <point x="208" y="463" type="line" smooth="yes"/>
      <point x="184" y="442" type="line" smooth="yes"/>
      <point x="152" y="436" type="line" smooth="yes"/>
      <point x="147" y="436" type="line" smooth="yes"/>
      <point x="113" y="444" type="line" smooth="yes"/>
      <point x="90" y="470" type="line" smooth="yes"/>
    </contour>
    <contour>
      <point x="733" y="0" type="line" smooth="yes"/>
      <point x="733" y="93" type="line" smooth="yes"/>
      <point x="785" y="93" type="line" smooth="yes"/>
      <point x="785" y="146" type="line" smooth="yes"/>
      <point x="733" y="146" type="line" smooth="yes"/>
      <point x="733" y="390" type="line" smooth="yes"/>
      <point x="675" y="390" type="line" smooth="yes"/>
      <point x="514" y="134" type="line" smooth="yes"/>
      <point x="514" y="93" type="line" smooth="yes"/>
      <point x="673" y="93" type="line" smooth="yes"/>
      <point x="673" y="0" type="line" smooth="yes"/>
    </contour>
  </outline>
</glyph>
<glyph name="questiondown" format="1">
  <advance width="455"/>
  <unicode hex="00BF"/>
  <outline>
    <contour>
      <point x="184" y="440" type="line" smooth="yes"/>
      <point x="274" y="440" type="line" smooth="yes"/>
      <point x="274" y="530" type="line" smooth="yes"/>
      <point x="184" y="530" type="line" smooth="yes"/>
    </contour>
    <contour>
      <point x="224" y="-146" type="line" smooth="yes"/>
      <point x="153" y="-131" type="line" smooth="yes"/>
      <point x="113" y="-88" type="line" smooth="yes"/>
      <point x="101" y="-22" type="line" smooth="yes"/>
      <point x="142" y="94" type="line" smooth="yes"/>
      <point x="216" y="199" type="line" smooth="yes"/>
      <point x="252" y="341" type="line" smooth="yes"/>
      <point x="205" y="341" type="line" smooth="yes"/>
      <point x="156" y="211" type="line" smooth="yes"/>
      <point x="72" y="116" type="line" smooth="yes"/>
      <point x="28" y="-29" type="line" smooth="yes"/>
      <point x="49" y="-124" type="line" smooth="yes"/>
      <point x="115" y="-188" type="line" smooth="yes"/>
      <point x="224" y="-211" type="line" smooth="yes"/>
      <point x="350" y="-177" type="line" smooth="yes"/>
      <point x="412" y="-84" type="line" smooth="yes"/>
      <point x="429" y="48" type="line" smooth="yes"/>
      <point x="429" y="60" type="line" smooth="yes"/>
      <point x="357" y="60" type="line" smooth="yes"/>
      <point x="346" y="-50" type="line" smooth="yes"/>
      <point x="305" y="-121" type="line" smooth="yes"/>
    </contour>
  </outline>
</glyph>
<glyph name="Atilde" format="1">
  <advance width="611"/>
  <unicode hex="00C3"/>
  <outline>
    <contour>
      <point x="407" y="936" type="line" smooth="yes"/>
      <point x="402" y="910" type="line" smooth="yes"/>
      <point x="388" y="897" type="line" smooth="yes"/>
      <point x="370" y="893" type="line" smooth="yes"/>
      <point x="331" y="907" type="line" smooth="yes"/>
      <point x="287" y="933" type="line" smooth="yes"/>
      <point x="232" y="947" type="line" smooth="yes"/>
      <point x="191" y="937" type="line" smooth="yes"/>
      <point x="163" y="907" type="line" smooth="yes"/>
      <point x="153" y="854" type="line" smooth="yes"/>
      <point x="203" y="854" type="line" smooth="yes"/>
      <point x="208" y="880" type="line" smooth="yes"/>
      <point x="222" y="893" type="line" smooth="yes"/>
      <point x="240" y="897" type="line" smooth="yes"/>
      <point x="279" y="883" type="line" smooth="yes"/>
      <point x="323" y="857" type="line" smooth="yes"/>
      <point x="378" y="843" type="line" smooth="yes"/>
      <point x="419" y="853" type="line" smooth="yes"/>
      <point x="447" y="883" type="line" smooth="yes"/>
      <point x="457" y="936" type="line" smooth="yes"/>
    </contour>
    <contour>
      <point x="305" y="709" type="line" smooth="yes"/>
      <point x="429" y="265" type="line" smooth="yes"/>
      <point x="181" y="265" type="line" smooth="yes"/>
    </contour>
    <contour>
      <point x="254" y="788" type="line" smooth="yes"/>
      <point x="29" y="0" type="line" smooth="yes"/>
      <point x="107" y="0" type="line" smooth="yes"/>
      <point x="163" y="200" type="line" smooth="yes"/>
      <point x="448" y="200" type="line" smooth="yes"/>
      <point x="504" y="0" type="line" smooth="yes"/>
      <point x="582" y="0" type="line" smooth="yes"/>
      <point x="357" y="788" type="line" smooth="yes"/>
    </contour>
  </outline>
</glyph>
<glyph name="Aring" format="1">
  <advance width="611"/>
  <unicode hex="00C5"/>
  <outline>
    <contour>
      <point x="249" y="867" type="line" smooth="yes"/>
      <point x="257" y="895" type="line" smooth="yes"/>
      <point x="277" y="915" type="line" smooth="yes"/>
      <point x="305" y="923" type="line" smooth="yes"/>
      <point x="333" y="915" type="line" smooth="yes"/>
      <point x="353" y="895" type="line" smooth="yes"/>
      <point x="361" y="867" type="line" smooth="yes"/>
      <point x="353" y="839" type="line" smooth="yes"/>
      <point x="333" y="819" type="line" smooth="yes"/>
      <point x="305" y="811" type="line" smooth="yes"/>
      <point x="277" y="819" type="line" smooth="yes"/>
      <point x="257" y="839" type="line" smooth="yes"/>
    </contour>
    <contour>
      <point x="305" y="709" type="line" smooth="yes"/>
      <point x="429" y="265" type="line" smooth="yes"/>
      <point x="181" y="265" type="line" smooth="yes"/>
    </contour>
    <contour>
      <point x="211" y="867" type="line" smooth="yes"/>
      <point x="216" y="835" type="line" smooth="yes"/>
      <point x="231" y="808" type="line" smooth="yes"/>
      <point x="254" y="788" type="line" smooth="yes"/>
      <point x="29" y="0" type="line" smooth="yes"/>
      <point x="107" y="0" type="line" smooth="yes"/>
      <point x="163" y="200" type="line" smooth="yes"/>
      <point x="448" y="200" type="line" smooth="yes"/>
      <point x="504" y="0" type="line" smooth="yes"/>
      <point x="582" y="0" type="line" smooth="yes"/>
      <point x="357" y="788" type="line" smooth="yes"/>
      <point x="356" y="788" type="line" smooth="yes"/>
      <point x="379" y="808" type="line" smooth="yes"/>
      <point x="394" y="835" type="line" smooth="yes"/>
      <point x="399" y="867" type="line" smooth="yes"/>
      <point x="386" y="914" type="line" smooth="yes"/>
      <point x="352" y="948" type="line" smooth="yes"/>
      <point x="305" y="961" type="line" smooth="yes"/>
      <point x="258" y="948" type="line" smooth="yes"/>
      <point x="224" y="914" type="line" smooth="yes"/>
    </contour>
  </outline>
</glyph>
<glyph name="Ccedilla" format="1">
  <advance width="618"/>
  <unicode hex="00C7"/>
  <outline>
    <contour>
      <point x="240" y="-191" type="line" smooth="yes"/>
      <point x="265" y="-202" type="line" smooth="yes"/>
      <point x="296" y="-209" type="line" smooth="yes"/>
      <point x="332" y="-211" type="line" smooth="yes"/>
      <point x="386" y="-203" type="line" smooth="yes"/>
      <point x="422" y="-178" type="line" smooth="yes"/>
      <point x="435" y="-133" type="line" smooth="yes"/>
      <point x="420" y="-88" type="line" smooth="yes"/>
      <point x="383" y="-64" type="line" smooth="yes"/>
      <point x="335" y="-56" type="line" smooth="yes"/>
      <point x="331" y="-56" type="line" smooth="yes"/>
      <point x="348" y="-10" type="line" smooth="yes"/>
      <point x="471" y="25" type="line" smooth="yes"/>
      <point x="544" y="111" type="line" smooth="yes"/>
      <point x="568" y="244" type="line" smooth="yes"/>
      <point x="568" y="254" type="line" smooth="yes"/>
      <point x="494" y="254" type="line" smooth="yes"/>
      <point x="477" y="145" type="line" smooth="yes"/>
      <point x="423" y="77" type="line" smooth="yes"/>
      <point x="328" y="54" type="line" smooth="yes"/>
      <point x="321" y="54" type="line" smooth="yes"/>
      <point x="214" y="87" type="line" smooth="yes"/>
      <point x="151" y="189" type="line" smooth="yes"/>
      <point x="131" y="370" type="line" smooth="yes"/>
      <point x="131" y="410" type="line" smooth="yes"/>
      <point x="151" y="591" type="line" smooth="yes"/>
      <point x="214" y="693" type="line" smooth="yes"/>
      <point x="321" y="726" type="line" smooth="yes"/>
      <point x="328" y="726" type="line" smooth="yes"/>
      <point x="423" y="702" type="line" smooth="yes"/>
      <point x="477" y="627" type="line" smooth="yes"/>
      <point x="494" y="496" type="line" smooth="yes"/>
      <point x="568" y="496" type="line" smooth="yes"/>
      <point x="568" y="524" type="line" smooth="yes"/>
      <point x="541" y="671" type="line" smooth="yes"/>
      <point x="460" y="761" type="line" smooth="yes"/>
      <point x="322" y="791" type="line" smooth="yes"/>
      <point x="174" y="752" type="line" smooth="yes"/>
      <point x="86" y="629" type="line" smooth="yes"/>
      <point x="57" y="410" type="line" smooth="yes"/>
      <point x="57" y="370" type="line" smooth="yes"/>
      <point x="84" y="158" type="line" smooth="yes"/>
      <point x="164" y="35" type="line" smooth="yes"/>
      <point x="300" y="-10" type="line" smooth="yes"/>
      <point x="273" y="-80" type="line" smooth="yes"/>
      <point x="292" y="-103" type="line" smooth="yes"/>
      <point x="296" y="-102" type="line" smooth="yes"/>
      <point x="307" y="-101" type="line" smooth="yes"/>
      <point x="321" y="-100" type="line" smooth="yes"/>
      <point x="354" y="-103" type="line" smooth="yes"/>
      <point x="375" y="-113" type="line" smooth="yes"/>
      <point x="383" y="-131" type="line" smooth="yes"/>
      <point x="377" y="-150" type="line" smooth="yes"/>
      <point x="357" y="-159" type="line" smooth="yes"/>
      <point x="325" y="-162" type="line" smooth="yes"/>
      <point x="299" y="-160" type="line" smooth="yes"/>
      <point x="275" y="-155" type="line" smooth="yes"/>
      <point x="255" y="-147" type="line" smooth="yes"/>
    </contour>
  </outline>
</glyph>
<glyph name="Ntilde" format="1">
  <advance width="659"/>
  <unicode hex="00D1"/>
  <outline>
    <contour>
      <point x="431" y="936" type="line" smooth="yes"/>
      <point x="426" y="910" type="line" smooth="yes"/>
      <point x="412" y="897" type="line" smooth="yes"/>
      <point x="394" y="893" type="line" smooth="yes"/>
      <point x="355" y="907" type="line" smooth="yes"/>
      <point x="311" y="933" type="line" smooth="yes"/>
      <point x="256" y="947" type="line" smooth="yes"/>
      <point x="215" y="937" type="line" smooth="yes"/>
      <point x="187" y="907" type="line" smooth="yes"/>
      <point x="177" y="854" type="line" smooth="yes"/>
      <point x="227" y="854" type="line" smooth="yes"/>
      <point x="232" y="880" type="line" smooth="yes"/>
      <point x="246" y="893" type="line" smooth="yes"/>
      <point x="264" y="897" type="line" smooth="yes"/>
      <point x="303" y="883" type="line" smooth="yes"/>
      <point x="347" y="857" type="line" smooth="yes"/>
      <point x="402" y="843" type="line" smooth="yes"/>
      <point x="443" y="853" type="line" smooth="yes"/>
      <point x="471" y="883" type="line" smooth="yes"/>
      <point x="481" y="936" type="line" smooth="yes"/>
    </contour>
    <contour>
      <point x="585" y="780" type="line" smooth="yes"/>
      <point x="517" y="780" type="line" smooth="yes"/>
      <point x="517" y="303" type="line" smooth="yes"/>
      <point x="520" y="122" type="line" smooth="yes"/>
      <point x="152" y="780" type="line" smooth="yes"/>
      <point x="74" y="780" type="line" smooth="yes"/>
      <point x="74" y="0" type="line" smooth="yes"/>
      <point x="142" y="0" type="line" smooth="yes"/>
      <point x="142" y="477" type="line" smooth="yes"/>
      <point x="138" y="658" type="line" smooth="yes"/>
      <point x="507" y="0" type="line" smooth="yes"/>
      <point x="585" y="0" type="line" smooth="yes"/>
    </contour>
  </outline>
</glyph>
<glyph name="Ograve" format="1">
  <advance width="649"/>
  <unicode hex="00D2"/>
  <outline>
    <contour>
      <point x="226" y="950" type="line" smooth="yes"/>
      <point x="288" y="840" type="line" smooth="yes"/>
      <point x="360" y="840" type="line" smooth="yes"/>
      <point x="300" y="950" type="line" smooth="yes"/>
    </contour>
    <contour>
      <point x="321" y="54" type="line" smooth="yes"/>
      <point x="214" y="87" type="line" smooth="yes"/>
      <point x="151" y="189" type="line" smooth="yes"/>
      <point x="131" y="370" type="line" smooth="yes"/>
      <point x="131" y="410" type="line" smooth="yes"/>
      <point x="151" y="591" type="line" smooth="yes"/>
      <point x="214" y="693" type="line" smooth="yes"/>
      <point x="321" y="726" type="line" smooth="yes"/>
      <point x="328" y="726" type="line" smooth="yes"/>
      <point x="435" y="693" type="line" smooth="yes"/>
      <point x="498" y="591" type="line" smooth="yes"/>
      <point x="518" y="410" type="line" smooth="yes"/>
      <point x="518" y="370" type="line" smooth="yes"/>
      <point x="498" y="189" type="line" smooth="yes"/>
      <point x="435" y="87" type="line" smooth="yes"/>
      <point x="328" y="54" type="line" smooth="yes"/>
    </contour>
    <contour>
      <point x="324" y="-11" type="line" smooth="yes"/>
      <point x="473" y="28" type="line" smooth="yes"/>
      <point x="562" y="151" type="line" smooth="yes"/>
      <point x="592" y="370" type="line" smooth="yes"/>
      <point x="592" y="410" type="line" smooth="yes"/>
      <point x="562" y="629" type="line" smooth="yes"/>
      <point x="473" y="752" type="line" smooth="yes"/>
      <point x="324" y="791" type="line" smooth="yes"/>
      <point x="176" y="752" type="line" smooth="yes"/>
      <point x="87" y="629" type="line" smooth="yes"/>
      <point x="57" y="410" type="line" smooth="yes"/>
      <point x="57" y="370" type="line" smooth="yes"/>
      <point x="87" y="151" type="line" smooth="yes"/>
      <point x="176" y="28" type="line" smooth="yes"/>
    </contour>
  </outline>
</glyph>
<glyph name="Ocircumflex" format="1">
  <advance width="649"/>
  <unicode hex="00D4"/>
  <outline>
    <contour>
      <point x="256" y="840" type="line" smooth="yes"/>
      <point x="324" y="906" type="line" smooth="yes"/>
      <point x="392" y="840" type="line" smooth="yes"/>
      <point x="462" y="840" type="line" smooth="yes"/>
      <point x="356" y="950" type="line" smooth="yes"/>
      <point x="292" y="950" type="line" smooth="yes"/>
      <point x="186" y="840" type="line" smooth="yes"/>
    </contour>
    <contour>
      <point x="321" y="54" type="line" smooth="yes"/>
      <point x="214" y="87" type="line" smooth="yes"/>
      <point x="151" y="189" type="line" smooth="yes"/>
      <point x="131" y="370" type="line" smooth="yes"/>
      <point x="131" y="410" type="line" smooth="yes"/>
      <point x="151" y="591" type="line" smooth="yes"/>
      <point x="214" y="693" type="line" smooth="yes"/>
      <point x="321" y="726" type="line" smooth="yes"/>
      <point x="328" y="726" type="line" smooth="yes"/>
      <point x="435" y="693" type="line" smooth="yes"/>
      <point x="498" y="591" type="line" smooth="yes"/>
      <point x="518" y="410" type="line" smooth="yes"/>
      <point x="518" y="370" type="line" smooth="yes"/>
      <point x="498" y="189" type="line" smooth="yes"/>
      <point x="435" y="87" type="line" smooth="yes"/>
      <point x="328" y="54" type="line" smooth="yes"/>
    </contour>
    <contour>
      <point x="324" y="-11" type="line" smooth="yes"/>
      <point x="473" y="28" type="line" smooth="yes"/>
      <point x="562" y="151" type="line" smooth="yes"/>
      <point x="592" y="370" type="line" smooth="yes"/>
      <point x="592" y="410" type="line" smooth="yes"/>
      <point x="562" y="629" type="line" smooth="yes"/>
      <point x="473" y="752" type="line" smooth="yes"/>
      <point x="324" y="791" type="line" smooth="yes"/>
      <point x="176" y="752" type="line" smooth="yes"/>
      <point x="87" y="629" type="line" smooth="yes"/>
      <point x="57" y="410" type="line" smooth="yes"/>
      <point x="57" y="370" type="line" smooth="yes"/>
      <point x="87" y="151" type="line" smooth="yes"/>
      <point x="176" y="28" type="line" smooth="yes"/>
    </contour>
  </outline>
</glyph>
<glyph name="Otilde" format="1">
  <advance width="649"/>
  <unicode hex="00D5"/>
  <outline>
    <contour>
      <point x="426" y="936" type="line" smooth="yes"/>
      <point x="421" y="910" type="line" smooth="yes"/>
      <point x="407" y="897" type="line" smooth="yes"/>
      <point x="389" y="893" type="line" smooth="yes"/>
      <point x="350" y="907" type="line" smooth="yes"/>
      <point x="306" y="933" type="line" smooth="yes"/>
      <point x="251" y="947" type="line" smooth="yes"/>
      <point x="210" y="937" type="line" smooth="yes"/>
      <point x="182" y="907" type="line" smooth="yes"/>
      <point x="172" y="854" type="line" smooth="yes"/>
      <point x="222" y="854" type="line" smooth="yes"/>
      <point x="227" y="880" type="line" smooth="yes"/>
      <point x="241" y="893" type="line" smooth="yes"/>
      <point x="259" y="897" type="line" smooth="yes"/>
      <point x="298" y="883" type="line" smooth="yes"/>
      <point x="342" y="857" type="line" smooth="yes"/>
      <point x="397" y="843" type="line" smooth="yes"/>
      <point x="438" y="853" type="line" smooth="yes"/>
      <point x="466" y="883" type="line" smooth="yes"/>
      <point x="476" y="936" type="line" smooth="yes"/>
    </contour>
    <contour>
      <point x="321" y="54" type="line" smooth="yes"/>
      <point x="214" y="87" type="line" smooth="yes"/>
      <point x="151" y="189" type="line" smooth="yes"/>
      <point x="131" y="370" type="line" smooth="yes"/>
      <point x="131" y="410" type="line" smooth="yes"/>
      <point x="151" y="591" type="line" smooth="yes"/>
      <point x="214" y="693" type="line" smooth="yes"/>
      <point x="321" y="726" type="line" smooth="yes"/>
      <point x="328" y="726" type="line" smooth="yes"/>
      <point x="435" y="693" type="line" smooth="yes"/>
      <point x="498" y="591" type="line" smooth="yes"/>
      <point x="518" y="410" type="line" smooth="yes"/>
      <point x="518" y="370" type="line" smooth="yes"/>
      <point x="498" y="189" type="line" smooth="yes"/>
      <point x="435" y="87" type="line" smooth="yes"/>
      <point x="328" y="54" type="line" smooth="yes"/>
    </contour>
    <contour>
      <point x="324" y="-11" type="line" smooth="yes"/>
      <point x="473" y="28" type="line" smooth="yes"/>
      <point x="562" y="151" type="line" smooth="yes"/>
      <point x="592" y="370" type="line" smooth="yes"/>
      <point x="592" y="410" type="line" smooth="yes"/>
      <point x="562" y="629" type="line" smooth="yes"/>
      <point x="473" y="752" type="line" smooth="yes"/>
      <point x="324" y="791" type="line" smooth="yes"/>
      <point x="176" y="752" type="line" smooth="yes"/>
      <point x="87" y="629" type="line" smooth="yes"/>
      <point x="57" y="410" type="line" smooth="yes"/>
      <point x="57" y="370" type="line" smooth="yes"/>
      <point x="87" y="151" type="line" smooth="yes"/>
      <point x="176" y="28" type="line" smooth="yes"/>
    </contour>
  </outline>
</glyph>
<glyph name="multiply" format="1">
  <advance width="600"/>
  <unicode hex="00D7"/>
  <outline>
    <contour>
      <point x="83" y="126" type="line" smooth="yes"/>
      <point x="300" y="343" type="line" smooth="yes"/>
      <point x="517" y="126" type="line" smooth="yes"/>
      <point x="564" y="173" type="line" smooth="yes"/>
      <point x="347" y="390" type="line" smooth="yes"/>
      <point x="564" y="607" type="line" smooth="yes"/>
      <point x="517" y="654" type="line" smooth="yes"/>
      <point x="300" y="437" type="line" smooth="yes"/>
      <point x="83" y="654" type="line" smooth="yes"/>
      <point x="36" y="607" type="line" smooth="yes"/>
      <point x="253" y="390" type="line" smooth="yes"/>
      <point x="36" y="173" type="line" smooth="yes"/>
    </contour>
  </outline>
</glyph>
<glyph name="Oslash" format="1">
  <advance width="638"/>
  <unicode hex="00D8"/>
  <outline>
    <contour>
      <point x="131" y="370" type="line" smooth="yes"/>
      <point x="131" y="410" type="line" smooth="yes"/>
      <point x="151" y="591" type="line" smooth="yes"/>
      <point x="214" y="693" type="line" smooth="yes"/>
      <point x="321" y="726" type="line" smooth="yes"/>
      <point x="328" y="726" type="line" smooth="yes"/>
      <point x="381" y="720" type="line" smooth="yes"/>
      <point x="425" y="701" type="line" smooth="yes"/>
      <point x="460" y="668" type="line" smooth="yes"/>
      <point x="157" y="170" type="line" smooth="yes"/>
      <point x="142" y="225" type="line" smooth="yes"/>
      <point x="134" y="291" type="line" smooth="yes"/>
    </contour>
    <contour>
      <point x="518" y="410" type="line" smooth="yes"/>
      <point x="518" y="370" type="line" smooth="yes"/>
      <point x="498" y="189" type="line" smooth="yes"/>
      <point x="435" y="87" type="line" smooth="yes"/>
      <point x="328" y="54" type="line" smooth="yes"/>
      <point x="321" y="54" type="line" smooth="yes"/>
      <point x="265" y="61" type="line" smooth="yes"/>
      <point x="219" y="82" type="line" smooth="yes"/>
      <point x="183" y="118" type="line" smooth="yes"/>
      <point x="488" y="619" type="line" smooth="yes"/>
      <point x="505" y="563" type="line" smooth="yes"/>
      <point x="515" y="493" type="line" smooth="yes"/>
    </contour>
    <contour>
      <point x="57" y="410" type="line" smooth="yes"/>
      <point x="57" y="370" type="line" smooth="yes"/>
      <point x="63" y="258" type="line" smooth="yes"/>
      <point x="81" y="167" type="line" smooth="yes"/>
      <point x="112" y="95" type="line" smooth="yes"/>
      <point x="54" y="0" type="line" smooth="yes"/>
      <point x="112" y="0" type="line" smooth="yes"/>
      <point x="144" y="54" type="line" smooth="yes"/>
      <point x="193" y="17" type="line" smooth="yes"/>
      <point x="253" y="-4" type="line" smooth="yes"/>
      <point x="324" y="-11" type="line" smooth="yes"/>
      <point x="473" y="28" type="line" smooth="yes"/>
      <point x="562" y="151" type="line" smooth="yes"/>
      <point x="592" y="370" type="line" smooth="yes"/>
      <point x="592" y="410" type="line" smooth="yes"/>
      <point x="585" y="526" type="line" smooth="yes"/>
      <point x="565" y="619" type="line" smooth="yes"/>
      <point x="532" y="691" type="line" smooth="yes"/>
      <point x="586" y="780" type="line" smooth="yes"/>
      <point x="528" y="780" type="line" smooth="yes"/>
      <point x="498" y="731" type="line" smooth="yes"/>
      <point x="450" y="765" type="line" smooth="yes"/>
      <point x="392" y="785" type="line" smooth="yes"/>
      <point x="324" y="791" type="line" smooth="yes"/>
      <point x="176" y="752" type="line" smooth="yes"/>
      <point x="87" y="629" type="line" smooth="yes"/>
    </contour>
  </outline>
</glyph>
<glyph name="Ugrave" format="1">
  <advance width="639"/>
  <unicode hex="00D9"/>
  <outline>
    <contour>
      <point x="221" y="950" type="line" smooth="yes"/>
      <point x="283" y="840" type="line" smooth="yes"/>
      <point x="355" y="840" type="line" smooth="yes"/>
      <point x="295" y="950" type="line" smooth="yes"/>
    </contour>
    <contour>
      <point x="319" y="-11" type="line" smooth="yes"/>
      <point x="458" y="13" type="line" smooth="yes"/>
      <point x="542" y="93" type="line" smooth="yes"/>
      <point x="570" y="242" type="line" smooth="yes"/>
      <point x="570" y="780" type="line" smooth="yes"/>
      <point x="498" y="780" type="line" smooth="yes"/>
      <point x="498" y="247" type="line" smooth="yes"/>
      <point x="478" y="131" type="line" smooth="yes"/>
      <point x="419" y="71" type="line" smooth="yes"/>
      <point x="319" y="54" type="line" smooth="yes"/>
      <point x="220" y="71" type="line" smooth="yes"/>
      <point x="160" y="131" type="line" smooth="yes"/>
      <point x="141" y="247" type="line" smooth="yes"/>
      <point x="141" y="780" type="line" smooth="yes"/>
      <point x="69" y="780" type="line" smooth="yes"/>
      <point x="69" y="242" type="line" smooth="yes"/>
      <point x="97" y="93" type="line" smooth="yes"/>
      <point x="180" y="13" type="line" smooth="yes"/>
    </contour>
  </outline>
</glyph>
<glyph name="Ucircumflex" format="1">
  <advance width="639"/>
  <unicode hex="00DB"/>
  <outline>
    <contour>
      <point x="251" y="840" type="line" smooth="yes"/>
      <point x="319" y="906" type="line" smooth="yes"/>
      <point x="387" y="840" type="line" smooth="yes"/>
      <point x="457" y="840" type="line" smooth="yes"/>
      <point x="351" y="950" type="line" smooth="yes"/>
      <point x="287" y="950" type="line" smooth="yes"/>
      <point x="181" y="840" type="line" smooth="yes"/>
    </contour>
    <contour>
      <point x="319" y="-11" type="line" smooth="yes"/>
      <point x="458" y="13" type="line" smooth="yes"/>
      <point x="542" y="93" type="line" smooth="yes"/>
      <point x="570" y="242" type="line" smooth="yes"/>
      <point x="570" y="780" type="line" smooth="yes"/>
      <point x="498" y="780" type="line" smooth="yes"/>
      <point x="498" y="247" type="line" smooth="yes"/>
      <point x="478" y="131" type="line" smooth="yes"/>
      <point x="419" y="71" type="line" smooth="yes"/>
      <point x="319" y="54" type="line" smooth="yes"/>
      <point x="220" y="71" type="line" smooth="yes"/>
      <point x="160" y="131" type="line" smooth="yes"/>
      <point x="141" y="247" type="line" smooth="yes"/>
      <point x="141" y="780" type="line" smooth="yes"/>
      <point x="69" y="780" type="line" smooth="yes"/>
      <point x="69" y="242" type="line" smooth="yes"/>
      <point x="97" y="93" type="line" smooth="yes"/>
      <point x="180" y="13" type="line" smooth="yes"/>
    </contour>
  </outline>
</glyph>
<glyph name="Udieresis" format="1">
  <advance width="639"/>
  <unicode hex="00DC"/>
  <outline>
    <contour>
      <point x="437" y="930" type="line" smooth="yes"/>
      <point x="358" y="930" type="line" smooth="yes"/>
      <point x="358" y="860" type="line" smooth="yes"/>
      <point x="437" y="860" type="line" smooth="yes"/>
    </contour>
    <contour>
      <point x="280" y="930" type="line" smooth="yes"/>
      <point x="201" y="930" type="line" smooth="yes"/>
      <point x="201" y="860" type="line" smooth="yes"/>
      <point x="280" y="860" type="line" smooth="yes"/>
    </contour>
    <contour>
      <point x="319" y="-11" type="line" smooth="yes"/>
      <point x="458" y="13" type="line" smooth="yes"/>
      <point x="542" y="93" type="line" smooth="yes"/>
      <point x="570" y="242" type="line" smooth="yes"/>
      <point x="570" y="780" type="line" smooth="yes"/>
      <point x="498" y="780" type="line" smooth="yes"/>
      <point x="498" y="247" type="line" smooth="yes"/>
      <point x="478" y="131" type="line" smooth="yes"/>
      <point x="419" y="71" type="line" smooth="yes"/>
      <point x="319" y="54" type="line" smooth="yes"/>
      <point x="220" y="71" type="line" smooth="yes"/>
      <point x="160" y="131" type="line" smooth="yes"/>
      <point x="141" y="247" type="line" smooth="yes"/>
      <point x="141" y="780" type="line" smooth="yes"/>
      <point x="69" y="780" type="line" smooth="yes"/>
      <point x="69" y="242" type="line" smooth="yes"/>
      <point x="97" y="93" type="line" smooth="yes"/>
      <point x="180" y="13" type="line" smooth="yes"/>
    </contour>
  </outline>
</glyph>
<glyph name="Thorn" format="1">
  <advance width="573"/>
  <unicode hex="00DE"/>
  <outline>
    <contour>
      <point x="146" y="223" type="line" smooth="yes"/>
      <point x="146" y="557" type="line" smooth="yes"/>
      <point x="292" y="557" type="line" smooth="yes"/>
      <point x="364" y="546" type="line" smooth="yes"/>
      <point x="428" y="498" type="line" smooth="yes"/>
      <point x="455" y="397" type="line" smooth="yes"/>
      <point x="455" y="383" type="line" smooth="yes"/>
      <point x="428" y="282" type="line" smooth="yes"/>
      <point x="364" y="234" type="line" smooth="yes"/>
      <point x="292" y="223" type="line" smooth="yes"/>
    </contour>
    <contour>
      <point x="146" y="780" type="line" smooth="yes"/>
      <point x="74" y="780" type="line" smooth="yes"/>
      <point x="74" y="0" type="line" smooth="yes"/>
      <point x="146" y="0" type="line" smooth="yes"/>
      <point x="146" y="158" type="line" smooth="yes"/>
      <point x="290" y="158" type="line" smooth="yes"/>
      <point x="401" y="176" type="line" smooth="yes"/>
      <point x="492" y="242" type="line" smooth="yes"/>
      <point x="529" y="380" type="line" smooth="yes"/>
      <point x="529" y="400" type="line" smooth="yes"/>
      <point x="492" y="538" type="line" smooth="yes"/>
      <point x="401" y="604" type="line" smooth="yes"/>
      <point x="290" y="622" type="line" smooth="yes"/>
      <point x="146" y="622" type="line" smooth="yes"/>
    </contour>
  </outline>
</glyph>
<glyph name="germandbls" format="1">
  <advance width="571"/>
  <unicode hex="00DF"/>
  <outline>
    <contour>
      <point x="262" y="370" type="line" smooth="yes"/>
      <point x="339" y="319" type="line" smooth="yes"/>
      <point x="414" y="266" type="line" smooth="yes"/>
      <point x="458" y="216" type="line" smooth="yes"/>
      <point x="473" y="161" type="line" smooth="yes"/>
      <point x="465" y="106" type="line" smooth="yes"/>
      <point x="432" y="65" type="line" smooth="yes"/>
      <point x="366" y="48" type="line" smooth="yes"/>
      <point x="299" y="65" type="line" smooth="yes"/>
      <point x="267" y="107" type="line" smooth="yes"/>
      <point x="258" y="162" type="line" smooth="yes"/>
      <point x="196" y="162" type="line" smooth="yes"/>
      <point x="196" y="157" type="line" smooth="yes"/>
      <point x="209" y="79" type="line" smooth="yes"/>
      <point x="261" y="15" type="line" smooth="yes"/>
      <point x="369" y="-11" type="line" smooth="yes"/>
      <point x="477" y="16" type="line" smooth="yes"/>
      <point x="529" y="80" type="line" smooth="yes"/>
      <point x="543" y="159" type="line" smooth="yes"/>
      <point x="543" y="164" type="line" smooth="yes"/>
      <point x="526" y="238" type="line" smooth="yes"/>
      <point x="475" y="301" type="line" smooth="yes"/>
      <point x="392" y="364" type="line" smooth="yes"/>
      <point x="342" y="396" type="line" smooth="yes"/>
      <point x="417" y="457" type="line" smooth="yes"/>
      <point x="461" y="524" type="line" smooth="yes"/>
      <point x="475" y="602" type="line" smooth="yes"/>
      <point x="475" y="609" type="line" smooth="yes"/>
      <point x="453" y="713" type="line" smooth="yes"/>
      <point x="385" y="785" type="line" smooth="yes"/>
      <point x="270" y="811" type="line" smooth="yes"/>
      <point x="153" y="785" type="line" smooth="yes"/>
      <point x="86" y="714" type="line" smooth="yes"/>
      <point x="65" y="609" type="line" smooth="yes"/>
      <point x="65" y="0" type="line" smooth="yes"/>
      <point x="135" y="0" type="line" smooth="yes"/>
      <point x="135" y="604" type="line" smooth="yes"/>
      <point x="149" y="677" type="line" smooth="yes"/>
      <point x="193" y="727" type="line" smooth="yes"/>
      <point x="270" y="746" type="line" smooth="yes"/>
      <point x="347" y="728" type="line" smooth="yes"/>
      <point x="391" y="678" type="line" smooth="yes"/>
      <point x="405" y="602" type="line" smooth="yes"/>
      <point x="390" y="530" type="line" smooth="yes"/>
      <point x="344" y="471" type="line" smooth="yes"/>
      <point x="262" y="416" type="line" smooth="yes"/>
    </contour>
  </outline>
</glyph>
<glyph name="aacute" format="1">
  <advance width="512"/>
  <unicode hex="00E1"/>
  <outline>
    <contour>
      <point x="310" y="780" type="line" smooth="yes"/>
      <point x="220" y="614" type="line" smooth="yes"/>
      <point x="292" y="614" type="line" smooth="yes"/>
      <point x="386" y="780" type="line" smooth="yes"/>
    </contour>
    <contour>
      <point x="216" y="50" type="line" smooth="yes"/>
      <point x="158" y="63" type="line" smooth="yes"/>
      <point x="125" y="96" type="line" smooth="yes"/>
      <point x="115" y="140" type="line" smooth="yes"/>
      <point x="115" y="149" type="line" smooth="yes"/>
      <point x="128" y="200" type="line" smooth="yes"/>
      <point x="166" y="235" type="line" smooth="yes"/>
      <point x="224" y="254" type="line" smooth="yes"/>
      <point x="378" y="279" type="line" smooth="yes"/>
      <point x="378" y="134" type="line" smooth="yes"/>
      <point x="349" y="98" type="line" smooth="yes"/>
      <point x="297" y="65" type="line" smooth="yes"/>
    </contour>
    <contour>
      <point x="396" y="0" type="line" smooth="yes"/>
      <point x="454" y="0" type="line" smooth="yes"/>
      <point x="448" y="150" type="line" smooth="yes"/>
      <point x="448" y="344" type="line" smooth="yes"/>
      <point x="431" y="447" type="line" smooth="yes"/>
      <point x="371" y="516" type="line" smooth="yes"/>
      <point x="256" y="541" type="line" smooth="yes"/>
      <point x="137" y="513" type="line" smooth="yes"/>
      <point x="80" y="445" type="line" smooth="yes"/>
      <point x="65" y="364" type="line" smooth="yes"/>
      <point x="65" y="355" type="line" smooth="yes"/>
      <point x="132" y="355" type="line" smooth="yes"/>
      <point x="142" y="419" type="line" smooth="yes"/>
      <point x="179" y="464" type="line" smooth="yes"/>
      <point x="255" y="482" type="line" smooth="yes"/>
      <point x="329" y="466" type="line" smooth="yes"/>
      <point x="367" y="420" type="line" smooth="yes"/>
      <point x="378" y="344" type="line" smooth="yes"/>
      <point x="378" y="330" type="line" smooth="yes"/>
      <point x="218" y="305" type="line" smooth="yes"/>
      <point x="135" y="283" type="line" smooth="yes"/>
      <point x="71" y="234" type="line" smooth="yes"/>
      <point x="45" y="144" type="line" smooth="yes"/>
      <point x="45" y="134" type="line" smooth="yes"/>
      <point x="63" y="59" type="line" smooth="yes"/>
      <point x="115" y="8" type="line" smooth="yes"/>
      <point x="198" y="-11" type="line" smooth="yes"/>
      <point x="280" y="1" type="line" smooth="yes"/>
      <point x="341" y="32" type="line" smooth="yes"/>
      <point x="385" y="74" type="line" smooth="yes"/>
    </contour>
  </outline>
</glyph>
<glyph name="ae" format="1">
  <advance width="871"/>
  <unicode hex="00E6"/>
  <outline>
    <contour>
      <point x="601" y="482" type="line" smooth="yes"/>
      <point x="684" y="459" type="line" smooth="yes"/>
      <point x="734" y="394" type="line" smooth="yes"/>
      <point x="753" y="294" type="line" smooth="yes"/>
      <point x="449" y="294" type="line" smooth="yes"/>
      <point x="468" y="394" type="line" smooth="yes"/>
      <point x="518" y="459" type="line" smooth="yes"/>
    </contour>
    <contour>
      <point x="381" y="138" type="line" smooth="yes"/>
      <point x="354" y="102" type="line" smooth="yes"/>
      <point x="301" y="66" type="line" smooth="yes"/>
      <point x="216" y="49" type="line" smooth="yes"/>
      <point x="158" y="62" type="line" smooth="yes"/>
      <point x="125" y="95" type="line" smooth="yes"/>
      <point x="115" y="139" type="line" smooth="yes"/>
      <point x="115" y="148" type="line" smooth="yes"/>
      <point x="128" y="199" type="line" smooth="yes"/>
      <point x="166" y="234" type="line" smooth="yes"/>
      <point x="225" y="253" type="line" smooth="yes"/>
      <point x="378" y="278" type="line" smooth="yes"/>
      <point x="378" y="254" type="line" smooth="yes"/>
      <point x="379" y="218" type="line" smooth="yes"/>
      <point x="384" y="184" type="line" smooth="yes"/>
      <point x="391" y="152" type="line" smooth="yes"/>
    </contour>
    <contour>
      <point x="825" y="236" type="line" smooth="yes"/>
      <point x="825" y="276" type="line" smooth="yes"/>
      <point x="802" y="410" type="line" smooth="yes"/>
      <point x="729" y="505" type="line" smooth="yes"/>
      <point x="602" y="541" type="line" smooth="yes"/>
      <point x="524" y="529" type="line" smooth="yes"/>
      <point x="465" y="494" type="line" smooth="yes"/>
      <point x="424" y="442" type="line" smooth="yes"/>
      <point x="393" y="495" type="line" smooth="yes"/>
      <point x="339" y="529" type="line" smooth="yes"/>
      <point x="256" y="541" type="line" smooth="yes"/>
      <point x="137" y="513" type="line" smooth="yes"/>
      <point x="80" y="445" type="line" smooth="yes"/>
      <point x="65" y="364" type="line" smooth="yes"/>
      <point x="65" y="355" type="line" smooth="yes"/>
      <point x="132" y="355" type="line" smooth="yes"/>
      <point x="142" y="419" type="line" smooth="yes"/>
      <point x="179" y="464" type="line" smooth="yes"/>
      <point x="255" y="482" type="line" smooth="yes"/>
      <point x="329" y="466" type="line" smooth="yes"/>
      <point x="367" y="420" type="line" smooth="yes"/>
      <point x="378" y="344" type="line" smooth="yes"/>
      <point x="378" y="330" type="line" smooth="yes"/>
      <point x="219" y="305" type="line" smooth="yes"/>
      <point x="136" y="283" type="line" smooth="yes"/>
      <point x="71" y="234" type="line" smooth="yes"/>
      <point x="45" y="144" type="line" smooth="yes"/>
      <point x="45" y="134" type="line" smooth="yes"/>
      <point x="63" y="59" type="line" smooth="yes"/>
      <point x="117" y="8" type="line" smooth="yes"/>
      <point x="201" y="-11" type="line" smooth="yes"/>
      <point x="295" y="4" type="line" smooth="yes"/>
      <point x="366" y="42" type="line" smooth="yes"/>
      <point x="415" y="92" type="line" smooth="yes"/>
      <point x="459" y="37" type="line" smooth="yes"/>
      <point x="523" y="2" type="line" smooth="yes"/>
      <point x="607" y="-11" type="line" smooth="yes"/>
      <point x="730" y="17" type="line" smooth="yes"/>
      <point x="802" y="84" type="line" smooth="yes"/>
      <point x="825" y="166" type="line" smooth="yes"/>
      <point x="825" y="170" type="line" smooth="yes"/>
      <point x="757" y="170" type="line" smooth="yes"/>
      <point x="742" y="113" type="line" smooth="yes"/>
      <point x="693" y="67" type="line" smooth="yes"/>
      <point x="608" y="48" type="line" smooth="yes"/>
      <point x="520" y="71" type="line" smooth="yes"/>
      <point x="468" y="136" type="line" smooth="yes"/>
      <point x="449" y="236" type="line" smooth="yes"/>
    </contour>
  </outline>
</glyph>
<glyph name="ccedilla" format="1">
  <advance width="522"/>
  <unicode hex="00E7"/>
  <outline>
    <contour>
      <point x="188" y="-191" type="line" smooth="yes"/>
      <point x="213" y="-202" type="line" smooth="yes"/>
      <point x="244" y="-209" type="line" smooth="yes"/>
      <point x="280" y="-211" type="line" smooth="yes"/>
      <point x="334" y="-203" type="line" smooth="yes"/>
      <point x="370" y="-178" type="line" smooth="yes"/>
      <point x="383" y="-133" type="line" smooth="yes"/>
      <point x="368" y="-88" type="line" smooth="yes"/>
      <point x="331" y="-64" type="line" smooth="yes"/>
      <point x="283" y="-56" type="line" smooth="yes"/>
      <point x="279" y="-56" type="line" smooth="yes"/>
      <point x="296" y="-10" type="line" smooth="yes"/>
      <point x="398" y="23" type="line" smooth="yes"/>
      <point x="455" y="89" type="line" smooth="yes"/>
      <point x="473" y="168" type="line" smooth="yes"/>
      <point x="473" y="184" type="line" smooth="yes"/>
      <point x="406" y="184" type="line" smooth="yes"/>
      <point x="393" y="119" type="line" smooth="yes"/>
      <point x="350" y="71" type="line" smooth="yes"/>
      <point x="271" y="52" type="line" smooth="yes"/>
      <point x="185" y="77" type="line" smooth="yes"/>
      <point x="136" y="147" type="line" smooth="yes"/>
      <point x="120" y="253" type="line" smooth="yes"/>
      <point x="120" y="277" type="line" smooth="yes"/>
      <point x="136" y="383" type="line" smooth="yes"/>
      <point x="185" y="453" type="line" smooth="yes"/>
      <point x="271" y="478" type="line" smooth="yes"/>
      <point x="349" y="459" type="line" smooth="yes"/>
      <point x="392" y="409" type="line" smooth="yes"/>
      <point x="406" y="336" type="line" smooth="yes"/>
      <point x="473" y="336" type="line" smooth="yes"/>
      <point x="473" y="356" type="line" smooth="yes"/>
      <point x="453" y="442" type="line" smooth="yes"/>
      <point x="388" y="512" type="line" smooth="yes"/>
      <point x="270" y="541" type="line" smooth="yes"/>
      <point x="144" y="505" type="line" smooth="yes"/>
      <point x="72" y="411" type="line" smooth="yes"/>
      <point x="49" y="277" type="line" smooth="yes"/>
      <point x="49" y="253" type="line" smooth="yes"/>
      <point x="70" y="125" type="line" smooth="yes"/>
      <point x="135" y="32" type="line" smooth="yes"/>
      <point x="248" y="-10" type="line" smooth="yes"/>
      <point x="221" y="-80" type="line" smooth="yes"/>
      <point x="240" y="-103" type="line" smooth="yes"/>
      <point x="244" y="-102" type="line" smooth="yes"/>
      <point x="255" y="-101" type="line" smooth="yes"/>
      <point x="269" y="-100" type="line" smooth="yes"/>
      <point x="302" y="-103" type="line" smooth="yes"/>
      <point x="323" y="-113" type="line" smooth="yes"/>
      <point x="331" y="-131" type="line" smooth="yes"/>
      <point x="325" y="-150" type="line" smooth="yes"/>
      <point x="305" y="-159" type="line" smooth="yes"/>
      <point x="273" y="-162" type="line" smooth="yes"/>
      <point x="247" y="-160" type="line" smooth="yes"/>
      <point x="223" y="-155" type="line" smooth="yes"/>
      <point x="203" y="-147" type="line" smooth="yes"/>
    </contour>
  </outline>
</glyph>
<glyph name="iacute" format="1">
  <advance width="217"/>
  <unicode hex="00ED"/>
  <outline>
    <contour>
      <point x="162" y="780" type="line" smooth="yes"/>
      <point x="72" y="614" type="line" smooth="yes"/>
      <point x="144" y="614" type="line" smooth="yes"/>
      <point x="238" y="780" type="line" smooth="yes"/>
    </contour>
    <contour>
      <point x="73" y="0" type="line" smooth="yes"/>
      <point x="143" y="0" type="line" smooth="yes"/>
      <point x="143" y="530" type="line" smooth="yes"/>
      <point x="73" y="530" type="line" smooth="yes"/>
    </contour>
  </outline>
</glyph>
<glyph name="eth" format="1">
  <advance width="544"/>
  <unicode hex="00F0"/>
  <outline>
    <contour>
      <point x="272" y="52" type="line" smooth="yes"/>
      <point x="186" y="77" type="line" smooth="yes"/>
      <point x="136" y="147" type="line" smooth="yes"/>
      <point x="120" y="253" type="line" smooth="yes"/>
      <point x="120" y="277" type="line" smooth="yes"/>
      <point x="136" y="383" type="line" smooth="yes"/>
      <point x="186" y="453" type="line" smooth="yes"/>
      <point x="272" y="478" type="line" smooth="yes"/>
      <point x="358" y="453" type="line" smooth="yes"/>
      <point x="408" y="383" type="line" smooth="yes"/>
      <point x="424" y="277" type="line" smooth="yes"/>
      <point x="424" y="253" type="line" smooth="yes"/>
      <point x="408" y="147" type="line" smooth="yes"/>
      <point x="358" y="77" type="line" smooth="yes"/>
    </contour>
    <contour>
      <point x="49" y="747" type="line" smooth="yes"/>
      <point x="105" y="738" type="line" smooth="yes"/>
      <point x="159" y="724" type="line" smooth="yes"/>
      <point x="210" y="703" type="line" smooth="yes"/>
      <point x="87" y="632" type="line" smooth="yes"/>
      <point x="87" y="577" type="line" smooth="yes"/>
      <point x="258" y="676" type="line" smooth="yes"/>
      <point x="281" y="659" type="line" smooth="yes"/>
      <point x="303" y="641" type="line" smooth="yes"/>
      <point x="325" y="620" type="line" smooth="yes"/>
      <point x="354" y="582" type="line" smooth="yes"/>
      <point x="379" y="540" type="line" smooth="yes"/>
      <point x="398" y="494" type="line" smooth="yes"/>
      <point x="362" y="519" type="line" smooth="yes"/>
      <point x="318" y="535" type="line" smooth="yes"/>
      <point x="266" y="541" type="line" smooth="yes"/>
      <point x="143" y="505" type="line" smooth="yes"/>
      <point x="72" y="411" type="line" smooth="yes"/>
      <point x="49" y="277" type="line" smooth="yes"/>
      <point x="49" y="253" type="line" smooth="yes"/>
      <point x="72" y="119" type="line" smooth="yes"/>
      <point x="145" y="25" type="line" smooth="yes"/>
      <point x="272" y="-11" type="line" smooth="yes"/>
      <point x="399" y="25" type="line" smooth="yes"/>
      <point x="472" y="119" type="line" smooth="yes"/>
      <point x="495" y="253" type="line" smooth="yes"/>
      <point x="495" y="277" type="line" smooth="yes"/>
      <point x="486" y="405" type="line" smooth="yes"/>
      <point x="451" y="542" type="line" smooth="yes"/>
      <point x="380" y="662" type="line" smooth="yes"/>
      <point x="362" y="681" type="line" smooth="yes"/>
      <point x="343" y="698" type="line" smooth="yes"/>
      <point x="324" y="714" type="line" smooth="yes"/>
      <point x="398" y="756" type="line" smooth="yes"/>
      <point x="398" y="811" type="line" smooth="yes"/>
      <point x="281" y="743" type="line" smooth="yes"/>
      <point x="208" y="778" type="line" smooth="yes"/>
      <point x="131" y="800" type="line" smooth="yes"/>
      <point x="49" y="811" type="line" smooth="yes"/>
    </contour>
  </outline>
</glyph>
<glyph name="ntilde" format="1">
  <advance width="528"/>
  <unicode hex="00F1"/>
  <outline>
    <contour>
      <point x="368" y="746" type="line" smooth="yes"/>
      <point x="363" y="720" type="line" smooth="yes"/>
      <point x="350" y="707" type="line" smooth="yes"/>
      <point x="332" y="703" type="line" smooth="yes"/>
      <point x="292" y="717" type="line" smooth="yes"/>
      <point x="247" y="743" type="line" smooth="yes"/>
      <point x="192" y="757" type="line" smooth="yes"/>
      <point x="150" y="746" type="line" smooth="yes"/>
      <point x="121" y="712" type="line" smooth="yes"/>
      <point x="111" y="654" type="line" smooth="yes"/>
      <point x="166" y="654" type="line" smooth="yes"/>
      <point x="171" y="680" type="line" smooth="yes"/>
      <point x="184" y="693" type="line" smooth="yes"/>
      <point x="202" y="697" type="line" smooth="yes"/>
      <point x="242" y="683" type="line" smooth="yes"/>
      <point x="287" y="657" type="line" smooth="yes"/>
      <point x="342" y="643" type="line" smooth="yes"/>
      <point x="384" y="654" type="line" smooth="yes"/>
      <point x="413" y="688" type="line" smooth="yes"/>
      <point x="423" y="746" type="line" smooth="yes"/>
    </contour>
    <contour>
      <point x="467" y="0" type="line" smooth="yes"/>
      <point x="467" y="371" type="line" smooth="yes"/>
      <point x="449" y="459" type="line" smooth="yes"/>
      <point x="394" y="519" type="line" smooth="yes"/>
      <point x="306" y="541" type="line" smooth="yes"/>
      <point x="226" y="529" type="line" smooth="yes"/>
      <point x="168" y="498" type="line" smooth="yes"/>
      <point x="128" y="455" type="line" smooth="yes"/>
      <point x="118" y="530" type="line" smooth="yes"/>
      <point x="60" y="530" type="line" smooth="yes"/>
      <point x="66" y="380" type="line" smooth="yes"/>
      <point x="66" y="0" type="line" smooth="yes"/>
      <point x="136" y="0" type="line" smooth="yes"/>
      <point x="136" y="396" type="line" smooth="yes"/>
      <point x="165" y="433" type="line" smooth="yes"/>
      <point x="212" y="465" type="line" smooth="yes"/>
      <point x="282" y="478" type="line" smooth="yes"/>
      <point x="343" y="465" type="line" smooth="yes"/>
      <point x="383" y="427" type="line" smooth="yes"/>
      <point x="397" y="361" type="line" smooth="yes"/>
      <point x="397" y="0" type="line" smooth="yes"/>
    </contour>
  </outline>
</glyph>
<glyph name="otilde" format="1">
  <advance width="544"/>
  <unicode hex="00F5"/>
  <outline>
    <contour>
      <point x="373" y="746" type="line" smooth="yes"/>
      <point x="368" y="720" type="line" smooth="yes"/>
      <point x="355" y="707" type="line" smooth="yes"/>
      <point x="337" y="703" type="line" smooth="yes"/>
      <point x="297" y="717" type="line" smooth="yes"/>
      <point x="252" y="743" type="line" smooth="yes"/>
      <point x="197" y="757" type="line" smooth="yes"/>
      <point x="155" y="746" type="line" smooth="yes"/>
      <point x="126" y="712" type="line" smooth="yes"/>
      <point x="116" y="654" type="line" smooth="yes"/>
      <point x="171" y="654" type="line" smooth="yes"/>
      <point x="176" y="680" type="line" smooth="yes"/>
      <point x="189" y="693" type="line" smooth="yes"/>
      <point x="207" y="697" type="line" smooth="yes"/>
      <point x="247" y="683" type="line" smooth="yes"/>
      <point x="292" y="657" type="line" smooth="yes"/>
      <point x="347" y="643" type="line" smooth="yes"/>
      <point x="389" y="654" type="line" smooth="yes"/>
      <point x="418" y="688" type="line" smooth="yes"/>
      <point x="428" y="746" type="line" smooth="yes"/>
    </contour>
    <contour>
      <point x="272" y="52" type="line" smooth="yes"/>
      <point x="186" y="77" type="line" smooth="yes"/>
      <point x="136" y="147" type="line" smooth="yes"/>
      <point x="120" y="253" type="line" smooth="yes"/>
      <point x="120" y="277" type="line" smooth="yes"/>
      <point x="136" y="383" type="line" smooth="yes"/>
      <point x="186" y="453" type="line" smooth="yes"/>
      <point x="272" y="478" type="line" smooth="yes"/>
      <point x="358" y="453" type="line" smooth="yes"/>
      <point x="408" y="383" type="line" smooth="yes"/>
      <point x="424" y="277" type="line" smooth="yes"/>
      <point x="424" y="253" type="line" smooth="yes"/>
      <point x="408" y="147" type="line" smooth="yes"/>
      <point x="358" y="77" type="line" smooth="yes"/>
    </contour>
    <contour>
      <point x="272" y="-11" type="line" smooth="yes"/>
      <point x="399" y="25" type="line" smooth="yes"/>
      <point x="472" y="119" type="line" smooth="yes"/>
      <point x="495" y="253" type="line" smooth="yes"/>
      <point x="495" y="277" type="line" smooth="yes"/>
      <point x="472" y="411" type="line" smooth="yes"/>
      <point x="399" y="505" type="line" smooth="yes"/>
      <point x="272" y="541" type="line" smooth="yes"/>
      <point x="145" y="505" type="line" smooth="yes"/>
      <point x="72" y="411" type="line" smooth="yes"/>
      <point x="49" y="277" type="line" smooth="yes"/>
      <point x="49" y="253" type="line" smooth="yes"/>
      <point x="72" y="119" type="line" smooth="yes"/>
      <point x="145" y="25" type="line" smooth="yes"/>
    </contour>
  </outline>
</glyph>
<glyph name="oslash" format="1">
  <advance width="544"/>
  <unicode hex="00F8"/>
  <outline>
    <contour>
      <point x="424" y="277" type="line" smooth="yes"/>
      <point x="424" y="253" type="line" smooth="yes"/>
      <point x="408" y="147" type="line" smooth="yes"/>
      <point x="358" y="77" type="line" smooth="yes"/>
      <point x="272" y="52" type="line" smooth="yes"/>
      <point x="231" y="57" type="line" smooth="yes"/>
      <point x="197" y="70" type="line" smooth="yes"/>
      <point x="169" y="91" type="line" smooth="yes"/>
      <point x="399" y="401" type="line" smooth="yes"/>
      <point x="413" y="365" type="line" smooth="yes"/>
      <point x="421" y="324" type="line" smooth="yes"/>
    </contour>
    <contour>
      <point x="120" y="253" type="line" smooth="yes"/>
      <point x="120" y="277" type="line" smooth="yes"/>
      <point x="136" y="383" type="line" smooth="yes"/>
      <point x="186" y="453" type="line" smooth="yes"/>
      <point x="272" y="478" type="line" smooth="yes"/>
      <point x="313" y="473" type="line" smooth="yes"/>
      <point x="347" y="460" type="line" smooth="yes"/>
      <point x="374" y="438" type="line" smooth="yes"/>
      <point x="144" y="128" type="line" smooth="yes"/>
      <point x="131" y="164" type="line" smooth="yes"/>
      <point x="123" y="206" type="line" smooth="yes"/>
    </contour>
    <contour>
      <point x="495" y="530" type="line" smooth="yes"/>
      <point x="442" y="530" type="line" smooth="yes"/>
      <point x="414" y="493" type="line" smooth="yes"/>
      <point x="375" y="519" type="line" smooth="yes"/>
      <point x="328" y="535" type="line" smooth="yes"/>
      <point x="272" y="541" type="line" smooth="yes"/>
      <point x="145" y="505" type="line" smooth="yes"/>
      <point x="72" y="411" type="line" smooth="yes"/>
      <point x="49" y="277" type="line" smooth="yes"/>
      <point x="49" y="253" type="line" smooth="yes"/>
      <point x="54" y="184" type="line" smooth="yes"/>
      <point x="71" y="121" type="line" smooth="yes"/>
      <point x="100" y="68" type="line" smooth="yes"/>
      <point x="49" y="0" type="line" smooth="yes"/>
      <point x="102" y="0" type="line" smooth="yes"/>
      <point x="129" y="37" type="line" smooth="yes"/>
      <point x="168" y="11" type="line" smooth="yes"/>
      <point x="216" y="-5" type="line" smooth="yes"/>
      <point x="272" y="-11" type="line" smooth="yes"/>
      <point x="399" y="25" type="line" smooth="yes"/>
      <point x="472" y="119" type="line" smooth="yes"/>
      <point x="495" y="253" type="line" smooth="yes"/>
      <point x="495" y="277" type="line" smooth="yes"/>
      <point x="490" y="346" type="line" smooth="yes"/>
      <point x="473" y="408" type="line" smooth="yes"/>
      <point x="444" y="461" type="line" smooth="yes"/>
    </contour>
  </outline>
</glyph>
<glyph name="uacute" format="1">
  <advance width="528"/>
  <unicode hex="00FA"/>
  <outline>
    <contour>
      <point x="315" y="780" type="line" smooth="yes"/>
      <point x="225" y="614" type="line" smooth="yes"/>
      <point x="297" y="614" type="line" smooth="yes"/>
      <point x="391" y="780" type="line" smooth="yes"/>
    </contour>
    <contour>
      <point x="61" y="530" type="line" smooth="yes"/>
      <point x="61" y="159" type="line" smooth="yes"/>
      <point x="79" y="71" type="line" smooth="yes"/>
      <point x="133" y="11" type="line" smooth="yes"/>
      <point x="222" y="-11" type="line" smooth="yes"/>
      <point x="301" y="1" type="line" smooth="yes"/>
      <point x="360" y="31" type="line" smooth="yes"/>
      <point x="399" y="74" type="line" smooth="yes"/>
      <point x="410" y="0" type="line" smooth="yes"/>
      <point x="468" y="0" type="line" smooth="yes"/>
      <point x="462" y="150" type="line" smooth="yes"/>
      <point x="462" y="530" type="line" smooth="yes"/>
      <point x="392" y="530" type="line" smooth="yes"/>
      <point x="392" y="134" type="line" smooth="yes"/>
      <point x="363" y="97" type="line" smooth="yes"/>
      <point x="316" y="65" type="line" smooth="yes"/>
      <point x="245" y="52" type="line" smooth="yes"/>
      <point x="184" y="65" type="line" smooth="yes"/>
      <point x="144" y="103" type="line" smooth="yes"/>
      <point x="130" y="169" type="line" smooth="yes"/>
      <point x="130" y="530" type="line" smooth="yes"/>
    </contour>
  </outline>
</glyph>
<glyph name="thorn" format="1">
  <advance width="537"/>
  <unicode hex="00FE"/>
  <outline>
    <contour>
      <point x="136" y="134" type="line" smooth="yes"/>
      <point x="136" y="396" type="line" smooth="yes"/>
      <point x="164" y="433" type="line" smooth="yes"/>
      <point x="208" y="465" type="line" smooth="yes"/>
      <point x="270" y="478" type="line" smooth="yes"/>
      <point x="353" y="453" type="line" smooth="yes"/>
      <point x="401" y="384" type="line" smooth="yes"/>
      <point x="417" y="277" type="line" smooth="yes"/>
      <point x="417" y="253" type="line" smooth="yes"/>
      <point x="401" y="146" type="line" smooth="yes"/>
      <point x="353" y="77" type="line" smooth="yes"/>
      <point x="270" y="52" type="line" smooth="yes"/>
      <point x="208" y="65" type="line" smooth="yes"/>
      <point x="164" y="97" type="line" smooth="yes"/>
    </contour>
    <contour>
      <point x="65" y="800" type="line" smooth="yes"/>
      <point x="65" y="-200" type="line" smooth="yes"/>
      <point x="135" y="-200" type="line" smooth="yes"/>
      <point x="135" y="62" type="line" smooth="yes"/>
      <point x="170" y="25" type="line" smooth="yes"/>
      <point x="220" y="-1" type="line" smooth="yes"/>
      <point x="286" y="-11" type="line" smooth="yes"/>
      <point x="403" y="25" type="line" smooth="yes"/>
      <point x="469" y="119" type="line" smooth="yes"/>
      <point x="489" y="253" type="line" smooth="yes"/>
      <point x="489" y="277" type="line" smooth="yes"/>
      <point x="469" y="411" type="line" smooth="yes"/>
      <point x="403" y="505" type="line" smooth="yes"/>
      <point x="286" y="541" type="line" smooth="yes"/>
      <point x="220" y="531" type="line" smooth="yes"/>
      <point x="170" y="505" type="line" smooth="yes"/>
      <point x="135" y="468" type="line" smooth="yes"/>
      <point x="135" y="800" type="line" smooth="yes"/>
    </contour>
  </outline>
</glyph>
<glyph name="Abreve" format="1">
  <advance width="611"/>
  <unicode hex="0102"/>
  <outline>
    <contour>
      <point x="305" y="829" type="line" smooth="yes"/>
      <point x="389" y="845" type="line" smooth="yes"/>
      <point x="436" y="888" type="line" smooth="yes"/>
      <point x="450" y="950" type="line" smooth="yes"/>
      <point x="394" y="950" type="line" smooth="yes"/>
      <point x="385" y="912" type="line" smooth="yes"/>
      <point x="356" y="888" type="line" smooth="yes"/>
      <point x="305" y="879" type="line" smooth="yes"/>
      <point x="254" y="888" type="line" smooth="yes"/>
      <point x="225" y="912" type="line" smooth="yes"/>
      <point x="216" y="950" type="line" smooth="yes"/>
      <point x="160" y="950" type="line" smooth="yes"/>
      <point x="174" y="888" type="line" smooth="yes"/>
      <point x="221" y="845" type="line" smooth="yes"/>
    </contour>
    <contour>
      <point x="305" y="709" type="line" smooth="yes"/>
      <point x="429" y="265" type="line" smooth="yes"/>
      <point x="181" y="265" type="line" smooth="yes"/>
    </contour>
    <contour>
      <point x="254" y="788" type="line" smooth="yes"/>
      <point x="29" y="0" type="line" smooth="yes"/>
      <point x="107" y="0" type="line" smooth="yes"/>
      <point x="163" y="200" type="line" smooth="yes"/>
      <point x="448" y="200" type="line" smooth="yes"/>
      <point x="504" y="0" type="line" smooth="yes"/>
      <point x="582" y="0" type="line" smooth="yes"/>
      <point x="357" y="788" type="line" smooth="yes"/>
    </contour>
  </outline>
</glyph>
<glyph name="Aogonek" format="1">
  <advance width="611"/>
  <unicode hex="0104"/>
  <outline>
    <contour>
      <point x="305" y="709" type="line" smooth="yes"/>
      <point x="429" y="265" type="line" smooth="yes"/>
      <point x="181" y="265" type="line" smooth="yes"/>
    </contour>
    <contour>
      <point x="499" y="-103" type="line" smooth="yes"/>
      <point x="511" y="-58" type="line" smooth="yes"/>
      <point x="541" y="-24" type="line" smooth="yes"/>
      <point x="582" y="0" type="line" smooth="yes"/>
      <point x="357" y="788" type="line" smooth="yes"/>
      <point x="254" y="788" type="line" smooth="yes"/>
      <point x="29" y="0" type="line" smooth="yes"/>
      <point x="107" y="0" type="line" smooth="yes"/>
      <point x="163" y="200" type="line" smooth="yes"/>
      <point x="448" y="200" type="line" smooth="yes"/>
      <point x="502" y="7" type="line" smooth="yes"/>
      <point x="470" y="-25" type="line" smooth="yes"/>
      <point x="447" y="-65" type="line" smooth="yes"/>
      <point x="439" y="-113" type="line" smooth="yes"/>
      <point x="453" y="-169" type="line" smooth="yes"/>
      <point x="491" y="-201" type="line" smooth="yes"/>
      <point x="548" y="-211" type="line" smooth="yes"/>
      <point x="581" y="-209" type="line" smooth="yes"/>
      <point x="612" y="-202" type="line" smooth="yes"/>
      <point x="637" y="-191" type="line" smooth="yes"/>
      <point x="618" y="-139" type="line" smooth="yes"/>
      <point x="600" y="-146" type="line" smooth="yes"/>
      <point x="579" y="-151" type="line" smooth="yes"/>
      <point x="555" y="-153" type="line" smooth="yes"/>
      <point x="524" y="-146" type="line" smooth="yes"/>
      <point x="506" y="-129" type="line" smooth="yes"/>
    </contour>
  </outline>
</glyph>
<glyph name="aogonek" format="1">
  <advance width="512"/>
  <unicode hex="0105"/>
  <outline>
    <contour>
      <point x="216" y="50" type="line" smooth="yes"/>
      <point x="158" y="63" type="line" smooth="yes"/>
      <point x="125" y="96" type="line" smooth="yes"/>
      <point x="115" y="140" type="line" smooth="yes"/>
      <point x="115" y="149" type="line" smooth="yes"/>
      <point x="128" y="200" type="line" smooth="yes"/>
      <point x="166" y="235" type="line" smooth="yes"/>
      <point x="224" y="254" type="line" smooth="yes"/>
      <point x="378" y="279" type="line" smooth="yes"/>
      <point x="378" y="134" type="line" smooth="yes"/>
      <point x="349" y="98" type="line" smooth="yes"/>
      <point x="297" y="65" type="line" smooth="yes"/>
    </contour>
    <contour>
      <point x="371" y="-103" type="line" smooth="yes"/>
      <point x="383" y="-58" type="line" smooth="yes"/>
      <point x="413" y="-24" type="line" smooth="yes"/>
      <point x="454" y="0" type="line" smooth="yes"/>
      <point x="448" y="150" type="line" smooth="yes"/>
      <point x="448" y="344" type="line" smooth="yes"/>
      <point x="431" y="447" type="line" smooth="yes"/>
      <point x="371" y="516" type="line" smooth="yes"/>
      <point x="256" y="541" type="line" smooth="yes"/>
      <point x="137" y="513" type="line" smooth="yes"/>
      <point x="80" y="445" type="line" smooth="yes"/>
      <point x="65" y="364" type="line" smooth="yes"/>
      <point x="65" y="355" type="line" smooth="yes"/>
      <point x="132" y="355" type="line" smooth="yes"/>
      <point x="142" y="419" type="line" smooth="yes"/>
      <point x="179" y="464" type="line" smooth="yes"/>
      <point x="255" y="482" type="line" smooth="yes"/>
      <point x="329" y="466" type="line" smooth="yes"/>
      <point x="367" y="420" type="line" smooth="yes"/>
      <point x="378" y="344" type="line" smooth="yes"/>
      <point x="378" y="330" type="line" smooth="yes"/>
      <point x="218" y="305" type="line" smooth="yes"/>
      <point x="135" y="283" type="line" smooth="yes"/>
      <point x="71" y="234" type="line" smooth="yes"/>
      <point x="45" y="144" type="line" smooth="yes"/>
      <point x="45" y="134" type="line" smooth="yes"/>
      <point x="63" y="59" type="line" smooth="yes"/>
      <point x="115" y="8" type="line" smooth="yes"/>
      <point x="198" y="-11" type="line" smooth="yes"/>
      <point x="280" y="1" type="line" smooth="yes"/>
      <point x="341" y="32" type="line" smooth="yes"/>
      <point x="385" y="74" type="line" smooth="yes"/>
      <point x="393" y="21" type="line" smooth="yes"/>
      <point x="351" y="-13" type="line" smooth="yes"/>
      <point x="322" y="-57" type="line" smooth="yes"/>
      <point x="311" y="-113" type="line" smooth="yes"/>
      <point x="325" y="-169" type="line" smooth="yes"/>
      <point x="363" y="-201" type="line" smooth="yes"/>
      <point x="420" y="-211" type="line" smooth="yes"/>
      <point x="453" y="-209" type="line" smooth="yes"/>
      <point x="484" y="-202" type="line" smooth="yes"/>
      <point x="509" y="-191" type="line" smooth="yes"/>
      <point x="490" y="-139" type="line" smooth="yes"/>
      <point x="472" y="-146" type="line" smooth="yes"/>
      <point x="451" y="-151" type="line" smooth="yes"/>
      <point x="427" y="-153" type="line" smooth="yes"/>
      <point x="396" y="-146" type="line" smooth="yes"/>
      <point x="378" y="-129" type="line" smooth="yes"/>
    </contour>
  </outline>
</glyph>
<glyph name="Ccaron" format="1">
  <advance width="618"/>
  <unicode hex="010C"/>
  <outline>
    <contour>
      <point x="184" y="950" type="line" smooth="yes"/>
      <point x="290" y="840" type="line" smooth="yes"/>
      <point x="354" y="840" type="line" smooth="yes"/>
      <point x="460" y="950" type="line" smooth="yes"/>
      <point x="390" y="950" type="line" smooth="yes"/>
      <point x="322" y="883" type="line" smooth="yes"/>
      <point x="254" y="950" type="line" smooth="yes"/>
    </contour>
    <contour>
      <point x="131" y="370" type="line" smooth="yes"/>
      <point x="131" y="410" type="line" smooth="yes"/>
      <point x="151" y="591" type="line" smooth="yes"/>
      <point x="214" y="693" type="line" smooth="yes"/>
      <point x="321" y="726" type="line" smooth="yes"/>
      <point x="328" y="726" type="line" smooth="yes"/>
      <point x="423" y="702" type="line" smooth="yes"/>
      <point x="477" y="627" type="line" smooth="yes"/>
      <point x="494" y="496" type="line" smooth="yes"/>
      <point x="568" y="496" type="line" smooth="yes"/>
      <point x="568" y="524" type="line" smooth="yes"/>
      <point x="541" y="671" type="line" smooth="yes"/>
      <point x="460" y="761" type="line" smooth="yes"/>
      <point x="322" y="791" type="line" smooth="yes"/>
      <point x="174" y="752" type="line" smooth="yes"/>
      <point x="86" y="629" type="line" smooth="yes"/>
      <point x="57" y="410" type="line" smooth="yes"/>
      <point x="57" y="370" type="line" smooth="yes"/>
      <point x="86" y="151" type="line" smooth="yes"/>
      <point x="174" y="28" type="line" smooth="yes"/>
      <point x="322" y="-11" type="line" smooth="yes"/>
      <point x="460" y="19" type="line" smooth="yes"/>
      <point x="541" y="105" type="line" smooth="yes"/>
      <point x="568" y="244" type="line" smooth="yes"/>
      <point x="568" y="254" type="line" smooth="yes"/>
      <point x="494" y="254" type="line" smooth="yes"/>
      <point x="477" y="145" type="line" smooth="yes"/>
      <point x="423" y="77" type="line" smooth="yes"/>
      <point x="328" y="54" type="line" smooth="yes"/>
      <point x="321" y="54" type="line" smooth="yes"/>
      <point x="214" y="87" type="line" smooth="yes"/>
      <point x="151" y="189" type="line" smooth="yes"/>
    </contour>
  </outline>
</glyph>
<glyph name="Dcaron" format="1">
  <advance width="639"/>
  <unicode hex="010E"/>
  <outline>
    <contour>
      <point x="154" y="950" type="line" smooth="yes"/>
      <point x="260" y="840" type="line" smooth="yes"/>
      <point x="324" y="840" type="line" smooth="yes"/>
      <point x="430" y="950" type="line" smooth="yes"/>
      <point x="360" y="950" type="line" smooth="yes"/>
      <point x="292" y="883" type="line" smooth="yes"/>
      <point x="224" y="950" type="line" smooth="yes"/>
    </contour>
    <contour>
      <point x="146" y="65" type="line" smooth="yes"/>
      <point x="146" y="715" type="line" smooth="yes"/>
      <point x="274" y="715" type="line" smooth="yes"/>
      <point x="401" y="685" type="line" smooth="yes"/>
      <point x="481" y="588" type="line" smooth="yes"/>
      <point x="508" y="410" type="line" smooth="yes"/>
      <point x="508" y="370" type="line" smooth="yes"/>
      <point x="481" y="192" type="line" smooth="yes"/>
      <point x="401" y="95" type="line" smooth="yes"/>
      <point x="274" y="65" type="line" smooth="yes"/>
    </contour>
    <contour>
      <point x="582" y="370" type="line" smooth="yes"/>
      <point x="582" y="410" type="line" smooth="yes"/>
      <point x="546" y="626" type="line" smooth="yes"/>
      <point x="443" y="744" type="line" smooth="yes"/>
      <point x="280" y="780" type="line" smooth="yes"/>
      <point x="74" y="780" type="line" smooth="yes"/>
      <point x="74" y="0" type="line" smooth="yes"/>
      <point x="280" y="0" type="line" smooth="yes"/>
      <point x="443" y="36" type="line" smooth="yes"/>
      <point x="546" y="154" type="line" smooth="yes"/>
    </contour>
  </outline>
</glyph>
<glyph name="Dcroat" format="1">
  <advance width="699"/>
  <unicode hex="0110"/>
  <outline>
    <contour>
      <point x="206" y="715" type="line" smooth="yes"/>
      <point x="334" y="715" type="line" smooth="yes"/>
      <point x="461" y="685" type="line" smooth="yes"/>
      <point x="541" y="588" type="line" smooth="yes"/>
      <point x="568" y="410" type="line" smooth="yes"/>
      <point x="568" y="370" type="line" smooth="yes"/>
      <point x="541" y="192" type="line" smooth="yes"/>
      <point x="461" y="95" type="line" smooth="yes"/>
      <point x="334" y="65" type="line" smooth="yes"/>
      <point x="206" y="65" type="line" smooth="yes"/>
      <point x="206" y="369" type="line" smooth="yes"/>
      <point x="419" y="369" type="line" smooth="yes"/>
      <point x="419" y="428" type="line" smooth="yes"/>
      <point x="206" y="428" type="line" smooth="yes"/>
    </contour>
    <contour>
      <point x="18" y="369" type="line" smooth="yes"/>
      <point x="134" y="369" type="line" smooth="yes"/>
      <point x="134" y="0" type="line" smooth="yes"/>
      <point x="340" y="0" type="line" smooth="yes"/>
      <point x="503" y="36" type="line" smooth="yes"/>
      <point x="606" y="154" type="line" smooth="yes"/>
      <point x="642" y="370" type="line" smooth="yes"/>
      <point x="642" y="410" type="line" smooth="yes"/>
      <point x="606" y="626" type="line" smooth="yes"/>
      <point x="503" y="744" type="line" smooth="yes"/>
      <point x="340" y="780" type="line" smooth="yes"/>
      <point x="134" y="780" type="line" smooth="yes"/>
      <point x="134" y="428" type="line" smooth="yes"/>
      <point x="18" y="428" type="line" smooth="yes"/>
    </contour>
  </outline>
</glyph>
<glyph name="Ebreve" format="1">
  <advance width="549"/>
  <unicode hex="0114"/>
  <outline>
    <contour>
      <point x="74" y="780" type="line" smooth="yes"/>
      <point x="74" y="0" type="line" smooth="yes"/>
      <point x="509" y="0" type="line" smooth="yes"/>
      <point x="509" y="65" type="line" smooth="yes"/>
      <point x="146" y="65" type="line" smooth="yes"/>
      <point x="146" y="366" type="line" smooth="yes"/>
      <point x="459" y="366" type="line" smooth="yes"/>
      <point x="459" y="430" type="line" smooth="yes"/>
      <point x="146" y="430" type="line" smooth="yes"/>
      <point x="146" y="715" type="line" smooth="yes"/>
      <point x="509" y="715" type="line" smooth="yes"/>
      <point x="509" y="780" type="line" smooth="yes"/>
    </contour>
    <contour>
      <point x="299" y="829" type="line" smooth="yes"/>
      <point x="383" y="845" type="line" smooth="yes"/>
      <point x="430" y="888" type="line" smooth="yes"/>
      <point x="444" y="950" type="line" smooth="yes"/>
      <point x="388" y="950" type="line" smooth="yes"/>
      <point x="379" y="912" type="line" smooth="yes"/>
      <point x="350" y="888" type="line" smooth="yes"/>
      <point x="299" y="879" type="line" smooth="yes"/>
      <point x="248" y="888" type="line" smooth="yes"/>
      <point x="219" y="912" type="line" smooth="yes"/>
      <point x="210" y="950" type="line" smooth="yes"/>
      <point x="154" y="950" type="line" smooth="yes"/>
      <point x="168" y="888" type="line" smooth="yes"/>
      <point x="215" y="845" type="line" smooth="yes"/>
    </contour>
  </outline>
</glyph>
<glyph name="ebreve" format="1">
  <advance width="544"/>
  <unicode hex="0115"/>
  <outline>
    <contour>
      <point x="273" y="603" type="line" smooth="yes"/>
      <point x="366" y="626" type="line" smooth="yes"/>
      <point x="418" y="688" type="line" smooth="yes"/>
      <point x="434" y="780" type="line" smooth="yes"/>
      <point x="377" y="780" type="line" smooth="yes"/>
      <point x="366" y="718" type="line" smooth="yes"/>
      <point x="333" y="677" type="line" smooth="yes"/>
      <point x="273" y="662" type="line" smooth="yes"/>
      <point x="213" y="677" type="line" smooth="yes"/>
      <point x="180" y="718" type="line" smooth="yes"/>
      <point x="169" y="780" type="line" smooth="yes"/>
      <point x="112" y="780" type="line" smooth="yes"/>
      <point x="128" y="688" type="line" smooth="yes"/>
      <point x="180" y="626" type="line" smooth="yes"/>
    </contour>
    <contour>
      <point x="272" y="482" type="line" smooth="yes"/>
      <point x="355" y="459" type="line" smooth="yes"/>
      <point x="405" y="394" type="line" smooth="yes"/>
      <point x="424" y="294" type="line" smooth="yes"/>
      <point x="120" y="294" type="line" smooth="yes"/>
      <point x="139" y="394" type="line" smooth="yes"/>
      <point x="189" y="459" type="line" smooth="yes"/>
    </contour>
    <contour>
      <point x="495" y="236" type="line" smooth="yes"/>
      <point x="495" y="276" type="line" smooth="yes"/>
      <point x="472" y="410" type="line" smooth="yes"/>
      <point x="399" y="505" type="line" smooth="yes"/>
      <point x="273" y="541" type="line" smooth="yes"/>
      <point x="146" y="505" type="line" smooth="yes"/>
      <point x="73" y="410" type="line" smooth="yes"/>
      <point x="49" y="276" type="line" smooth="yes"/>
      <point x="49" y="254" type="line" smooth="yes"/>
      <point x="73" y="120" type="line" smooth="yes"/>
      <point x="148" y="25" type="line" smooth="yes"/>
      <point x="278" y="-11" type="line" smooth="yes"/>
      <point x="400" y="17" type="line" smooth="yes"/>
      <point x="472" y="84" type="line" smooth="yes"/>
      <point x="495" y="166" type="line" smooth="yes"/>
      <point x="495" y="170" type="line" smooth="yes"/>
      <point x="428" y="170" type="line" smooth="yes"/>
      <point x="413" y="113" type="line" smooth="yes"/>
      <point x="364" y="67" type="line" smooth="yes"/>
      <point x="278" y="48" type="line" smooth="yes"/>
      <point x="191" y="71" type="line" smooth="yes"/>
      <point x="139" y="136" type="line" smooth="yes"/>
      <point x="120" y="236" type="line" smooth="yes"/>
    </contour>
  </outline>
</glyph>
<glyph name="Eogonek" format="1">
  <advance width="549"/>
  <unicode hex="0118"/>
  <outline>
    <contour>
      <point x="74" y="780" type="line" smooth="yes"/>
      <point x="74" y="0" type="line" smooth="yes"/>
      <point x="419" y="0" type="line" smooth="yes"/>
      <point x="391" y="-31" type="line" smooth="yes"/>
      <point x="372" y="-68" type="line" smooth="yes"/>
      <point x="365" y="-113" type="line" smooth="yes"/>
      <point x="379" y="-169" type="line" smooth="yes"/>
      <point x="417" y="-201" type="line" smooth="yes"/>
      <point x="474" y="-211" type="line" smooth="yes"/>
      <point x="507" y="-209" type="line" smooth="yes"/>
      <point x="538" y="-202" type="line" smooth="yes"/>
      <point x="563" y="-191" type="line" smooth="yes"/>
      <point x="544" y="-139" type="line" smooth="yes"/>
      <point x="526" y="-146" type="line" smooth="yes"/>
      <point x="505" y="-151" type="line" smooth="yes"/>
      <point x="481" y="-153" type="line" smooth="yes"/>
      <point x="450" y="-146" type="line" smooth="yes"/>
      <point x="432" y="-129" type="line" smooth="yes"/>
      <point x="425" y="-103" type="line" smooth="yes"/>
      <point x="437" y="-58" type="line" smooth="yes"/>
      <point x="467" y="-24" type="line" smooth="yes"/>
      <point x="508" y="0" type="line" smooth="yes"/>
      <point x="509" y="0" type="line" smooth="yes"/>
      <point x="509" y="65" type="line" smooth="yes"/>
      <point x="146" y="65" type="line" smooth="yes"/>
      <point x="146" y="366" type="line" smooth="yes"/>
      <point x="459" y="366" type="line" smooth="yes"/>
      <point x="459" y="430" type="line" smooth="yes"/>
      <point x="146" y="430" type="line" smooth="yes"/>
      <point x="146" y="715" type="line" smooth="yes"/>
      <point x="509" y="715" type="line" smooth="yes"/>
      <point x="509" y="780" type="line" smooth="yes"/>
    </contour>
  </outline>
</glyph>
<glyph name="eogonek" format="1">
  <advance width="544"/>
  <unicode hex="0119"/>
  <outline>
    <contour>
      <point x="272" y="482" type="line" smooth="yes"/>
      <point x="355" y="459" type="line" smooth="yes"/>
      <point x="405" y="394" type="line" smooth="yes"/>
      <point x="424" y="294" type="line" smooth="yes"/>
      <point x="120" y="294" type="line" smooth="yes"/>
      <point x="139" y="394" type="line" smooth="yes"/>
      <point x="189" y="459" type="line" smooth="yes"/>
    </contour>
    <contour>
      <point x="495" y="236" type="line" smooth="yes"/>
      <point x="495" y="276" type="line" smooth="yes"/>
      <point x="472" y="410" type="line" smooth="yes"/>
      <point x="399" y="505" type="line" smooth="yes"/>
      <point x="273" y="541" type="line" smooth="yes"/>
      <point x="146" y="505" type="line" smooth="yes"/>
      <point x="73" y="410" type="line" smooth="yes"/>
      <point x="49" y="276" type="line" smooth="yes"/>
      <point x="49" y="254" type="line" smooth="yes"/>
      <point x="71" y="125" type="line" smooth="yes"/>
      <point x="139" y="31" type="line" smooth="yes"/>
      <point x="259" y="-10" type="line" smooth="yes"/>
      <point x="236" y="-39" type="line" smooth="yes"/>
      <point x="221" y="-74" type="line" smooth="yes"/>
      <point x="216" y="-113" type="line" smooth="yes"/>
      <point x="230" y="-169" type="line" smooth="yes"/>
      <point x="268" y="-201" type="line" smooth="yes"/>
      <point x="325" y="-211" type="line" smooth="yes"/>
      <point x="358" y="-209" type="line" smooth="yes"/>
      <point x="389" y="-202" type="line" smooth="yes"/>
      <point x="414" y="-191" type="line" smooth="yes"/>
      <point x="395" y="-139" type="line" smooth="yes"/>
      <point x="377" y="-146" type="line" smooth="yes"/>
      <point x="356" y="-151" type="line" smooth="yes"/>
      <point x="332" y="-153" type="line" smooth="yes"/>
      <point x="301" y="-146" type="line" smooth="yes"/>
      <point x="283" y="-129" type="line" smooth="yes"/>
      <point x="276" y="-103" type="line" smooth="yes"/>
      <point x="288" y="-56" type="line" smooth="yes"/>
      <point x="318" y="-21" type="line" smooth="yes"/>
      <point x="358" y="0" type="line" smooth="yes"/>
      <point x="436" y="40" type="line" smooth="yes"/>
      <point x="481" y="100" type="line" smooth="yes"/>
      <point x="495" y="166" type="line" smooth="yes"/>
      <point x="495" y="170" type="line" smooth="yes"/>
      <point x="428" y="170" type="line" smooth="yes"/>
      <point x="413" y="113" type="line" smooth="yes"/>
      <point x="364" y="67" type="line" smooth="yes"/>
      <point x="278" y="48" type="line" smooth="yes"/>
      <point x="191" y="71" type="line" smooth="yes"/>
      <point x="139" y="136" type="line" smooth="yes"/>
      <point x="120" y="236" type="line" smooth="yes"/>
    </contour>
  </outline>
</glyph>
<glyph name="Ecaron" format="1">
  <advance width="549"/>
  <unicode hex="011A"/>
  <outline>
    <contour>
      <point x="161" y="950" type="line" smooth="yes"/>
      <point x="267" y="840" type="line" smooth="yes"/>
      <point x="331" y="840" type="line" smooth="yes"/>
      <point x="437" y="950" type="line" smooth="yes"/>
      <point x="367" y="950" type="line" smooth="yes"/>
      <point x="299" y="883" type="line" smooth="yes"/>
      <point x="231" y="950" type="line" smooth="yes"/>
    </contour>
    <contour>
      <point x="74" y="780" type="line" smooth="yes"/>
      <point x="74" y="0" type="line" smooth="yes"/>
      <point x="509" y="0" type="line" smooth="yes"/>
      <point x="509" y="65" type="line" smooth="yes"/>
      <point x="146" y="65" type="line" smooth="yes"/>
      <point x="146" y="366" type="line" smooth="yes"/>
      <point x="459" y="366" type="line" smooth="yes"/>
      <point x="459" y="430" type="line" smooth="yes"/>
      <point x="146" y="430" type="line" smooth="yes"/>
      <point x="146" y="715" type="line" smooth="yes"/>
      <point x="509" y="715" type="line" smooth="yes"/>
      <point x="509" y="780" type="line" smooth="yes"/>
    </contour>
  </outline>
</glyph>
<glyph name="Gbreve" format="1">
  <advance width="648"/>
  <unicode hex="011E"/>
  <outline>
    <contour>
      <point x="331" y="829" type="line" smooth="yes"/>
      <point x="415" y="845" type="line" smooth="yes"/>
      <point x="462" y="888" type="line" smooth="yes"/>
      <point x="476" y="950" type="line" smooth="yes"/>
      <point x="420" y="950" type="line" smooth="yes"/>
      <point x="411" y="912" type="line" smooth="yes"/>
      <point x="382" y="888" type="line" smooth="yes"/>
      <point x="331" y="879" type="line" smooth="yes"/>
      <point x="280" y="888" type="line" smooth="yes"/>
      <point x="251" y="912" type="line" smooth="yes"/>
      <point x="242" y="950" type="line" smooth="yes"/>
      <point x="186" y="950" type="line" smooth="yes"/>
      <point x="200" y="888" type="line" smooth="yes"/>
      <point x="247" y="845" type="line" smooth="yes"/>
    </contour>
    <contour>
      <point x="341" y="-11" type="line" smooth="yes"/>
      <point x="448" y="3" type="line" smooth="yes"/>
      <point x="526" y="36" type="line" smooth="yes"/>
      <point x="579" y="79" type="line" smooth="yes"/>
      <point x="579" y="384" type="line" smooth="yes"/>
      <point x="373" y="384" type="line" smooth="yes"/>
      <point x="373" y="320" type="line" smooth="yes"/>
      <point x="507" y="320" type="line" smooth="yes"/>
      <point x="507" y="114" type="line" smooth="yes"/>
      <point x="470" y="85" type="line" smooth="yes"/>
      <point x="417" y="63" type="line" smooth="yes"/>
      <point x="346" y="54" type="line" smooth="yes"/>
      <point x="339" y="54" type="line" smooth="yes"/>
      <point x="222" y="87" type="line" smooth="yes"/>
      <point x="154" y="189" type="line" smooth="yes"/>
      <point x="132" y="370" type="line" smooth="yes"/>
      <point x="132" y="410" type="line" smooth="yes"/>
      <point x="154" y="591" type="line" smooth="yes"/>
      <point x="221" y="693" type="line" smooth="yes"/>
      <point x="331" y="726" type="line" smooth="yes"/>
      <point x="337" y="726" type="line" smooth="yes"/>
      <point x="434" y="702" type="line" smooth="yes"/>
      <point x="489" y="627" type="line" smooth="yes"/>
      <point x="506" y="496" type="line" smooth="yes"/>
      <point x="579" y="496" type="line" smooth="yes"/>
      <point x="579" y="524" type="line" smooth="yes"/>
      <point x="552" y="671" type="line" smooth="yes"/>
      <point x="470" y="761" type="line" smooth="yes"/>
      <point x="331" y="791" type="line" smooth="yes"/>
      <point x="181" y="752" type="line" smooth="yes"/>
      <point x="88" y="629" type="line" smooth="yes"/>
      <point x="57" y="410" type="line" smooth="yes"/>
      <point x="57" y="370" type="line" smooth="yes"/>
      <point x="89" y="151" type="line" smooth="yes"/>
      <point x="184" y="28" type="line" smooth="yes"/>
    </contour>
  </outline>
</glyph>
<glyph name="gbreve" format="1">
  <advance width="537"/>
  <unicode hex="011F"/>
  <outline>
    <contour>
      <point x="265" y="603" type="line" smooth="yes"/>
      <point x="358" y="626" type="line" smooth="yes"/>
      <point x="410" y="688" type="line" smooth="yes"/>
      <point x="426" y="780" type="line" smooth="yes"/>
      <point x="369" y="780" type="line" smooth="yes"/>
      <point x="358" y="718" type="line" smooth="yes"/>
      <point x="325" y="677" type="line" smooth="yes"/>
      <point x="265" y="662" type="line" smooth="yes"/>
      <point x="205" y="677" type="line" smooth="yes"/>
      <point x="172" y="718" type="line" smooth="yes"/>
      <point x="161" y="780" type="line" smooth="yes"/>
      <point x="104" y="780" type="line" smooth="yes"/>
      <point x="120" y="688" type="line" smooth="yes"/>
      <point x="172" y="626" type="line" smooth="yes"/>
    </contour>
    <contour>
      <point x="402" y="396" type="line" smooth="yes"/>
      <point x="402" y="171" type="line" smooth="yes"/>
      <point x="373" y="135" type="line" smooth="yes"/>
      <point x="330" y="103" type="line" smooth="yes"/>
      <point x="267" y="90" type="line" smooth="yes"/>
      <point x="185" y="113" type="line" smooth="yes"/>
      <point x="136" y="176" type="line" smooth="yes"/>
      <point x="120" y="273" type="line" smooth="yes"/>
      <point x="120" y="295" type="line" smooth="yes"/>
      <point x="136" y="391" type="line" smooth="yes"/>
      <point x="185" y="455" type="line" smooth="yes"/>
      <point x="267" y="478" type="line" smooth="yes"/>
      <point x="330" y="465" type="line" smooth="yes"/>
      <point x="373" y="433" type="line" smooth="yes"/>
    </contour>
    <contour>
      <point x="402" y="-1" type="line" smooth="yes"/>
      <point x="389" y="-83" type="line" smooth="yes"/>
      <point x="344" y="-133" type="line" smooth="yes"/>
      <point x="263" y="-150" type="line" smooth="yes"/>
      <point x="183" y="-133" type="line" smooth="yes"/>
      <point x="140" y="-83" type="line" smooth="yes"/>
      <point x="126" y="0" type="line" smooth="yes"/>
      <point x="59" y="0" type="line" smooth="yes"/>
      <point x="59" y="-13" type="line" smooth="yes"/>
      <point x="78" y="-113" type="line" smooth="yes"/>
      <point x="143" y="-184" type="line" smooth="yes"/>
      <point x="264" y="-211" type="line" smooth="yes"/>
      <point x="385" y="-184" type="line" smooth="yes"/>
      <point x="452" y="-111" type="line" smooth="yes"/>
      <point x="472" y="-5" type="line" smooth="yes"/>
      <point x="472" y="380" type="line" smooth="yes"/>
      <point x="478" y="530" type="line" smooth="yes"/>
      <point x="420" y="530" type="line" smooth="yes"/>
      <point x="410" y="459" type="line" smooth="yes"/>
      <point x="375" y="500" type="line" smooth="yes"/>
      <point x="323" y="530" type="line" smooth="yes"/>
      <point x="252" y="541" type="line" smooth="yes"/>
      <point x="135" y="507" type="line" smooth="yes"/>
      <point x="70" y="418" type="line" smooth="yes"/>
      <point x="49" y="295" type="line" smooth="yes"/>
      <point x="49" y="273" type="line" smooth="yes"/>
      <point x="70" y="149" type="line" smooth="yes"/>
      <point x="135" y="61" type="line" smooth="yes"/>
      <point x="252" y="27" type="line" smooth="yes"/>
      <point x="317" y="36" type="line" smooth="yes"/>
      <point x="367" y="61" type="line" smooth="yes"/>
      <point x="402" y="97" type="line" smooth="yes"/>
    </contour>
  </outline>
</glyph>
<glyph name="Gdotaccent" format="1">
  <advance width="648"/>
  <unicode hex="0120"/>
  <outline>
    <contour>
      <point x="371" y="930" type="line" smooth="yes"/>
      <point x="291" y="930" type="line" smooth="yes"/>
      <point x="291" y="860" type="line" smooth="yes"/>
      <point x="371" y="860" type="line" smooth="yes"/>
    </contour>
    <contour>
      <point x="341" y="-11" type="line" smooth="yes"/>
      <point x="448" y="3" type="line" smooth="yes"/>
      <point x="526" y="36" type="line" smooth="yes"/>
      <point x="579" y="79" type="line" smooth="yes"/>
      <point x="579" y="384" type="line" smooth="yes"/>
      <point x="373" y="384" type="line" smooth="yes"/>
      <point x="373" y="320" type="line" smooth="yes"/>
      <point x="507" y="320" type="line" smooth="yes"/>
      <point x="507" y="114" type="line" smooth="yes"/>
      <point x="470" y="85" type="line" smooth="yes"/>
      <point x="417" y="63" type="line" smooth="yes"/>
      <point x="346" y="54" type="line" smooth="yes"/>
      <point x="339" y="54" type="line" smooth="yes"/>
      <point x="222" y="87" type="line" smooth="yes"/>
      <point x="154" y="189" type="line" smooth="yes"/>
      <point x="132" y="370" type="line" smooth="yes"/>
      <point x="132" y="410" type="line" smooth="yes"/>
      <point x="154" y="591" type="line" smooth="yes"/>
      <point x="221" y="693" type="line" smooth="yes"/>
      <point x="331" y="726" type="line" smooth="yes"/>
      <point x="337" y="726" type="line" smooth="yes"/>
      <point x="434" y="702" type="line" smooth="yes"/>
      <point x="489" y="627" type="line" smooth="yes"/>
      <point x="506" y="496" type="line" smooth="yes"/>
      <point x="579" y="496" type="line" smooth="yes"/>
      <point x="579" y="524" type="line" smooth="yes"/>
      <point x="552" y="671" type="line" smooth="yes"/>
      <point x="470" y="761" type="line" smooth="yes"/>
      <point x="331" y="791" type="line" smooth="yes"/>
      <point x="181" y="752" type="line" smooth="yes"/>
      <point x="88" y="629" type="line" smooth="yes"/>
      <point x="57" y="410" type="line" smooth="yes"/>
      <point x="57" y="370" type="line" smooth="yes"/>
      <point x="89" y="151" type="line" smooth="yes"/>
      <point x="184" y="28" type="line" smooth="yes"/>
    </contour>
  </outline>
</glyph>
<glyph name="hcircumflex" format="1">
  <advance width="528"/>
  <unicode hex="0125"/>
  <outline>
    <contour>
      <point x="33" y="840" type="line" smooth="yes"/>
      <point x="101" y="906" type="line" smooth="yes"/>
      <point x="169" y="840" type="line" smooth="yes"/>
      <point x="239" y="840" type="line" smooth="yes"/>
      <point x="133" y="950" type="line" smooth="yes"/>
      <point x="69" y="950" type="line" smooth="yes"/>
      <point x="-37" y="840" type="line" smooth="yes"/>
    </contour>
    <contour>
      <point x="136" y="800" type="line" smooth="yes"/>
      <point x="66" y="800" type="line" smooth="yes"/>
      <point x="66" y="0" type="line" smooth="yes"/>
      <point x="136" y="0" type="line" smooth="yes"/>
      <point x="136" y="396" type="line" smooth="yes"/>
      <point x="165" y="433" type="line" smooth="yes"/>
      <point x="212" y="465" type="line" smooth="yes"/>
      <point x="282" y="478" type="line" smooth="yes"/>
      <point x="343" y="465" type="line" smooth="yes"/>
      <point x="383" y="427" type="line" smooth="yes"/>
      <point x="397" y="361" type="line" smooth="yes"/>
      <point x="397" y="0" type="line" smooth="yes"/>
      <point x="467" y="0" type="line" smooth="yes"/>
      <point x="467" y="371" type="line" smooth="yes"/>
      <point x="449" y="459" type="line" smooth="yes"/>
      <point x="394" y="519" type="line" smooth="yes"/>
      <point x="306" y="541" type="line" smooth="yes"/>
      <point x="232" y="531" type="line" smooth="yes"/>
      <point x="176" y="504" type="line" smooth="yes"/>
      <point x="136" y="466" type="line" smooth="yes"/>
    </contour>
  </outline>
</glyph>
<glyph name="Hbar" format="1">
  <advance width="639"/>
  <unicode hex="0126"/>
  <outline>
    <contour>
      <point x="146" y="430" type="line" smooth="yes"/>
      <point x="146" y="577" type="line" smooth="yes"/>
      <point x="493" y="577" type="line" smooth="yes"/>
      <point x="493" y="430" type="line" smooth="yes"/>
    </contour>
    <contour>
      <point x="493" y="780" type="line" smooth="yes"/>
      <point x="493" y="636" type="line" smooth="yes"/>
      <point x="146" y="636" type="line" smooth="yes"/>
      <point x="146" y="780" type="line" smooth="yes"/>
      <point x="74" y="780" type="line" smooth="yes"/>
      <point x="74" y="0" type="line" smooth="yes"/>
      <point x="146" y="0" type="line" smooth="yes"/>
      <point x="146" y="366" type="line" smooth="yes"/>
      <point x="493" y="366" type="line" smooth="yes"/>
      <point x="493" y="0" type="line" smooth="yes"/>
      <point x="565" y="0" type="line" smooth="yes"/>
      <point x="565" y="780" type="line" smooth="yes"/>
    </contour>
  </outline>
</glyph>
<glyph name="Itilde" format="1">
  <advance width="229"/>
  <unicode hex="0128"/>
  <outline>
    <contour>
      <point x="217" y="936" type="line" smooth="yes"/>
      <point x="212" y="910" type="line" smooth="yes"/>
      <point x="198" y="897" type="line" smooth="yes"/>
      <point x="180" y="893" type="line" smooth="yes"/>
      <point x="141" y="907" type="line" smooth="yes"/>
      <point x="97" y="933" type="line" smooth="yes"/>
      <point x="42" y="947" type="line" smooth="yes"/>
      <point x="1" y="937" type="line" smooth="yes"/>
      <point x="-27" y="907" type="line" smooth="yes"/>
      <point x="-37" y="854" type="line" smooth="yes"/>
      <point x="13" y="854" type="line" smooth="yes"/>
      <point x="18" y="880" type="line" smooth="yes"/>
      <point x="32" y="893" type="line" smooth="yes"/>
      <point x="50" y="897" type="line" smooth="yes"/>
      <point x="89" y="883" type="line" smooth="yes"/>
      <point x="133" y="857" type="line" smooth="yes"/>
      <point x="188" y="843" type="line" smooth="yes"/>
      <point x="229" y="853" type="line" smooth="yes"/>
      <point x="257" y="883" type="line" smooth="yes"/>
      <point x="267" y="936" type="line" smooth="yes"/>
    </contour>
    <contour>
      <point x="151" y="780" type="line" smooth="yes"/>
      <point x="79" y="780" type="line" smooth="yes"/>
      <point x="79" y="0" type="line" smooth="yes"/>
      <point x="151" y="0" type="line" smooth="yes"/>
    </contour>
  </outline>
</glyph>
<glyph name="itilde" format="1">
  <advance width="217"/>
  <unicode hex="0129"/>
  <outline>
    <contour>
      <point x="209" y="746" type="line" smooth="yes"/>
      <point x="204" y="720" type="line" smooth="yes"/>
      <point x="191" y="707" type="line" smooth="yes"/>
      <point x="173" y="703" type="line" smooth="yes"/>
      <point x="133" y="717" type="line" smooth="yes"/>
      <point x="88" y="743" type="line" smooth="yes"/>
      <point x="33" y="757" type="line" smooth="yes"/>
      <point x="-9" y="746" type="line" smooth="yes"/>
      <point x="-38" y="712" type="line" smooth="yes"/>
      <point x="-48" y="654" type="line" smooth="yes"/>
      <point x="7" y="654" type="line" smooth="yes"/>
      <point x="12" y="680" type="line" smooth="yes"/>
      <point x="25" y="693" type="line" smooth="yes"/>
      <point x="43" y="697" type="line" smooth="yes"/>
      <point x="83" y="683" type="line" smooth="yes"/>
      <point x="128" y="657" type="line" smooth="yes"/>
      <point x="183" y="643" type="line" smooth="yes"/>
      <point x="225" y="654" type="line" smooth="yes"/>
      <point x="254" y="688" type="line" smooth="yes"/>
      <point x="264" y="746" type="line" smooth="yes"/>
    </contour>
    <contour>
      <point x="73" y="0" type="line" smooth="yes"/>
      <point x="143" y="0" type="line" smooth="yes"/>
      <point x="143" y="530" type="line" smooth="yes"/>
      <point x="73" y="530" type="line" smooth="yes"/>
    </contour>
  </outline>
</glyph>
<glyph name="Ibreve" format="1">
  <advance width="229"/>
  <unicode hex="012C"/>
  <outline>
    <contour>
      <point x="115" y="829" type="line" smooth="yes"/>
      <point x="199" y="845" type="line" smooth="yes"/>
      <point x="246" y="888" type="line" smooth="yes"/>
      <point x="260" y="950" type="line" smooth="yes"/>
      <point x="204" y="950" type="line" smooth="yes"/>
      <point x="195" y="912" type="line" smooth="yes"/>
      <point x="166" y="888" type="line" smooth="yes"/>
      <point x="115" y="879" type="line" smooth="yes"/>
      <point x="64" y="888" type="line" smooth="yes"/>
      <point x="35" y="912" type="line" smooth="yes"/>
      <point x="26" y="950" type="line" smooth="yes"/>
      <point x="-30" y="950" type="line" smooth="yes"/>
      <point x="-16" y="888" type="line" smooth="yes"/>
      <point x="31" y="845" type="line" smooth="yes"/>
    </contour>
    <contour>
      <point x="151" y="780" type="line" smooth="yes"/>
      <point x="79" y="780" type="line" smooth="yes"/>
      <point x="79" y="0" type="line" smooth="yes"/>
      <point x="151" y="0" type="line" smooth="yes"/>
    </contour>
  </outline>
</glyph>
<glyph name="ibreve" format="1">
  <advance width="217"/>
  <unicode hex="012D"/>
  <outline>
    <contour>
      <point x="108" y="603" type="line" smooth="yes"/>
      <point x="201" y="626" type="line" smooth="yes"/>
      <point x="253" y="688" type="line" smooth="yes"/>
      <point x="269" y="780" type="line" smooth="yes"/>
      <point x="212" y="780" type="line" smooth="yes"/>
      <point x="201" y="718" type="line" smooth="yes"/>
      <point x="168" y="677" type="line" smooth="yes"/>
      <point x="108" y="662" type="line" smooth="yes"/>
      <point x="48" y="677" type="line" smooth="yes"/>
      <point x="15" y="718" type="line" smooth="yes"/>
      <point x="4" y="780" type="line" smooth="yes"/>
      <point x="-53" y="780" type="line" smooth="yes"/>
      <point x="-37" y="688" type="line" smooth="yes"/>
      <point x="15" y="626" type="line" smooth="yes"/>
    </contour>
    <contour>
      <point x="73" y="0" type="line" smooth="yes"/>
      <point x="143" y="0" type="line" smooth="yes"/>
      <point x="143" y="530" type="line" smooth="yes"/>
      <point x="73" y="530" type="line" smooth="yes"/>
    </contour>
  </outline>
</glyph>
<glyph name="Iogonek" format="1">
  <advance width="229"/>
  <unicode hex="012E"/>
  <outline>
    <contour>
      <point x="67" y="-103" type="line" smooth="yes"/>
      <point x="79" y="-58" type="line" smooth="yes"/>
      <point x="109" y="-24" type="line" smooth="yes"/>
      <point x="150" y="0" type="line" smooth="yes"/>
      <point x="151" y="0" type="line" smooth="yes"/>
      <point x="151" y="780" type="line" smooth="yes"/>
      <point x="79" y="780" type="line" smooth="yes"/>
      <point x="79" y="14" type="line" smooth="yes"/>
      <point x="42" y="-18" type="line" smooth="yes"/>
      <point x="17" y="-61" type="line" smooth="yes"/>
      <point x="7" y="-113" type="line" smooth="yes"/>
      <point x="21" y="-169" type="line" smooth="yes"/>
      <point x="59" y="-201" type="line" smooth="yes"/>
      <point x="116" y="-211" type="line" smooth="yes"/>
      <point x="149" y="-209" type="line" smooth="yes"/>
      <point x="180" y="-202" type="line" smooth="yes"/>
      <point x="205" y="-191" type="line" smooth="yes"/>
      <point x="186" y="-139" type="line" smooth="yes"/>
      <point x="168" y="-146" type="line" smooth="yes"/>
      <point x="147" y="-151" type="line" smooth="yes"/>
      <point x="123" y="-153" type="line" smooth="yes"/>
      <point x="92" y="-146" type="line" smooth="yes"/>
      <point x="74" y="-129" type="line" smooth="yes"/>
    </contour>
  </outline>
</glyph>
<glyph name="iogonek" format="1">
  <advance width="217"/>
  <unicode hex="012F"/>
  <outline>
    <contour>
      <point x="153" y="745" type="line" smooth="yes"/>
      <point x="63" y="745" type="line" smooth="yes"/>
      <point x="63" y="655" type="line" smooth="yes"/>
      <point x="153" y="655" type="line" smooth="yes"/>
    </contour>
    <contour>
      <point x="60" y="-103" type="line" smooth="yes"/>
      <point x="72" y="-58" type="line" smooth="yes"/>
      <point x="102" y="-24" type="line" smooth="yes"/>
      <point x="143" y="0" type="line" smooth="yes"/>
      <point x="143" y="530" type="line" smooth="yes"/>
      <point x="73" y="530" type="line" smooth="yes"/>
      <point x="73" y="15" type="line" smooth="yes"/>
      <point x="36" y="-18" type="line" smooth="yes"/>
      <point x="10" y="-61" type="line" smooth="yes"/>
      <point x="0" y="-113" type="line" smooth="yes"/>
      <point x="14" y="-169" type="line" smooth="yes"/>
      <point x="52" y="-201" type="line" smooth="yes"/>
      <point x="109" y="-211" type="line" smooth="yes"/>
      <point x="142" y="-209" type="line" smooth="yes"/>
      <point x="173" y="-202" type="line" smooth="yes"/>
      <point x="198" y="-191" type="line" smooth="yes"/>
      <point x="179" y="-139" type="line" smooth="yes"/>
      <point x="161" y="-146" type="line" smooth="yes"/>
      <point x="140" y="-151" type="line" smooth="yes"/>
      <point x="116" y="-153" type="line" smooth="yes"/>
      <point x="85" y="-146" type="line" smooth="yes"/>
      <point x="67" y="-129" type="line" smooth="yes"/>
    </contour>
  </outline>
</glyph>
<glyph name="Idotaccent" format="1">
  <advance width="229"/>
  <unicode hex="0130"/>
  <outline>
    <contour>
      <point x="155" y="930" type="line" smooth="yes"/>
      <point x="75" y="930" type="line" smooth="yes"/>
      <point x="75" y="860" type="line" smooth="yes"/>
      <point x="155" y="860" type="line" smooth="yes"/>
    </contour>
    <contour>
      <point x="151" y="780" type="line" smooth="yes"/>
      <point x="79" y="780" type="line" smooth="yes"/>
      <point x="79" y="0" type="line" smooth="yes"/>
      <point x="151" y="0" type="line" smooth="yes"/>
    </contour>
  </outline>
</glyph>
<glyph name="IJ" format="1">
  <advance width="499"/>
  <unicode hex="0132"/>
  <outline>
    <contour>
      <point x="151" y="780" type="line" smooth="yes"/>
      <point x="79" y="780" type="line" smooth="yes"/>
      <point x="79" y="0" type="line" smooth="yes"/>
      <point x="151" y="0" type="line" smooth="yes"/>
    </contour>
    <contour>
      <point x="358" y="166" type="line" smooth="yes"/>
      <point x="348" y="100" type="line" smooth="yes"/>
      <point x="317" y="64" type="line" smooth="yes"/>
      <point x="264" y="54" type="line" smooth="yes"/>
      <point x="242" y="56" type="line" smooth="yes"/>
      <point x="221" y="60" type="line" smooth="yes"/>
      <point x="206" y="64" type="line" smooth="yes"/>
      <point x="206" y="2" type="line" smooth="yes"/>
      <point x="220" y="-3" type="line" smooth="yes"/>
      <point x="246" y="-9" type="line" smooth="yes"/>
      <point x="283" y="-11" type="line" smooth="yes"/>
      <point x="359" y="6" type="line" smooth="yes"/>
      <point x="411" y="60" type="line" smooth="yes"/>
      <point x="430" y="157" type="line" smooth="yes"/>
      <point x="430" y="780" type="line" smooth="yes"/>
      <point x="358" y="780" type="line" smooth="yes"/>
    </contour>
  </outline>
</glyph>
<glyph name="ij" format="1">
  <advance width="383"/>
  <unicode hex="0133"/>
  <outline>
    <contour>
      <point x="320" y="745" type="line" smooth="yes"/>
      <point x="230" y="745" type="line" smooth="yes"/>
      <point x="230" y="655" type="line" smooth="yes"/>
      <point x="320" y="655" type="line" smooth="yes"/>
    </contour>
    <contour>
      <point x="153" y="745" type="line" smooth="yes"/>
      <point x="63" y="745" type="line" smooth="yes"/>
      <point x="63" y="655" type="line" smooth="yes"/>
      <point x="153" y="655" type="line" smooth="yes"/>
    </contour>
    <contour>
      <point x="73" y="0" type="line" smooth="yes"/>
      <point x="143" y="0" type="line" smooth="yes"/>
      <point x="143" y="530" type="line" smooth="yes"/>
      <point x="73" y="530" type="line" smooth="yes"/>
    </contour>
    <contour>
      <point x="240" y="-44" type="line" smooth="yes"/>
      <point x="228" y="-108" type="line" smooth="yes"/>
      <point x="194" y="-140" type="line" smooth="yes"/>
      <point x="138" y="-148" type="line" smooth="yes"/>
      <point x="115" y="-147" type="line" smooth="yes"/>
      <point x="95" y="-143" type="line" smooth="yes"/>
      <point x="81" y="-139" type="line" smooth="yes"/>
      <point x="81" y="-200" type="line" smooth="yes"/>
      <point x="94" y="-204" type="line" smooth="yes"/>
      <point x="119" y="-209" type="line" smooth="yes"/>
      <point x="155" y="-211" type="line" smooth="yes"/>
      <point x="235" y="-196" type="line" smooth="yes"/>
      <point x="290" y="-145" type="line" smooth="yes"/>
      <point x="310" y="-53" type="line" smooth="yes"/>
      <point x="310" y="530" type="line" smooth="yes"/>
      <point x="240" y="530" type="line" smooth="yes"/>
    </contour>
  </outline>
</glyph>
